<?xml version="1.0" standalone="no"?>
<!DOCTYPE svg PUBLIC "-//W3C//DTD SVG 1.1//EN" "http://www.w3.org/Graphics/SVG/1.1/DTD/svg11.dtd" >
<svg xmlns="http://www.w3.org/2000/svg">
<metadata>
This is a custom SVG webfont generated by Font Squirrel.
Copyright   : 41 c199092 by Richard A Ware All Rights Reserved
</metadata>
<defs>
<font id="SedonaScriptFLFRegular" horiz-adv-x="618" >
<font-face units-per-em="2048" ascent="1638" descent="-410" />
<missing-glyph horiz-adv-x="409" />
<glyph unicode=" "  horiz-adv-x="409" />
<glyph unicode="&#x09;" horiz-adv-x="409" />
<glyph unicode="&#xa0;" horiz-adv-x="409" />
<glyph unicode="!" horiz-adv-x="679" d="M162 70q0 -29 17.5 -53.5t53.5 -24.5q53 0 79 31.5t26 68.5q0 31 -18.5 56.5t-53.5 25.5q-49 0 -76.5 -31.5t-27.5 -72.5zM428 371.5q-2 -15.5 6 -19.5t21.5 3t29.5 30q66 98 137.5 186t131.5 158q53 63 94 112.5t65 86.5q27 39 21 73.5t-29 51.5q-25 16 -59.5 6t-59 -47 t-55.5 -93.5t-67 -127.5q-43 -84 -97.5 -182.5t-120.5 -196.5q-16 -25 -18 -40.5z" />
<glyph unicode="&#x22;" horiz-adv-x="638" d="M377 834.5q8 -5.5 18 9.5q59 80 117.5 140t112.5 112q23 23 20.5 44t-19 31.5t-39 6.5t-38.5 -33q-35 -66 -72 -137.5t-98 -151.5q-10 -16 -2 -21.5zM604 834.5q8 -5.5 19 9.5q59 82 118.5 141t112.5 111q23 23 19.5 44t-19.5 31q-16 12 -39.5 8.5t-40.5 -34.5 q-35 -66 -71.5 -137.5t-96.5 -151.5q-10 -16 -2 -21.5z" />
<glyph unicode="#" horiz-adv-x="694" d="M73 446.5q-3 -8.5 2 -14.5t17 -6h160q-2 -4 -19.5 -30.5t-44 -64.5t-41.5 -61q-12 -20 6.5 -29.5t34.5 15.5q12 18 32 47t39.5 56.5t32.5 47.5l13 19h170q-2 -4 -19.5 -29.5t-44 -66.5t-49.5 -70q-12 -18 6.5 -28.5t34.5 14.5q20 29 51 72.5t50.5 73.5t21.5 34h154 q37 0 40 20.5t-32 20.5h-135l111 162h151q33 0 37 20.5t-25 20.5h-135l13 17q12 17 29.5 42t35.5 51.5t31 46.5q10 18 -9.5 26.5t-33.5 -13.5q-10 -16 -29.5 -45t-39 -56.5t-34.5 -48.5l-14 -20h-172q2 4 20.5 29.5t46 64.5t44.5 65q12 20 -8.5 27.5t-37 -17t-45 -66.5 t-48 -70.5t-23.5 -32.5h-174q-27 0 -32 -20.5t21 -20.5h156l-110 -162h-173q-12 0 -21 -6t-12 -14.5zM332 467l108 162h172l-110 -162h-170z" />
<glyph unicode="$" horiz-adv-x="872" d="M74 195q0 -59 36.5 -110.5t108.5 -80.5l-11 -19q-11 -19 -27.5 -45t-33 -53.5t-24.5 -42t-5 -24.5t12 -14.5t20.5 0t19.5 18.5t25.5 42t33 54.5t27.5 45.5l12 20q45 -14 105 -15q66 0 137.5 22.5t130.5 67.5t98 110t39 151q0 51 -14 91t-34.5 73.5t-44 61t-42.5 52.5 l164 268q16 -4 36.5 -11t38 -18.5t29 -25.5t11.5 -29q0 -25 -29 -41q-14 -8 2 -17t41 -9q39 0 61.5 23.5t22.5 58.5q0 23 -14.5 45t-38 41.5t-55 33t-64.5 19.5q2 4 15.5 25.5t31.5 50t24.5 39t2.5 18.5t-13.5 12t-20.5 1t-18 -13q-4 -6 -15 -25.5t-25.5 -42t-24.5 -39.5 l-10 -18l-9 1q-8 1 -18 1q-80 0 -142.5 -22.5t-107.5 -61.5t-68.5 -88t-23.5 -104q0 -57 26.5 -106.5t55.5 -90.5l-246 -403q-33 16 -54.5 39.5t-21.5 60.5q0 20 10.5 32.5t39.5 20.5q12 4 13 16.5t-8.5 27t-26.5 24.5t-40 10q-37 0 -68.5 -28.5t-31.5 -79.5zM313 57 l228 375q12 -18 25.5 -42.5t24.5 -52.5t17 -54.5t6 -49.5q0 -80 -63.5 -133t-155.5 -53q-41 0 -82 10zM580 739q0 20 9 44t29.5 44.5t53.5 33.5t78 13l-140 -231q-12 23 -21 45t-9 51z" />
<glyph unicode="%" horiz-adv-x="1146" d="M245 -35q-1 -10 5 -13t16 2t21 17q63 78 124.5 143.5t122 127t123 123t129.5 131.5q84 86 176.5 195.5t200.5 258.5q16 23 1 31t-31 -14q-88 -111 -184.5 -210.5t-213.5 -215.5q-102 -104 -221 -235.5t-256 -311.5q-12 -19 -13 -29zM264 643q0 -78 40 -129t104 -51 q80 0 146.5 48t115.5 116.5t76.5 142.5t27.5 125q0 59 -28.5 96t-88.5 37q-76 0 -146.5 -32.5t-125.5 -87t-88 -124t-33 -141.5zM381 616q0 45 25.5 107.5t66.5 120t92 98.5t105 41q29 0 43 -23.5t14 -64.5t-24.5 -103.5t-64.5 -122t-93 -102.5t-109 -43q-27 0 -41 25.5 t-14 66.5zM735 164q0 -78 40 -129t104 -51q80 0 146.5 48t115.5 116.5t76.5 142.5t27.5 125q0 59 -28.5 96t-88.5 37q-76 0 -146.5 -33t-125.5 -87t-88 -123.5t-33 -141.5zM852 137q0 45 25.5 107.5t66.5 120t92 98.5t105 41q29 0 43 -23.5t14 -64.5t-24.5 -103.5 t-64.5 -122t-93 -102.5t-109 -43q-27 0 -41 25.5t-14 66.5z" />
<glyph unicode="&#x26;" horiz-adv-x="1210" d="M131 215q0 -47 14.5 -88t47 -70.5t85 -47t128.5 -17.5q82 0 153.5 30.5t118.5 77.5q2 -4 14.5 -30.5t47 -57t88 -28.5t116 29.5t143.5 97.5q29 25 19 42t-43 -8q-59 -49 -101 -63t-73 -2t-53.5 47t-40.5 84q37 45 63.5 81t59.5 73q35 39 68.5 69.5t92.5 36.5 q-8 -8 -15 -22.5t-7 -36.5q0 -29 21.5 -50.5t56.5 -21.5t64.5 25.5t29.5 66.5q0 43 -36 69.5t-93 26.5q-59 0 -112.5 -26.5t-86.5 -57.5q-39 -35 -71.5 -74.5t-67.5 -78.5q-27 70 -51.5 150.5t-40.5 154.5q51 20 99 49t86 66t60.5 81t22.5 95q0 66 -45 118t-123 52 q-61 0 -111.5 -23.5t-86 -63.5t-55 -93.5t-19.5 -114.5q0 -39 3 -76t13 -76q-76 -23 -145.5 -60.5t-121.5 -88.5t-84 -112.5t-32 -133.5zM309 279q0 51 17.5 90t48.5 69.5t70.5 54t84.5 42.5q8 -41 20.5 -87.5t27 -90.5t29 -84t26.5 -70q-2 -2 -24.5 -16.5t-66.5 -32 t-96 -17.5q-70 0 -103.5 44.5t-33.5 97.5zM637 821q0 92 40 132t99 40q51 0 81 -35.5t30 -83.5q0 -37 -20.5 -70.5t-53.5 -60t-75 -48t-83 -33.5q-18 81 -18 159z" />
<glyph unicode="'" horiz-adv-x="493" d="M384 821q13 -8 26 8q59 80 119.5 142.5t113.5 113.5q25 23 19.5 45.5t-23.5 34t-44 7t-40 -34.5q-35 -66 -72 -137.5t-98 -151.5q-14 -19 -1 -27z" />
<glyph unicode="(" horiz-adv-x="634" d="M193.5 447.5q-7.5 -119.5 9 -224t51.5 -187.5t72 -130q49 -61 32 0q-20 74 -26 167t4 199.5t36.5 219t69.5 223.5q37 94 85 182t102.5 164t113 136t117.5 97q49 31 46 44.5t-60 -9.5q-61 -25 -145.5 -87t-169.5 -148t-160.5 -190.5t-120.5 -215.5q-49 -121 -56.5 -240.5z " />
<glyph unicode=")" horiz-adv-x="722" d="M47 -131q2 -12 45 6q74 33 158 91.5t163 138t147.5 179t113.5 216.5q41 106 50 227t-3 232.5t-42 200.5t-63 132q-29 35 -37 33t3 -33q20 -72 25 -167t-4 -200.5t-34.5 -218t-64.5 -219.5q-37 -96 -86 -187t-105.5 -168t-116 -136t-114.5 -92q-37 -23 -35 -35z" />
<glyph unicode="*" horiz-adv-x="690" d="M430 801q8 -31 44 -25t74 26.5t68 43.5l31 22l-17 -30q-17 -31 -31.5 -69t-15.5 -71.5t31.5 -40t45 24.5t14.5 71t-2 74l-4 35l17 -28q17 -29 42 -59t52.5 -46t49.5 8q20 25 0 50.5t-54 45t-65 32.5l-32 14l37 1q37 1 80 8t74.5 24.5t21.5 48t-46 24.5t-74 -25.5 t-68 -41.5l-29 -23l17 31q17 31 31.5 69.5t15.5 72.5t-31.5 40t-45 -25.5t-13.5 -72.5t3 -76l4 -35l-17 31q-17 31 -44 62.5t-55.5 51t-49.5 -5.5q-23 -25 -1 -51t57 -49t66 -38l32 -15l-37 -1q-37 -1 -79 -9.5t-74.5 -25.5t-22.5 -48z" />
<glyph unicode="+" horiz-adv-x="638" d="M92 354.5q2 -18.5 25 -14.5q41 6 97 7t114 -11q-2 -4 -11.5 -33t-34 -77t-61.5 -87q-12 -14 1.5 -27.5t35.5 7.5q33 31 59.5 66.5t46 65.5t30.5 50l12 21q27 -4 64.5 -1t76.5 9t72.5 14t50.5 14q12 4 14 12.5t-2 15.5t-12 11t-17 0q-39 -16 -98 -11t-119 13l8 23 q8 23 22.5 53.5t35 61t45.5 45.5q12 6 3 21t-26 7q-35 -18 -65.5 -53t-54 -68.5t-36.5 -58.5l-14 -24q-31 2 -64.5 1t-67.5 -5.5t-63.5 -10.5t-52.5 -14q-16 -4 -14 -22.5z" />
<glyph unicode="," horiz-adv-x="311" d="M-84 -256q2 -6 23 6q31 18 77.5 53t94 73t87.5 77t56 67q14 25 20.5 52.5t1 52.5t-20.5 40t-44 15q-37 0 -58.5 -17.5t-30.5 -44t-6 -59t15 -61.5q8 -23 -11.5 -54.5t-53 -65.5t-73.5 -66.5t-69 -53.5q-10 -8 -8 -14z" />
<glyph unicode="-" horiz-adv-x="659" d="M118 350q3 -8 14 -11t30 3q18 8 37.5 10t38.5 2q29 0 54 -7t58 -15q18 -4 49 -9.5t47 -5.5q53 0 93.5 13.5t64.5 27.5q14 8 19.5 18.5t2.5 18.5t-12.5 12.5t-21.5 -1.5q-16 -10 -39 -12.5t-45 -2.5q-25 0 -52.5 7.5t-62.5 15.5q-29 6 -55.5 8t-50.5 2q-45 0 -85 -13.5 t-63 -23.5q-14 -6 -19 -17.5t-2 -19.5z" />
<glyph unicode="." horiz-adv-x="356" d="M115 70q0 -29 17.5 -53.5t53.5 -24.5q53 0 79 31.5t26 68.5q0 31 -18.5 56.5t-53.5 25.5q-49 0 -76.5 -31.5t-27.5 -72.5z" />
<glyph unicode="/" horiz-adv-x="432" d="M-47 -197q-14 -37 4 -45q23 -12 41 23q100 203 212 374t220.5 328.5t207.5 311t179 319.5q16 37 -8.5 47t-40.5 -24q-72 -156 -174 -312.5t-215 -321.5t-225.5 -338.5t-200.5 -361.5z" />
<glyph unicode="0" horiz-adv-x="870" d="M119 287q0 -66 17.5 -120t50 -95t75.5 -63.5t96 -22.5q88 0 167 37.5t146.5 98t123 138.5t94.5 158t59.5 155.5t20.5 133.5q0 98 -48.5 159.5t-144.5 61.5q-127 0 -245.5 -55.5t-210 -145.5t-146.5 -205.5t-55 -234.5zM313 244q0 49 19.5 113.5t54.5 132t81 132 t99.5 115.5t111.5 83t116 32q47 0 71.5 -40t24.5 -105q0 -45 -18.5 -108.5t-51.5 -132.5t-79 -136.5t-99 -120.5t-113.5 -86t-121.5 -33q-45 0 -70 43t-25 111z" />
<glyph unicode="1" horiz-adv-x="667" d="M74 0h278l26 58q26 58 89 175t168.5 291t265.5 408q8 12 -14.5 14t-52.5 -14q-57 -35 -140.5 -74t-170.5 -76t-169 -68.5t-139 -49.5q-16 -4 -22.5 -14.5t-5.5 -21t8.5 -17.5t21.5 -3q63 18 143 48t151 58.5t119 49.5l48 20z" />
<glyph unicode="2" horiz-adv-x="874" d="M52 -9q3 -9 10.5 -11.5t15.5 3t12 15.5q16 37 58 60.5t85 23.5q45 0 73 -18.5t63 -40.5q27 -16 63.5 -29.5t91.5 -13.5q59 0 105.5 15t83.5 40.5t64.5 59.5t49.5 71q12 20 0 26.5t-32 -16.5q-25 -25 -72 -24q-37 0 -82 12t-96 35q-35 16 -69 21t-62 5q-29 0 -47 -3 l-19 -3q45 27 97.5 50.5t106.5 46t106.5 46t99.5 54.5q25 16 56.5 43.5t59 65.5t47 87.5t19.5 110.5q0 41 -12.5 78t-40 65.5t-69.5 45t-101 16.5q-82 0 -149.5 -33t-116 -83t-75 -110.5t-26.5 -113.5q0 -72 43 -121q23 -25 41.5 -9.5t1.5 38.5q-14 18 -23.5 40.5t-9.5 51.5 q0 39 17.5 81t49.5 75.5t77 55t98 21.5q63 0 92 -27.5t29 -70.5q0 -102 -53.5 -176t-132.5 -141q-63 -55 -142.5 -96.5t-154 -82.5t-136 -91t-92.5 -120q-6 -16 -3 -25z" />
<glyph unicode="3" horiz-adv-x="794" d="M86 164q0 -72 53.5 -122t157.5 -50q98 0 178 28.5t135.5 75.5t85 107.5t29.5 122.5q0 59 -28.5 111t-82.5 65q61 8 112.5 30.5t89.5 56.5t58.5 77t20.5 92q0 78 -58.5 125t-156.5 47q-78 0 -139.5 -22.5t-104.5 -58.5t-65.5 -79t-22.5 -82q-2 -43 23 -78q10 -14 21 -17 t18.5 0t9.5 13t-6 25q-12 20 -13 57q0 27 15.5 55.5t43 52t65.5 38t85 14.5q49 0 78 -24.5t29 -65.5q0 -43 -17.5 -84t-44 -74t-59.5 -56.5t-64 -29.5q-16 2 -34.5 4t-36 -1t-28.5 -11t-11 -23q0 -12 10 -17t25 -5q16 0 34.5 5t34.5 13l13 -14q12 -14 12 -53 q0 -53 -20.5 -108.5t-58.5 -102.5t-91 -77t-119 -30q-53 0 -82.5 30t-29.5 64q0 39 28 62q14 12 16.5 24.5t-6 17.5t-21.5 2t-30 -18q-51 -46 -51 -112z" />
<glyph unicode="4" horiz-adv-x="847" d="M68 291q4 -27 26.5 -28t48 9.5t45.5 22.5l21 12q41 -2 105.5 -11t127.5 -15l-19 -30q-19 -30 -46 -73t-57.5 -92t-51.5 -86h244q8 25 22.5 62.5t31 77.5t32.5 78t27 61h20q23 0 54.5 2t66.5 6t61 14q20 6 28.5 19.5t6.5 25.5t-11 18.5t-24 0.5q-33 -14 -75.5 -19.5 t-68.5 -4.5t-30 1q6 14 27.5 53t51.5 93.5t67 118t75.5 125t74.5 116.5t67 94q14 18 -12.5 28.5t-69.5 -16.5q-68 -43 -163 -112.5t-196.5 -149.5t-201 -163t-176.5 -150l-23 -1q-23 -1 -48.5 -9.5t-44.5 -26.5t-13 -51zM272 369q49 43 127 108.5t163 134t168 134t142 110.5 q-143 -164 -234 -288t-159 -226q-61 6 -113.5 15.5t-93.5 11.5z" />
<glyph unicode="5" horiz-adv-x="837" d="M68 186q0 -39 15 -73.5t47 -61t79 -43t110 -16.5q90 0 181.5 25.5t164 75.5t117.5 124t45 170q0 55 -20.5 94t-57 62.5t-86 34t-106.5 10.5q-78 0 -131 -23l113 189q25 -10 65.5 -18.5t86.5 -12.5t92 -5t81 5q37 6 65.5 27.5t51.5 50t38 60.5t28 59q10 16 0.5 23 t-33.5 -15q-18 -16 -70.5 -21.5t-117 -3.5t-130 9.5t-112.5 17.5q-2 -2 -21.5 -36t-54.5 -90t-70 -114.5t-67.5 -113t-48.5 -84.5q-14 -31 16 -17q35 18 85 33.5t118 15.5q53 0 74.5 -29.5t21.5 -72.5q0 -53 -24.5 -114.5t-65.5 -115t-96.5 -88t-116.5 -34.5q-53 0 -87 12 t-45 23l-14 14q29 4 51.5 25.5t22.5 64.5q0 39 -26.5 63.5t-61.5 24.5q-39 0 -72.5 -29t-33.5 -82z" />
<glyph unicode="6" horiz-adv-x="864" d="M115 283q0 -59 17.5 -113.5t52 -95.5t87 -65.5t119.5 -24.5q106 0 188.5 33.5t137.5 86t83.5 117t28.5 123.5q0 45 -18 85t-49 68.5t-74 46t-92 17.5q-72 0 -122 -18.5t-70.5 -33.5t-22.5 -17q25 53 62.5 120.5t87 126t106.5 98.5t123 40q41 0 62.5 -8.5t37.5 -20.5 q-2 0 -11 -4t-20.5 -17.5t-11.5 -40.5q0 -29 20.5 -43t47.5 -14q29 0 54.5 20.5t25.5 61.5q0 25 -9.5 48.5t-31 42t-58.5 30.5t-90 12q-139 0 -259 -65.5t-210 -165t-141 -215t-51 -215.5zM276 158q0 18 7.5 50t18.5 66.5t22.5 67.5t21.5 55q2 4 22.5 24.5t68.5 45.5t112 25 q47 0 67.5 -30t20.5 -75q0 -39 -15.5 -96.5t-46 -110.5t-77.5 -91t-111 -38q-49 0 -80 30t-31 77z" />
<glyph unicode="7" horiz-adv-x="696" d="M100 33q-2 -41 28 -67.5t65.5 -37t64.5 -4.5t27 31q-4 45 20.5 108.5t68.5 137t103.5 154.5t122 159t123.5 149.5t111.5 128t84 93.5t39.5 45q12 14 13 24q0 10 -7.5 15.5t-18.5 1.5t-23 -19q-10 -10 -23 -20l-12 -10q-43 -12 -86 -13q-37 0 -68 7.5t-57 17.5 q-43 18 -90 18q-39 0 -79 -11t-75 -26l6 11l13 20q10 23 -5.5 28t-27.5 -18l-25 -36q-16 -25 -33.5 -52.5t-34 -54.5t-24.5 -43q-10 -18 5.5 -26.5t27.5 14.5q4 8 11 20l7 13q16 6 32.5 10t35.5 4q35 0 62.5 -8.5t49.5 -18.5q25 -10 49.5 -17t51.5 -7q31 0 65.5 8t63.5 24 q-113 -102 -228.5 -194t-211 -182.5t-157 -182.5t-65.5 -194z" />
<glyph unicode="8" horiz-adv-x="772" d="M78 160q0 -72 58.5 -126t168.5 -54q76 0 147.5 20t127 59t88 92.5t32.5 120.5q0 39 -13 80t-28.5 74t-27.5 53l-13 21q123 55 193 126.5t70 164.5q0 59 -46.5 101t-134.5 42q-80 0 -146.5 -23.5t-115.5 -63.5t-76.5 -94.5t-27.5 -113.5q0 -49 19.5 -83t39.5 -75 q-68 -29 -125 -63.5t-99 -74.5t-66.5 -86t-24.5 -97zM188 186q0 43 21.5 80t55.5 69t76 56.5t85 42.5l13 -20q13 -20 29.5 -51t30 -67t13.5 -67q0 -72 -58.5 -111.5t-136.5 -39.5q-63 0 -96 31.5t-33 76.5zM506 721q0 66 54 101.5t136 35.5q51 0 74 -25.5t23 -60.5 t-16.5 -66.5t-45.5 -61.5t-65.5 -53.5t-79.5 -41.5q-29 41 -54.5 87t-25.5 85z" />
<glyph unicode="9" horiz-adv-x="880" d="M68 141q0 -27 11 -53.5t33.5 -48t55.5 -34.5t78 -13q76 0 158.5 28.5t164.5 80t156 119t130 146t89 162.5t33 166q0 109 -64.5 182.5t-191.5 73.5q-106 0 -193.5 -34.5t-150 -88t-96 -118t-33.5 -123.5q0 -92 55 -151.5t154 -59.5q72 0 124 18.5t74.5 33.5t24.5 17 q-31 -49 -75 -115.5t-96 -126t-112.5 -101.5t-126.5 -42q-43 0 -63.5 7.5t-34.5 19.5q18 8 35.5 26.5t17.5 55.5q0 35 -22.5 51.5t-50.5 16.5q-33 0 -58.5 -25t-25.5 -70zM434 535q0 39 18.5 98t53.5 114.5t87 95.5t120 40q47 0 73.5 -28t26.5 -75q0 -23 -11 -55.5 t-26.5 -67t-32 -66.5t-24.5 -52q-2 -4 -23.5 -24.5t-71 -45.5t-112.5 -25q-45 0 -61.5 27t-16.5 64z" />
<glyph unicode=":" horiz-adv-x="376" d="M113 70q0 -29 17 -53.5t54 -24.5q53 0 79 31.5t26 68.5q0 31 -18.5 56.5t-53.5 25.5q-49 0 -76.5 -31.5t-27.5 -72.5zM319 553q0 -29 17.5 -53.5t54.5 -24.5q53 0 79 32t26 68q0 31 -18.5 56.5t-53.5 25.5q-49 0 -77 -31.5t-28 -72.5z" />
<glyph unicode=";" horiz-adv-x="358" d="M-84 -256q2 -6 23 6q31 18 77.5 53t94 73t87.5 77t56 67q14 25 20.5 52.5t1 52.5t-20.5 40t-44 15q-37 0 -58.5 -17.5t-30.5 -44t-6 -59t15 -61.5q8 -23 -11.5 -54.5t-53 -65.5t-73.5 -66.5t-69 -53.5q-10 -8 -8 -14zM319 553q0 -29 17.5 -53.5t54.5 -24.5q53 0 79 32 t26 68q0 31 -18.5 56.5t-53.5 25.5q-49 0 -77 -31.5t-28 -72.5z" />
<glyph unicode="&#x3c;" horiz-adv-x="505" d="M137 406q0 -12 21.5 -45t52.5 -71t65.5 -77t63.5 -63q31 -29 42 -18t-15 48q-23 33 -45.5 70t-41 69.5t-29.5 57t-11 31.5q0 6 27.5 31.5t66.5 58t82 67.5t73 62q27 23 22 39t-34 -4q-16 -10 -70.5 -47t-115 -78t-107.5 -79t-47 -52z" />
<glyph unicode="=" horiz-adv-x="757" d="M118 262q1 -8 11 -13t27 -1q39 10 95 6t116 -21q29 -8 69.5 -7t80.5 7.5t75 14.5t51 16q12 6 16.5 16.5t1 18.5t-11.5 11t-20 -3q-31 -18 -87.5 -11t-127.5 17q-39 6 -80 6q-39 0 -75 -4t-65.5 -10t-48.5 -12q-16 -4 -22 -13.5t-5 -17.5zM144 465q1 -8 11.5 -13.5 t26.5 -0.5q41 10 97.5 6t115.5 -21q29 -8 69 -7t80 7t74.5 14.5t51.5 16.5q12 6 16 16.5t1 18.5t-11 11t-21 -3q-31 -18 -87 -12t-126 18q-41 6 -82 6q-39 0 -74.5 -4t-65.5 -10t-48 -12q-16 -4 -22.5 -13.5t-5.5 -17.5z" />
<glyph unicode="&#x3e;" horiz-adv-x="503" d="M86 144.5q4 -17.5 33 2.5q10 6 38.5 26t66.5 45.5t80 55t76 55t56.5 47t22.5 30.5q0 12 -21.5 42.5t-52.5 69.5t-65.5 78t-63.5 63q-31 29 -42 18t13.5 -46t47 -71t40 -66.5t27.5 -53t10 -28.5t-25.5 -35t-62.5 -66t-79 -72.5t-74 -58.5q-29 -18 -25 -35.5z" />
<glyph unicode="?" horiz-adv-x="919" d="M244 70q0 -29 17.5 -53.5t53.5 -24.5q53 0 79 31.5t26 68.5q0 31 -18.5 56.5t-53.5 25.5q-49 0 -76.5 -31.5t-27.5 -72.5zM418 406q0 -39 24.5 -61.5t59.5 -22.5q23 0 42 11t31 34q6 12 1 17t-17 -7q-10 -10 -21.5 -4t-11.5 24q0 35 34 63.5t82 53.5t101.5 47.5 t94.5 44.5q72 43 125 104.5t53 157.5q0 90 -67.5 152.5t-184.5 62.5q-61 0 -109.5 -19.5t-81 -50t-50 -67.5t-17.5 -72q0 -33 7 -57t15 -41q6 -14 16.5 -18t17.5 0t10 13t-3 24q-16 39 -16 79q0 25 10 50.5t31.5 47t55.5 35t81 13.5q61 0 97 -35t36 -82q0 -74 -47 -131 t-121 -104q-47 -29 -96 -55.5t-89 -57.5t-66.5 -66.5t-26.5 -82.5z" />
<glyph unicode="@" horiz-adv-x="1062" d="M143 430q0 -98 31 -171t85 -120t130 -70.5t168 -23.5q78 0 141.5 15.5t113.5 40t88 54t65 60.5q14 16 2.5 27.5t-25.5 -4.5q-27 -29 -62.5 -57.5t-83.5 -52.5t-107.5 -38t-131.5 -14q-84 0 -154.5 21.5t-121 65.5t-79 110.5t-28.5 156.5q0 109 45 198t120 153.5 t170 100.5t196 36q80 0 141 -24t104 -65t65.5 -94t22.5 -110q0 -70 -24.5 -130.5t-64.5 -104.5t-91 -69.5t-102 -25.5t-51 37q0 16 5 31.5t13 31.5l178 348h-94l-31 -57q-8 23 -36.5 46.5t-69.5 23.5q-61 0 -125 -25.5t-116 -72t-85 -109t-33 -135.5q0 -63 34 -110.5 t99 -47.5q35 0 66 17.5t54.5 39t37.5 38.5l14 18q-4 -10 -6 -19.5t-2 -21.5q0 -41 30 -58.5t83 -17.5q70 0 133.5 28.5t111.5 79t75.5 118t27.5 147.5q0 63 -24.5 122.5t-70.5 104.5t-114.5 71.5t-154.5 26.5q-106 0 -208 -38t-179.5 -105.5t-126 -163.5t-48.5 -213z M393 352q0 43 25.5 106.5t65.5 123t90.5 101.5t99.5 42q35 0 56.5 -23.5t27.5 -50.5l-96 -190q-53 -74 -110.5 -124t-102.5 -50q-31 0 -43.5 17t-12.5 48z" />
<glyph unicode="A" horiz-adv-x="1542" d="M94 215q0 -104 68.5 -162.5t167.5 -58.5q70 0 143.5 31.5t146 82t140 116t123.5 132.5q41 -37 90 -57t114 -20h9l-228 -279h306l219 322q80 31 147.5 81t104.5 115q4 8 4 14q0 10 -11 11q-6 0 -12 -8q-29 -39 -69.5 -65t-88.5 -38l168 248q31 45 62 100.5t55.5 111.5 t39.5 108.5t15 91.5q0 63 -36.5 116.5t-124.5 53.5q-129 0 -250 -84t-238 -224q-57 29 -137 29t-142.5 -27.5t-104.5 -71.5t-63.5 -102.5t-21.5 -119.5q0 -41 10.5 -80t32.5 -74q-20 -20 -56 -52t-77 -61.5t-84 -51t-76 -21.5q-51 0 -70.5 13t-19.5 36q0 10 2 16t6 12 q-27 10 -61 11q-31 0 -66.5 -11.5t-66.5 -36t-50.5 -61.5t-19.5 -86zM809 664q0 61 21.5 101t52 61.5t62.5 29.5t54 8q31 0 56 -12q-16 -20 -47 -55t-65 -72t-67.5 -73t-54.5 -60q-12 33 -12 72zM948 444q27 33 61.5 78t70.5 93.5t70 93.5t56 75q45 -37 71 -104.5t28 -144.5 l-134 -162q-10 -2 -18 -2h-18q-53 0 -105.5 19t-81.5 54zM1270 868q43 55 88 110.5t91 101.5t92 75t91 29q33 0 49.5 -20.5t16.5 -51.5q0 -37 -26.5 -88t-62.5 -104.5t-75 -101.5t-64 -79l-90 -112q-10 76 -37.5 142t-72.5 99z" />
<glyph unicode="B" horiz-adv-x="1486" d="M59 170q0 -47 21.5 -82t57.5 -58.5t80 -34.5t89 -11q78 0 171 33.5t189.5 104.5t190.5 179.5t174 257.5q100 190 200.5 327.5t192.5 231.5q72 -20 104 -68.5t32 -117.5q0 -72 -30 -114t-65.5 -62.5t-65.5 -25.5l-30 -5q-16 12 -45 21.5t-59 9.5q-41 0 -66.5 -17.5 t-25.5 -46.5q0 -31 35.5 -43t82.5 -12q18 0 29 2q14 -23 24.5 -44.5t10.5 -55.5q0 -72 -23.5 -119t-56.5 -75t-69 -40t-60 -12q-29 0 -39 15.5t-10 37.5q-41 -2 -85 -13t-80 -35t-59.5 -59.5t-23.5 -84.5q0 -70 38 -119t124 -49q84 0 172 36.5t160.5 102t118.5 153t46 189.5 q0 66 -17 113t-50 84q43 4 95 21t98 50t78 82t32 117q0 53 -22.5 97t-56.5 77t-75 54.5t-78 29.5q16 14 44 29.5t51 27.5q-14 0 -36 -2t-46.5 -6t-47 -9t-36.5 -11q-41 8 -91.5 17t-131.5 9q-154 0 -290 -33.5t-236.5 -92t-159 -134.5t-58.5 -160q0 -78 35 -113.5t100 -35.5 q51 0 98.5 19.5t82 51t56 70.5t21.5 78q-33 0 -58.5 10.5t-25.5 48.5q0 20 23.5 56.5t72 69t119 57t162.5 24.5q43 0 88 -4t74 -12q-51 -37 -109.5 -90t-118 -115.5t-115.5 -132.5t-106 -143q-135 -203 -253.5 -292t-192.5 -89q-35 0 -58.5 19.5t-23.5 39.5q0 12 12 29 q-31 6 -63 6q-43 0 -85 -11.5t-76 -36t-54.5 -64.5t-20.5 -97z" />
<glyph unicode="C" horiz-adv-x="1175" d="M217 987q0 -127 63.5 -190.5t163.5 -96.5q-41 -72 -75.5 -169t-34.5 -187q0 -80 15.5 -145.5t53 -113.5t102 -74.5t161.5 -26.5q100 0 180 34.5t135 86t84 110.5t29 109q0 119 -117 141q2 -6 2 -19q0 -31 -17.5 -64.5t-46 -61t-68.5 -46t-83 -18.5q-82 0 -127 48t-45 151 q0 53 12 103t29 89q8 0 18.5 -1t38.5 -1q106 0 235.5 39t241 104.5t187.5 151.5t76 182q0 72 -46.5 114t-136.5 42q-123 0 -236.5 -45t-211 -114.5t-174 -155.5t-127.5 -166q-61 23 -94 67.5t-33 106.5q0 39 13 69.5t33.5 54t45 39t47.5 25.5q-20 6 -39.5 10.5t-44.5 4.5 q-43 0 -81 -14.5t-66.5 -39t-45 -59.5t-16.5 -74zM666 735q45 94 108.5 179t140 147.5t161.5 99.5t171 37q41 0 66.5 -18.5t25.5 -57.5q0 -53 -30.5 -102t-81.5 -92t-118 -79t-136.5 -60.5t-137 -39t-122.5 -14.5h-47z" />
<glyph unicode="D" horiz-adv-x="1560" d="M139 178q0 -96 65.5 -146t168.5 -50q53 0 90 6t63.5 15t47 21.5t38.5 24.5q47 -29 109.5 -46t130.5 -17q88 0 186.5 32.5t193.5 91t182 141.5t153.5 182t105.5 212t39 234q0 55 -6 97t-18.5 75.5t-30 60.5t-39.5 53q27 23 58.5 44.5t78.5 35.5q10 4 10 15q0 12 -10 12 h-14q-39 -4 -79 -17.5t-87 -44.5q-70 59 -163 87t-226 28q-139 0 -270.5 -41t-233.5 -107.5t-164.5 -152.5t-62.5 -176q0 -104 56 -176t159 -72q70 0 120 23.5t81.5 60.5t47 80t15.5 80q-14 -14 -28.5 -20.5t-37.5 -6.5q-29 0 -54.5 27.5t-25.5 81.5q0 51 40 104t106.5 96 t150.5 70t172 27q82 0 139.5 -19.5t92.5 -50.5q-35 -23 -89 -70t-113.5 -105t-116 -121.5t-95.5 -119.5q-49 -70 -85 -127t-66.5 -104t-58 -87t-58.5 -77q-59 29 -136 59.5t-173 30.5q-74 0 -138.5 -19.5t-113.5 -54t-78 -81t-29 -99.5zM276 135q0 72 84 72q20 0 43 -10.5 t44.5 -25.5t43 -32.5t37.5 -29.5q-31 -20 -62.5 -30.5t-72.5 -10.5q-37 0 -77 18t-40 49zM905 295q53 47 127 130t164 218l80 120q43 65 89 129t94 122.5t93 103.5q27 -31 46.5 -78t19.5 -120q0 -123 -62.5 -241t-154.5 -211t-197.5 -149.5t-193.5 -56.5q-41 0 -64 11.5 t-41 21.5z" />
<glyph unicode="E" horiz-adv-x="1107" d="M193 317q0 -72 29.5 -132t83.5 -103t131 -67.5t169 -24.5q113 0 210 26.5t169 70.5t113 102.5t41 121.5q0 115 -133 115q-53 0 -94.5 -33t-59.5 -61.5t-21 -32.5q18 -6 32 -19.5t14 -48.5q0 -53 -42 -80.5t-141 -27.5q-57 0 -101 18.5t-75 50t-46 73.5t-15 91q0 53 12 92 t29 72q29 -4 71.5 -8t98.5 -4q133 0 256 54t218 137t151.5 181.5t56.5 188.5q0 88 -51.5 145.5t-182.5 57.5q-96 0 -178 -25.5t-142.5 -68.5t-94 -98.5t-33.5 -112.5q0 -49 9 -76t15 -43q-37 -6 -81 -26.5t-89 -48.5t-85 -57.5t-66 -56.5q-29 16 -48.5 50t-19.5 71 q0 57 31 83t78 26q18 0 44.5 -8.5t35.5 -14.5q14 16 28.5 41t14.5 51q0 43 -34 76t-85 33q-43 0 -83 -18.5t-71 -52t-50 -81t-19 -102.5q0 -72 27.5 -130t82.5 -89q-47 -47 -78.5 -116t-31.5 -161zM535 580q12 18 37.5 45.5t56 56.5t63.5 54.5t62 39.5l26 -17q27 -17 84 -18 q47 0 85 18.5t38 57.5q0 35 -48 47.5t-105 12.5q0 57 28.5 112t72.5 99.5t99.5 71t110.5 26.5q53 0 88 -36t35 -97q0 -72 -51.5 -156t-134.5 -156.5t-186 -122t-208 -49.5q-47 0 -87.5 3.5t-65.5 7.5z" />
<glyph unicode="F" horiz-adv-x="1359" d="M70 160q0 -80 51 -130t162 -50q121 0 228 54t201.5 143t175.5 202t146 229h125q-16 -25 -36.5 -57.5t-42 -67t-41 -68.5t-29.5 -59l192 15q12 68 44 143.5t65 130.5q18 4 44.5 18.5t49 35t39 42t16.5 39.5q0 39 -20.5 57.5t-50.5 18.5q-29 0 -56.5 -20.5t-52.5 -48 t-44 -56.5t-30 -45h-127q20 51 55 106.5t76 106.5t85 95t87 73l7 6q0 4 -7 2q-61 -16 -126.5 -56t-128 -93.5t-120 -114.5t-100.5 -121q-102 0 -188 -10t-147.5 -29.5t-96.5 -47.5t-35 -64q0 -35 14.5 -49.5t22.5 -14.5q18 0 19 21q0 39 34.5 61.5t87 33.5t115 14t117.5 3 q-47 -61 -106.5 -121.5t-121 -106.5t-117.5 -75t-99 -29q-33 0 -46.5 19.5t-13.5 42.5q0 16 8 37q-55 0 -106 -11.5t-91 -38t-63.5 -67.5t-23.5 -98zM524 930q0 -90 49.5 -135t133.5 -45q57 0 99 17t68.5 46t39 68t12.5 80q0 51 -19 100q-14 -35 -41.5 -59.5t-62.5 -24.5 q-25 0 -42.5 17.5t-17.5 52.5q0 23 17.5 47t52.5 43.5t87 33t122 13.5q59 0 118.5 -14.5t131.5 -30.5q68 -16 148.5 -30.5t178.5 -14.5q82 0 142.5 17t103.5 47t72 69t47 84q-59 -35 -132 -59.5t-185 -24.5q-57 0 -138.5 5t-165 12t-157.5 12.5t-117 5.5q-139 0 -241.5 -31 t-170 -79t-100.5 -106.5t-33 -115.5z" />
<glyph unicode="G" horiz-adv-x="1298" d="M199 211q0 -113 87 -174.5t228 -61.5q147 0 267 49.5t208 117t143.5 135t77.5 104.5q41 66 77 129t83 119q6 6 6 10q0 10 -16.5 17.5t-32.5 7.5q-14 0 -16 -7q-20 -29 -57 -60.5t-81.5 -58t-91.5 -43t-90 -16.5q-55 0 -89 14.5t-52.5 35t-24.5 44t-8 43.5 q135 12 271.5 66.5t245 131.5t176 166t67.5 167q0 76 -50 123t-145 47q-170 0 -306 -58.5t-234.5 -147.5t-153.5 -196.5t-61 -203.5q-76 12 -134.5 54t-58.5 112q0 39 19.5 72.5t46.5 47.5l-21 5q-20 5 -49 6q-72 0 -111.5 -48.5t-39.5 -117.5q0 -57 29.5 -99.5t78.5 -70 t110.5 -43t127.5 -19.5q6 -113 81.5 -172t194.5 -59q70 0 131.5 20.5t91 39t33.5 20.5q-92 -117 -211 -170t-295 -53q-98 0 -135 34.5t-37 77.5q0 27 10 53q-43 0 -93 -7t-94 -27.5t-73.5 -57.5t-29.5 -98zM821 705q12 92 61.5 187t125 173t172 127t202.5 49q55 0 84 -26.5 t29 -67.5q0 -53 -50 -123t-139 -136.5t-213.5 -117.5t-271.5 -65z" />
<glyph unicode="H" horiz-adv-x="1681" d="M47 147q0 -72 51.5 -117.5t167.5 -45.5q117 0 229.5 46t216 132t195.5 209t168 276h176q-27 -41 -65.5 -96t-73.5 -119.5t-60.5 -133.5t-25.5 -132q0 -182 170 -182q59 0 109.5 19.5t87.5 51t57 70.5t20 80q0 29 -2 50t-8 40q-14 -16 -23.5 -21.5t-29.5 -5.5 q-41 0 -53.5 25.5t-12.5 66.5q0 63 38 142.5t89 159.5q115 20 240 63t229.5 104.5t172 141.5t67.5 172q0 55 -37 91t-106 36q-61 0 -151.5 -38t-189 -105.5t-195.5 -163t-173 -211.5q-37 -2 -92 -4.5t-98 -2.5q2 4 18 30t49 75t74 102q53 70 116.5 142.5t110.5 126.5 q10 10 12.5 15t2.5 13q0 10 -29 21.5t-64 11.5q-41 0 -59 -20q-20 -25 -58 -40.5t-83 -15.5q-23 0 -44.5 7.5t-35.5 25.5q-14 16 -41 23.5t-60 7.5q-70 0 -131 -25.5t-106 -70t-71.5 -100.5t-26.5 -118q0 -35 26 -34q10 0 17.5 8t9.5 24q2 27 15.5 56.5t33.5 53t46 39 t54 15.5q18 0 27.5 -11t17.5 -30q16 -43 82 -43q35 0 85.5 12.5t95.5 34.5q-29 -27 -65 -63.5t-76 -80.5t-81 -94t-77 -106q-96 0 -176 -11t-138.5 -35.5t-94.5 -63.5t-42 -97v-6q0 -14 8 -20t19 -6q18 0 24 22q12 35 43 58.5t76 39t99.5 22.5t113.5 9 q-63 -96 -126.5 -166.5t-124 -117t-113 -70t-91.5 -23.5q-33 0 -48 19.5t-15 42.5q0 12 2 18t4 10q-53 0 -106.5 -9t-94.5 -33.5t-66.5 -67t-25.5 -105.5zM1536 774q55 72 118.5 140.5t125 123t117 87t94.5 32.5q33 0 43 -12t10 -45q0 -51 -45 -101.5t-118 -94.5t-163 -78 t-182 -52z" />
<glyph unicode="I" horiz-adv-x="1054" d="M63 158q0 -86 62.5 -141.5t167.5 -55.5q106 0 199.5 36t175.5 97.5t152.5 144.5t133.5 179q55 0 114.5 25.5t108 63.5t80 84t31.5 87q0 25 -20 24q-16 0 -25 -20q-14 -35 -40.5 -65.5t-58.5 -53t-67 -36t-63 -13.5q45 88 109.5 196.5t142 215t166 200t180.5 150.5 q6 2 6 6t-6 4q-225 0 -432 -40t-366 -115.5t-254 -184t-95 -246.5q0 -66 23.5 -113.5t60.5 -81.5t79 -54.5t79 -28.5q-53 -61 -126 -105.5t-149 -44.5q-39 0 -54.5 15.5t-15.5 38.5q0 16 11 41q-137 0 -223.5 -53.5t-86.5 -155.5zM676 707q0 66 50 145.5t143.5 153 t223.5 129t289 73.5q-147 -84 -289.5 -262t-301.5 -418q-53 16 -84 54.5t-31 124.5z" />
<glyph unicode="J" horiz-adv-x="964" d="M-498 -362q0 -90 62.5 -139.5t156.5 -49.5q119 0 233 47t217 124t196.5 176.5t172 204.5t143.5 208.5t112 187.5q86 4 156.5 40t121.5 82t80 92t29 71t-19 25q-12 0 -24 -21q-16 -35 -49 -65.5t-72 -56t-79 -43t-71 -25.5q55 98 127 209.5t151 219t159.5 203t152.5 160.5 q6 6 6 8t-8 2q-221 0 -420.5 -43t-350 -119.5t-240 -184t-89.5 -236.5q0 -70 18.5 -122t47.5 -89t66.5 -61.5t74.5 -39.5q-16 -29 -59 -87t-102.5 -128.5t-131 -145.5t-143.5 -136.5t-140.5 -100t-119.5 -38.5q-47 0 -66.5 14t-19.5 31q0 20 18 30q-23 10 -42 12.5t-50 2.5 q-33 0 -68.5 -15.5t-66.5 -44t-50.5 -69.5t-19.5 -90zM557 696q0 98 67.5 190.5t171 164t225.5 119t232 53.5q-61 -47 -141 -129t-161 -178.5t-158.5 -198t-135.5 -187.5q-100 33 -100 166z" />
<glyph unicode="K" horiz-adv-x="1519" d="M57 143q0 -72 55.5 -115.5t127.5 -43.5q80 0 158.5 15t155.5 53t151.5 101.5t146.5 157.5q51 70 107.5 152t111.5 168t109.5 172t103.5 160q47 72 100.5 138t108.5 130q10 10 10 16q0 10 -14 17.5t-33 7.5q-14 0 -29 -6q-70 -29 -113.5 -42.5t-88.5 -13.5 q-25 0 -42.5 3.5t-31.5 17.5q-25 25 -51.5 34t-61.5 9q-70 0 -131 -37t-107 -86t-73 -101.5t-27 -82.5q0 -16 9.5 -24.5t19.5 -8.5t19.5 6t13.5 21q6 20 21.5 47.5t37 53t46 43t48.5 17.5q16 0 21.5 -15t15.5 -34q8 -16 30 -27.5t50 -11.5q35 0 62.5 11.5t44.5 19.5 q10 4 18 4q14 0 14 -10q0 -4 -3 -7t-7 -10q-68 -68 -135.5 -150.5t-135 -167.5t-132 -167t-125 -144.5t-116.5 -101.5t-103 -39q-31 0 -50.5 16.5t-19.5 41.5q0 18 8 32q-63 0 -117.5 -15t-93.5 -44t-61.5 -70t-22.5 -90zM1010 152q0 -72 36.5 -119t116.5 -47q45 0 86 16 t72 42t48 55.5t17 56.5q0 23 -1 36t-7 23l-11 -6q-11 -6 -34 -6q-18 0 -28.5 16.5t-10.5 44.5q0 29 17.5 68t38.5 84q16 39 25 65.5t9 71.5q0 51 -22 80q20 8 57 33.5t82 63.5t93 86t92 104q45 57 104 97t127 65.5t137.5 36.5t134.5 11q109 0 185 -28q-10 86 -74 135 t-180 49q-92 0 -179.5 -22.5t-163 -64.5t-137 -99.5t-102.5 -124.5q-25 -41 -53.5 -84t-58 -81t-56.5 -69.5t-45 -48.5q-12 18 -34.5 44t-63.5 26t-69 -23.5t-28 -62.5q0 -51 41 -62.5t105 -11.5q-18 -23 -62.5 -66.5t-89.5 -104t-79.5 -132t-34.5 -147.5z" />
<glyph unicode="L" horiz-adv-x="1210" d="M-2 98q0 -45 19.5 -73.5t50 -44t66.5 -21.5t67 -6q86 0 153.5 16.5t139.5 57.5q74 -33 140 -52.5t159 -19.5q98 0 167.5 25.5t116.5 67.5t77 93.5t48 104.5q-29 -18 -66.5 -32.5t-78.5 -24t-83 -14.5t-79 -5q-59 0 -128 12.5t-114 24.5q20 16 45 44t50.5 62.5t49 73.5 t42.5 80q96 16 191 53t181 88t160 114.5t128 133.5t85 143.5t31 147.5q0 70 -47 108.5t-139 38.5q-127 0 -241 -65.5t-212 -172t-178 -243.5t-142 -278q-76 4 -125 54t-49 128q0 59 44 113.5t137 64.5q-6 37 -28 71.5t-81 34.5q-49 0 -96 -22.5t-82 -59t-56.5 -85 t-21.5 -99.5q0 -66 27.5 -116t72.5 -84.5t104.5 -54t121.5 -21.5q-23 -47 -56.5 -110.5t-64.5 -110.5q-147 53 -264 53q-106 0 -174 -46.5t-68 -146.5zM70 88q0 16 14 30.5t61 14.5q33 0 73 -10t74 -22.5t56 -22.5l23 -10q-37 -29 -83 -41.5t-89 -12.5q-55 0 -92 19.5 t-37 54.5zM872 541q29 63 67 139t84 152.5t96 147.5t102.5 126t105.5 88t103 33q49 0 82.5 -20.5t33.5 -67.5q0 -92 -59.5 -188.5t-155.5 -180.5t-217 -145t-242 -84z" />
<glyph unicode="M" horiz-adv-x="1622" d="M25 0h313l289 383q41 -10 92 -10q23 0 36 10t13 20q0 16 -31 19q-18 2 -37.5 5t-35.5 9l360 484q16 23 42 47t56.5 45.5t62.5 36t60 14.5q29 0 46.5 -21.5t17.5 -42.5q0 -29 -9.5 -59.5t-31.5 -58.5l-41 -52q-41 -51 -106.5 -132t-147.5 -181t-162 -198.5t-151.5 -183.5 t-114.5 -134h325l537 791q18 27 49 60.5t68 63t73.5 50t67.5 20.5q68 0 68 -57q0 -41 -67 -124t-159 -198q-57 -70 -114.5 -136.5t-103.5 -126.5t-74.5 -115.5t-28.5 -104.5q0 -139 137 -139q39 0 87 26.5t89 66.5t68.5 87t27.5 86l-8 -3q-8 -3 -18 -3q-33 0 -33 45 q0 43 41 98t121 158q84 106 145.5 200.5t61.5 196.5q0 27 -12.5 53.5t-34 47t-49 32.5t-60.5 12q-150 0 -229 -86q0 74 -47.5 130.5t-141.5 56.5q-37 0 -75.5 -11.5t-74.5 -29t-68 -41t-56 -47.5q0 47 -7.5 90t-26.5 77t-57 53t-100 19q-104 0 -200.5 -51t-170 -134 t-118.5 -188.5t-45 -211.5q0 -74 24.5 -132.5t61.5 -101.5zM414 717q0 84 35.5 167t92 148.5t127 106.5t140.5 41q41 0 65.5 -17.5t24.5 -44.5q0 -59 -51 -123l-373 -456q-27 31 -44 78t-17 100z" />
<glyph unicode="N" horiz-adv-x="1230" d="M61 0h308l313 438q23 -6 47.5 -7t50.5 -1q29 0 41.5 10.5t12.5 22.5q0 23 -31 22q-20 0 -42 3.5t-36 7.5l266 356q20 27 55 64.5t74 72.5t77 58.5t67 23.5q35 0 50 -23.5t15 -46.5q0 -35 -22.5 -77.5t-57.5 -90t-77 -97.5t-82 -99q-47 -57 -108.5 -127t-116 -138.5 t-92.5 -132t-38 -108.5q0 -70 37 -110.5t109 -40.5q45 0 99 26.5t101 69.5t80 96t33 107q-25 -18 -47 -19q-47 0 -47 51q0 29 19.5 60.5t51 68.5t71.5 81t81 97q86 111 137 213.5t51 194.5q0 61 -40.5 104.5t-122.5 43.5q-92 0 -160 -33t-115 -80q12 31 12 69q0 31 -11 61 t-33.5 53.5t-58.5 38.5t-87 15q-98 0 -183 -45t-148.5 -118.5t-99.5 -165.5t-36 -187q0 -72 17.5 -135t60.5 -108zM500 774q0 76 28.5 147.5t77.5 126t112.5 87t133.5 32.5q37 0 57.5 -17t20.5 -42q0 -23 -17.5 -53.5t-38.5 -57.5l-321 -397q-29 35 -41 82t-12 92z" />
<glyph unicode="O" horiz-adv-x="1085" d="M190 322q0 -168 80 -252t224 -84q100 0 194 42t177 111.5t151.5 158.5t118 183t76 186.5t26.5 168.5q0 111 -55.5 182.5t-151.5 71.5q-55 0 -93 -17.5t-59.5 -43t-30.5 -54.5t-9 -53q0 -39 11 -65t29.5 -41t42 -21.5t46.5 -8.5v9q0 10 2 29.5t10 39t25.5 33.5t46.5 14 q45 0 64.5 -26.5t19.5 -96.5q0 -84 -48.5 -175t-121 -167.5t-159.5 -127t-165 -50.5q-47 0 -78 17.5t-48 47t-24.5 66.5t-7.5 76q0 76 26 162t70 170t104 160.5t131 134t147.5 92.5t154.5 35q53 0 94 -15.5t64 -46.5q10 -16 29 -16q23 0 22 25q0 25 -17.5 48t-47 41.5 t-67.5 30t-81 11.5q-106 0 -216 -44t-212 -119t-192.5 -173.5t-157 -208t-105.5 -223t-39 -217.5z" />
<glyph unicode="P" horiz-adv-x="1353" d="M51 162q0 -72 52.5 -125t144.5 -53q129 0 231.5 41t185.5 110.5t151.5 161.5t129.5 195q31 -4 69 -15.5t89 -11.5q90 0 174 29.5t148.5 87t103.5 141.5t39 190q0 92 -36 147.5t-67 78.5q33 29 82 58.5t80 43.5q12 6 12 16q0 20 -20 21q-10 0 -21 -4q-10 -2 -31.5 -11.5 t-49 -22.5t-57 -28.5t-52.5 -29.5q-47 29 -132 55.5t-190 26.5q-150 0 -258 -38t-178.5 -95.5t-104.5 -126t-34 -130.5q0 -74 43 -113.5t102 -39.5q39 0 78 12t67.5 33.5t47 49.5t18.5 56q0 39 -6 52q-12 -12 -39 -13q-29 0 -49 17.5t-20 40.5q0 49 24.5 91t68.5 72.5 t104.5 48t133.5 17.5q29 0 64 -5t67.5 -15.5t61.5 -23.5t47 -28q-68 -51 -133.5 -106t-130 -120.5t-130 -144.5t-130.5 -175q-43 -10 -97.5 -32t-89.5 -56q-12 -12 -12 -15q0 -2 4 -2t10 2q35 16 66 21.5t59 7.5q-4 -4 -34.5 -41t-77.5 -79t-104.5 -76t-114.5 -34 q-29 0 -46.5 19.5t-17.5 46.5q0 18 10 39q-61 0 -116.5 -10.5t-97.5 -36t-66.5 -67.5t-24.5 -105zM1006 594q27 53 73.5 119.5t102 133t110 127t97.5 103.5q55 -53 55 -149q0 -70 -27.5 -131.5t-73 -108.5t-103.5 -74.5t-120 -27.5q-31 0 -61 3t-53 5z" />
<glyph unicode="Q" horiz-adv-x="1312" d="M41 127q0 -72 63.5 -107.5t163.5 -35.5q74 0 153 21.5t138 43.5q47 -25 111.5 -46t142.5 -21q100 0 174 26.5t128 66.5t90 87t59 88q-35 -16 -81 -29.5t-106 -13.5q-66 0 -135 20q76 45 177.5 113t190.5 157t151.5 200.5t62.5 248.5q0 168 -108.5 255t-287.5 87 q-125 0 -226 -47t-172 -118.5t-108.5 -155.5t-37.5 -160q0 -51 16 -89t44 -63.5t63.5 -38t74.5 -12.5q49 0 90 19.5t71 48t45.5 64.5t15.5 71q0 27 -1.5 41t-5.5 26q-20 -23 -42.5 -40t-67.5 -17q-41 0 -65.5 28.5t-24.5 72.5q0 41 19.5 89t59 90t100 69.5t142.5 27.5 q100 0 146.5 -51t46.5 -176q0 -109 -54.5 -214.5t-133.5 -198.5t-167 -168t-157 -118q-47 18 -89 34.5t-88.5 31t-99.5 23t-121 8.5q-72 0 -136 -18.5t-114.5 -50.5t-80 -75t-29.5 -94zM156 115q0 37 37.5 52t89.5 15q55 0 107 -30.5t93 -61.5q-39 -14 -90 -28.5t-104 -14.5 q-59 0 -96 19.5t-37 48.5z" />
<glyph unicode="R" horiz-adv-x="1517" d="M72 164q0 -80 51 -130t162 -50q129 0 237.5 44t203.5 126t179 197.5t168 258.5q39 66 86 137.5t99.5 139t105.5 128t102 105.5q57 -29 89 -66.5t32 -117.5q0 -51 -17.5 -89t-45 -64.5t-62.5 -44t-71 -29.5q-41 39 -76 53t-62 14q-41 0 -64.5 -22.5t-23.5 -53.5 q0 -20 14.5 -36.5t37 -26.5t51 -16.5t57.5 -6.5q0 -23 -14.5 -49t-35 -54t-44 -54.5t-43.5 -48.5q-23 -27 -51.5 -63t-53 -76t-42 -83t-17.5 -82q0 -72 36 -96t114 -24q47 0 97 29.5t91 71.5t67.5 89t26.5 84q-20 -8 -43 -8q-18 0 -28.5 17.5t-10.5 39.5q0 39 14.5 63.5 t30.5 59.5q10 20 14.5 43t4.5 49q0 27 -1 51.5t-3 53.5q51 14 112.5 38.5t113.5 64.5t87 94.5t35 127.5q0 66 -20.5 110t-51.5 72.5t-67.5 45t-69.5 28.5q20 16 51 28.5t51 18.5q14 6 15 19q0 16 -23 16q-18 0 -40.5 -6t-45 -14t-42 -17.5t-32.5 -15.5q-41 14 -115.5 24.5 t-179.5 10.5q-139 0 -268 -34t-228.5 -91t-159.5 -136t-60 -167q0 -72 37.5 -114t103.5 -42q43 0 87 16.5t79 47t56.5 73.5t21.5 97q-12 -6 -29 -7q-47 0 -47 58q0 29 28.5 63.5t78 65.5t117 51.5t145.5 20.5q61 0 107 -2.5t81 -12.5q-119 -86 -223.5 -190.5t-208.5 -239.5 q-68 -88 -129.5 -168t-120.5 -141.5t-121.5 -98t-132.5 -36.5q-35 0 -57.5 28.5t-22.5 59.5q0 14 6 26q-133 0 -206.5 -62t-73.5 -173z" />
<glyph unicode="S" horiz-adv-x="1298" d="M-25 23q0 -10 9.5 -19.5t27.5 -9.5q10 0 18.5 1t16.5 3q27 6 60.5 16.5t67.5 21.5t65.5 23.5t54.5 22.5q61 -51 155.5 -82t247.5 -31q152 0 253.5 53.5t163 144.5t88 213t26.5 261q70 57 134 121.5t113.5 133.5t79 137.5t29.5 133.5q0 59 -34.5 94t-100.5 35t-130.5 -50 t-116.5 -139t-85 -215t-33 -276q-123 -102 -270 -190t-293 -160q-20 23 -28.5 49.5t-8.5 51.5q0 41 21.5 70.5t56.5 29.5q25 0 43.5 -13.5t30.5 -27.5q41 16 74.5 59t33.5 111q0 29 -13 58.5t-39.5 53t-64.5 38t-87 14.5q-78 0 -145.5 -31t-117 -83t-78 -121.5t-28.5 -149.5 q0 -84 18.5 -136.5t51.5 -99.5q-43 -20 -107.5 -41.5t-114.5 -31.5q-45 -10 -45 -43zM592 215q61 31 128.5 67.5t133.5 78.5t125 84t106 83q-8 -68 -35.5 -129t-75.5 -108t-112.5 -75t-146.5 -28q-43 0 -71.5 7.5t-51.5 19.5zM1225 727q4 92 24.5 179t51 153.5t68.5 106.5 t77 40q55 0 55 -55q0 -104 -79.5 -207.5t-196.5 -216.5z" />
<glyph unicode="T" horiz-adv-x="1368" d="M90 152q0 -80 55.5 -124t165.5 -44q125 0 231.5 51t193.5 134t158 187.5t124 208.5q37 72 80 142.5t91 133t100 114t108 85.5q14 10 14 19q0 10 -14 10q-6 0 -19 -4q-59 -16 -124.5 -61.5t-132 -106.5t-130 -131t-117.5 -137q-57 -72 -120.5 -137.5t-124 -115.5 t-113.5 -81t-90 -31q-35 0 -47 23.5t-12 50.5q0 20 6 37q-53 0 -104.5 -13.5t-91.5 -40t-63.5 -69.5t-23.5 -100zM524 930q0 -90 49.5 -135t133.5 -45q57 0 99 17t68.5 46t39 68t12.5 80q0 51 -19 100q-14 -35 -41.5 -59.5t-62.5 -24.5q-25 0 -42.5 16.5t-17.5 38.5 q0 63 70 107.5t209 44.5q57 0 117.5 -14.5t129 -31t149.5 -30.5t181 -14q82 0 142.5 17t103.5 47t72 69t47 84q-53 -29 -129 -50.5t-188 -21.5q-57 0 -138.5 5t-165 10.5t-157.5 10.5t-117 5q-139 0 -241.5 -32t-170 -81t-100.5 -109.5t-33 -117.5z" />
<glyph unicode="U" horiz-adv-x="1251" d="M233 195q0 -92 42 -148.5t135 -56.5q55 0 113.5 23.5t112.5 57t98 72.5t71 68q-4 -18 -7 -36.5t-3 -47.5q0 -61 27.5 -100t99.5 -39q45 0 98 27.5t100 71.5t79 97.5t32 102.5q-33 0 -56.5 13t-23.5 42q0 31 16.5 62.5t49.5 78.5l526 764h-170l-645 -809 q-53 -66 -124 -115t-138 -49q-55 0 -78 30t-23 71q0 47 42 115.5t100.5 142.5t121 142.5t101.5 117.5q29 37 61.5 82t63 89t54.5 84t36 64q2 4 2 11q0 18 -22.5 31.5t-45.5 13.5q-14 0 -22 -6q-86 -61 -168 -62q-29 0 -45.5 8.5t-32.5 22.5q-39 33 -96 33q-74 0 -137.5 -29 t-111.5 -74t-74.5 -100t-26.5 -111q0 -43 28 -43q20 0 25 41q2 25 15 55.5t36 57t52.5 45t62.5 18.5q14 0 20 -10t12 -31q8 -23 25.5 -35t52.5 -12q25 0 58.5 7.5t65.5 18.5t59.5 24.5t44.5 25.5q6 4 12 4q4 0 4 -4t-2 -8q-41 -66 -109.5 -136.5t-146.5 -146.5t-158 -154.5 t-143.5 -158.5t-104.5 -158.5t-41 -154.5z" />
<glyph unicode="V" horiz-adv-x="1017" d="M139 221q0 -117 64.5 -180.5t191.5 -63.5q129 0 233.5 60.5t189.5 156t153.5 211t126.5 224.5q45 88 99 171t118.5 148.5t141.5 105.5t169 40q72 0 137.5 -20.5t91.5 -43.5q0 51 -6 95t-26.5 77t-57 51.5t-98.5 18.5q-104 0 -199.5 -56.5t-178.5 -144.5t-153.5 -194.5 t-121.5 -206.5q-47 -90 -98.5 -169t-107.5 -137.5t-118.5 -93t-132.5 -34.5q-53 0 -79.5 22.5t-26.5 85.5q0 57 37.5 127t96 142.5t130 145t137.5 134.5q39 37 80 81t75.5 86t59.5 79t31 57q2 6 2 12q0 16 -14.5 27.5t-30.5 11.5q-6 0 -12.5 -1t-16.5 -7q-49 -33 -77.5 -45 t-63.5 -12q-23 0 -42.5 11t-43.5 28q-14 10 -30.5 19t-45.5 9q-57 0 -117.5 -26.5t-111 -70.5t-83 -99.5t-32.5 -112.5q0 -47 27 -47q10 0 19 11t9 28q0 29 12.5 57.5t32 52t44 38t50.5 14.5q20 0 30.5 -12.5t27.5 -28.5q14 -14 34.5 -22.5t55.5 -8.5q70 0 123 27q8 4 14 4 q10 0 10 -6q0 -4 -2 -7q-31 -41 -68.5 -75.5t-84.5 -71.5t-103.5 -79t-122.5 -97q-66 -53 -128 -111.5t-111 -121t-79 -129t-30 -134.5z" />
<glyph unicode="W" horiz-adv-x="1511" d="M139 201q0 -102 66.5 -163t183.5 -61q45 0 92 11.5t92 29t83 40t65 44.5q25 -47 72 -82.5t135 -35.5q76 0 154.5 48t154.5 128t145.5 184.5t128.5 216.5q147 283 293 411t289 128q84 0 142.5 -17.5t88.5 -44.5l14 25q13 25 13 65q0 25 -15.5 48.5t-42 44t-63.5 33 t-80 12.5q-104 0 -195 -40t-174 -122t-165 -206t-168 -292q-29 -55 -74 -119.5t-97 -121t-105.5 -94.5t-98.5 -38q-39 0 -62.5 1.5t-41.5 21.5q80 53 151.5 126t123.5 149.5t83 150.5t31 129q0 61 -23.5 96t-83.5 35q-49 0 -110.5 -29.5t-125 -80t-124 -118t-107.5 -142 t-75.5 -153.5t-28.5 -151v-28q0 -12 4 -27q-12 -10 -36.5 -19.5t-53.5 -9.5q-57 0 -91 40t-34 112q0 47 12.5 87t40 83t70.5 93t104 118q43 47 108.5 113.5t132.5 137t122 137t76 116.5q4 8 4 16q0 10 -12.5 16.5t-28.5 6.5q-27 0 -47 -15q-53 -37 -84 -50t-66 -13 q-23 0 -35 6t-30 20q-23 16 -61 23.5t-66 7.5q-72 0 -131.5 -35t-102.5 -84t-67.5 -101t-24.5 -85q0 -16 9 -24.5t20 -8.5q27 0 33 28.5t20 57.5t32.5 52.5t40 38t44.5 14.5q27 0 39 -11.5t28 -31.5q25 -29 90 -29q35 0 72 13.5t61 23.5q8 4 15 4q8 0 8 -6q0 -2 -4 -11 q-23 -37 -64 -72.5t-93 -73.5t-112.5 -79t-117.5 -86q-176 -139 -270.5 -271t-94.5 -261zM913 326q0 100 38 196t90.5 171t105.5 121t86 46q23 0 34 -16.5t11 -36.5q0 -45 -33 -110.5t-85 -135t-116.5 -133t-130.5 -102.5z" />
<glyph unicode="X" horiz-adv-x="1492" d="M92 162q0 -98 62.5 -142.5t169.5 -44.5q86 0 168.5 25t159.5 65.5t142.5 96t118.5 117.5q-4 -16 -4 -31v-31q0 -43 10.5 -86t35 -75.5t63.5 -53t96 -20.5q74 0 139.5 26.5t117.5 66.5t90 86t59 85q6 12 6 20q0 12 -13 13q-6 0 -12 -7q-31 -37 -91 -53t-122 -16 q-74 0 -114.5 52t-40.5 114q0 37 4 67.5t13 58t22.5 55.5t31.5 60q82 143 174 243.5t181.5 164t170 93.5t140.5 30q59 0 107 -17.5t71 -58.5q16 20 25.5 48t9.5 52q0 35 -33 63.5t-96 28.5q-158 0 -333 -93t-339 -277q10 29 15.5 56.5t5.5 60.5q0 115 -76 192.5t-221 77.5 q-111 0 -191 -32t-133 -82t-78.5 -111.5t-25.5 -120.5q0 -90 59 -145.5t156 -55.5q51 0 90 17.5t65.5 46t39.5 67.5t13 80q0 23 -4 38l-8 30q-16 -16 -40.5 -34t-61.5 -18q-43 0 -71 23.5t-28 64.5q0 27 12.5 53.5t36 47t58.5 34t78 13.5q29 0 57.5 -9.5t52 -30t39 -53 t15.5 -79.5q0 -123 -88 -301q-53 -111 -128 -194t-155 -138t-159 -83t-142 -28q-37 0 -52.5 21.5t-15.5 56.5q-29 10 -50 13.5t-54 3.5q-31 0 -67 -15.5t-65.5 -43t-49 -65.5t-19.5 -83z" />
<glyph unicode="Y" horiz-adv-x="1134" d="M66 195q0 -96 75.5 -159t216.5 -63q119 0 218.5 26t181.5 72t148.5 108.5t121.5 135.5l709 932h-189l-340 -395q-41 -49 -77.5 -81t-73.5 -50.5t-74 -26.5t-80 -8q-47 0 -74.5 29.5t-27.5 72.5q0 61 54 119t138 123q49 41 93 91t85 106q8 10 9 20q0 14 -27 26.5t-49 12.5 q-14 0 -23 -6q-27 -23 -60.5 -39t-55.5 -16q-23 0 -37.5 10t-32.5 22q-23 16 -55.5 28.5t-67.5 12.5q-57 0 -101 -27.5t-73 -65.5t-44 -74.5t-15 -55.5q0 -18 16 -18q14 0 23 20q16 33 38.5 54.5t53.5 21.5q23 0 34 -13.5t27.5 -29.5t38 -27.5t53.5 -11.5q31 0 49 8l19 8 q-57 -53 -119.5 -99t-114 -93t-85 -97t-33.5 -114q0 -70 48 -117t140 -47q80 0 165 29t150 72q-45 -70 -110.5 -139.5t-143 -126t-162.5 -91.5t-165 -35q-51 0 -71.5 18.5t-20.5 47.5q0 12 10 27.5t18.5 24.5t10.5 11q-20 20 -52 40t-77 20q-47 0 -87 -17.5t-68 -48 t-43 -71.5t-15 -86z" />
<glyph unicode="Z" horiz-adv-x="1142" d="M-8 -4q0 -8 8 -8q4 0 14 6q39 25 100.5 36t121.5 11q37 0 66.5 -5t55 -13.5t51 -17.5t54.5 -17q45 -14 114.5 -23.5t127.5 -9.5q88 0 161.5 27.5t132 70.5t100.5 93.5t70 95.5q6 8 7 20q0 16 -13 17q-8 0 -16 -13q-10 -14 -30.5 -31.5t-49.5 -33t-61.5 -25.5t-65.5 -10 q-29 0 -57.5 9t-56 22.5t-52 27t-45.5 23.5q-27 12 -75 29.5t-113 17.5q-51 0 -103.5 -8t-81 -14.5t-32.5 -8.5q45 49 137 99.5t196.5 99.5t205 95t165.5 83q96 55 196.5 125t191.5 143.5t167 150.5t123 148q12 14 12 27q0 8 -10 8q-18 0 -51 -16q-137 -59 -240 -60 q-41 0 -67.5 6.5t-48 15.5t-40 21.5t-40.5 24.5q-53 29 -100.5 42t-106.5 13q-74 0 -138.5 -18.5t-113.5 -51t-78 -78.5t-29 -102q0 -70 41 -112.5t111 -42.5q35 0 51 12t16 29q0 12 -11 21t-34 9q-45 0 -68.5 22.5t-23.5 61.5q0 35 28 65t81 30q70 0 172 -60q55 -33 97 -48 t106 -15q86 0 179 36.5t191 94.5q-49 -41 -124.5 -91.5t-165 -102.5t-185.5 -104t-182 -95q-119 -59 -251 -136t-258 -170.5t-237.5 -202t-189.5 -229.5q-6 -10 -6 -16z" />
<glyph unicode="[" horiz-adv-x="573" d="M-174 -143h301l20 30h-167l845 1465h144l20 34h-276z" />
<glyph unicode="\" horiz-adv-x="567" d="M174 1151q0 -4 2 -14q23 -170 55.5 -331t69.5 -325t75 -340t70 -379q6 -31 29 -30q20 0 21 28v9q0 4 -2 14q-29 190 -65 365.5t-73 342t-70.5 330.5t-54.5 332q-6 35 -32 35q-10 0 -17.5 -8.5t-7.5 -22.5v-6z" />
<glyph unicode="]" horiz-adv-x="872" d="M-76 -147h277l884 1529h-305l-18 -30h170l-844 -1465h-143z" />
<glyph unicode="^" horiz-adv-x="544" d="M276 600q0 -8 9 -8q10 0 24 14q10 10 34 37t53.5 61.5t60 71.5t57.5 67.5t45.5 51t20.5 20.5t9 -46t14 -103t12.5 -107.5t7.5 -58.5q2 -23 14 -22q14 0 14 26q0 88 -1 173t-3 151.5t-4 106.5t-4 40q-6 0 -30.5 -29.5t-61.5 -75.5t-78 -100.5t-79 -104.5t-65.5 -89 t-38 -51.5t-10.5 -24.5z" />
<glyph unicode="_" horiz-adv-x="563" d="M0 -37v-41h586v41h-586z" />
<glyph unicode="`" horiz-adv-x="360" d="M80 848q0 -23 22 -45q12 -12 33 -26.5t43.5 -30t46 -30t39.5 -24.5q8 -6 15 -6q10 0 10 10q0 6 -6 19q-10 16 -24.5 39.5t-30 47t-29 43t-21.5 27.5q-25 27 -51 27q-23 0 -35 -16.5t-12 -34.5z" />
<glyph unicode="a" horiz-adv-x="800" d="M-23 229q0 -20 21 -20q6 0 16 6q12 10 22.5 23.5t18.5 23.5q-8 -20 -15 -53t-7 -68q0 -29 6 -55.5t20.5 -48t39 -34.5t61.5 -13q39 0 73.5 13t64.5 33.5t53.5 45t39.5 45.5q-6 -18 -6 -37q0 -47 30.5 -76.5t92.5 -29.5q51 0 99 27.5t88 66.5t73 80t55 67q8 8 8 21 q0 23 -18 22q-10 0 -18 -10q-20 -25 -49 -53.5t-58 -54t-55.5 -42t-42.5 -16.5q-29 0 -29 31q0 35 42 93t89 124q37 53 65.5 100t33.5 76v12q0 35 -19.5 54.5t-48.5 19.5q-20 0 -42 -11t-38 -40l-20 -31l-13 -18q0 23 -30.5 48t-94.5 25q-104 0 -186 -41.5t-154 -119.5 q-4 -4 -20 -21.5t-40 -40t-49.5 -49.5t-45.5 -49q-13 -13 -13 -25zM225 190q0 37 27 95.5t66.5 112t85 92t83.5 38.5q53 0 70.5 -29.5t17.5 -54.5l-120 -182q-33 -49 -82 -94t-105 -45q-43 -1 -43 67z" />
<glyph unicode="b" horiz-adv-x="679" d="M-18 236q0 -23 20 -23q10 0 18 8q35 37 68 72t57.5 60.5t39.5 40.5l16 16q-16 -25 -37 -54.5t-39.5 -63.5t-30.5 -70t-12 -70q0 -68 38 -117t109 -49q45 0 88 17t79 42t64.5 53.5t47.5 53.5l11 -4q11 -3 30 -3q31 0 74 16.5t86 69.5q8 10 8 21q0 20 -23 20q-12 0 -18 -10 q-35 -45 -68 -57t-51 -12q-8 0 -12 1l-4 1q76 80 111.5 153.5t35.5 122.5q0 82 -70 82q-39 0 -71.5 -26.5t-56 -66.5t-37 -86t-13.5 -87q0 -66 29 -105q-2 -4 -19.5 -22.5t-54.5 -40t-84 -21.5q-29 0 -43 19.5t-14 48.5q0 47 31 100l211 338q133 164 184 262.5t51 141.5 q0 45 -19.5 62t-45.5 17q-18 0 -40 -11t-40 -34q-27 -33 -62 -86t-71.5 -115.5t-72.5 -127t-65 -117.5q-16 -18 -52 -56t-82 -85t-96 -99.5t-93 -97.5q-10 -14 -10 -22z" />
<glyph unicode="c" horiz-adv-x="604" d="M-20 231q0 -20 20 -20q10 0 16 6q4 4 11.5 12.5t15.5 18.5q-2 -8 -3 -18.5t-1 -28.5q0 -86 52 -149.5t157 -63.5q63 0 120.5 22.5t104.5 57t87 77.5t71 84q10 14 10 23q0 8 -5 15t-15 7q-8 0 -19 -10q-72 -86 -135.5 -118.5t-142.5 -32.5q-49 0 -74 26.5t-25 73.5 q0 39 24.5 94t63.5 106.5t84 87.5t88 36q16 0 24.5 -5.5t12.5 -11.5q-4 2 -14 2q-23 0 -38 -17.5t-15 -41.5q0 -25 15 -43.5t44 -18.5q39 0 60.5 26t21.5 62q0 35 -35 59.5t-98 24.5q-41 0 -90 -10t-98.5 -33.5t-95.5 -62.5t-81 -94q-12 -20 -48 -56t-62 -67q-8 -9 -8 -19z " />
<glyph unicode="d" horiz-adv-x="784" d="M-23 229q0 -23 21 -22q8 0 14 6q12 12 19.5 20.5t17.5 18.5q-4 -18 -8 -38.5t-4 -47.5q0 -74 36 -125t113 -51q43 0 82 22.5t69 49t47 49.5l17 22q-6 -18 -6 -45q0 -35 21.5 -69.5t87.5 -34.5q45 0 93 30.5t89 71.5t74 82t51 61q12 12 12 23q0 10 -7 16t-15 6 q-10 0 -21 -12q-16 -20 -42.5 -49t-55.5 -54.5t-55.5 -44t-44.5 -18.5q-25 0 -25 31t31 84l174 278q31 43 79 109t94 136.5t83 136t47 104.5q2 10 3 19.5t1 19.5q0 27 -15.5 50t-43.5 23q-35 0 -76 -40q-31 -31 -73 -88.5t-88 -131t-94 -159.5t-93 -172q-4 27 -35 52t-86 25 q-104 0 -191.5 -45t-160.5 -145l-15 -15q-14 -15 -33.5 -35t-40 -42.5t-34.5 -36.5q-13 -13 -13 -25zM227 199q0 55 39 127q55 102 109.5 150t97.5 48q20 0 35.5 -9t26 -22.5t14.5 -26.5t4 -22q-2 -4 -20.5 -34.5t-49 -83t-57.5 -95.5q-2 -4 -16.5 -20t-35 -34.5t-46 -33 t-49.5 -14.5q-23 0 -37.5 17.5t-14.5 52.5z" />
<glyph unicode="e" horiz-adv-x="604" d="M-23 229q0 -10 6.5 -16t12.5 -6q10 0 16 6q10 10 18.5 20.5t18.5 20.5l-2 -11q-2 -11 -2 -26q0 -45 12.5 -87t38 -73.5t65.5 -51t95 -19.5q63 0 118.5 22.5t101.5 58t84 79.5t71 85q8 10 8 23q0 20 -16 20q-8 0 -17 -8q-66 -72 -134.5 -116t-162.5 -44q-41 0 -60.5 26 t-19.5 61t15 63q86 4 153.5 27.5t113.5 56.5t70.5 73t24.5 79q0 41 -31.5 64.5t-82.5 23.5q-70 0 -130.5 -18.5t-109.5 -48.5t-88 -68.5t-66 -77.5l-19 -20q-17 -17 -45 -46t-48 -51q-9 -9 -9 -21zM266 303q18 33 46 73t58.5 74.5t63.5 57t64 22.5q23 0 37 -12t14 -31 q0 -27 -20.5 -57.5t-57.5 -56t-89.5 -45t-115.5 -25.5z" />
<glyph unicode="f" horiz-adv-x="563" d="M-322 -514q0 -33 19.5 -50.5t42.5 -17.5q33 0 63 29q41 37 90.5 110.5t93.5 152.5t77.5 143.5t44.5 80.5l57 99q16 -33 46 -41t69 -8q43 0 89 29.5t88 69.5t77.5 82t58.5 68q8 8 8 21q0 10 -6 15t-12 5q-12 0 -19 -8q-23 -25 -52.5 -55.5t-60 -57t-59 -45t-49.5 -18.5 q-16 0 -22.5 15.5t-14.5 33.5q-6 16 -15 28.5t-26 12.5q-6 0 -10 -2l221 387q229 96 344 214t115 216q0 41 -28.5 69t-88.5 28q-78 0 -167 -75t-181 -210q-37 -55 -79 -123t-79 -127q-31 -25 -73.5 -60.5t-86.5 -76.5t-86 -83t-73 -77q-10 -10 -10 -20q0 -23 20 -23 q10 0 19 8q27 29 58 61l62 62q31 31 60.5 57.5t52.5 43.5l-244 -398q-72 -98 -133 -187t-105 -163t-70 -129t-26 -86zM514 639q33 57 75 119.5t84 114t81 85t67 33.5q29 0 29 -35q0 -43 -28.5 -86t-75 -82.5t-108 -77.5t-124.5 -71z" />
<glyph unicode="g" horiz-adv-x="765" d="M-262 -467q0 -25 6 -47.5t23.5 -40.5t48 -28.5t78.5 -10.5q98 0 180 50t137 143q33 53 69.5 114.5t68.5 114.5t52 88l21 35q72 31 128 64.5t100 70.5t80 75t67 75q10 12 10 24q0 18 -21 19q-8 0 -16 -9q-66 -78 -138.5 -141t-172.5 -117q45 68 100 141.5t103.5 142.5 t80 125t31.5 91q0 51 -21.5 66.5t-41.5 15.5q-16 0 -37 -9.5t-37 -31.5q-12 -16 -23 -32l-10 -15q-4 27 -34.5 48t-84.5 21q-111 0 -194.5 -45t-140.5 -110l-20 -20q-19 -19 -45 -46.5t-53.5 -56.5t-43.5 -45q-10 -10 -11 -25q0 -20 21 -20q8 0 16 8q10 10 17.5 19.5 t17.5 19.5q-20 -51 -20 -107q0 -66 26.5 -111.5t91.5 -45.5q76 0 120 31.5t85 68.5l-86 -135q-96 -33 -190 -78t-170 -98t-122 -115.5t-46 -130.5zM-106 -379q0 29 33.5 68t84.5 77.5t112.5 75.5t115.5 62q-45 -63 -84 -121.5t-76 -103t-72 -70t-69 -25.5q-45 0 -45 37z M225 193q0 45 27 103t66.5 109.5t86 86t87.5 34.5q45 0 58 -25.5t15 -54.5q-16 -29 -52 -87t-77 -117q-80 -117 -166 -117q-25 0 -35 18.5t-10 49.5z" />
<glyph unicode="h" horiz-adv-x="849" d="M-45 0h174l246 391q23 20 52.5 42t60 40.5t61.5 30.5t57 12q23 0 23 -27q0 -14 -13.5 -36.5t-33 -52t-44 -62.5t-46.5 -68q-33 -47 -49.5 -95t-16.5 -85q0 -49 27.5 -78.5t87.5 -29.5q49 0 100 29.5t96 69.5t81 82t59 68q8 10 8 23q0 18 -19 18q-8 0 -16 -8 q-23 -27 -52.5 -57.5t-58 -56t-55.5 -43t-43 -17.5q-25 0 -25 29q0 45 95 178q35 47 50 96t15 88q0 51 -27.5 83t-76.5 32q-66 0 -124.5 -28.5t-101.5 -59.5l56 84q82 94 131 164.5t75.5 121t34 82t7.5 48.5q0 47 -21.5 65.5t-40.5 18.5q-23 0 -47.5 -13.5t-42.5 -31.5 q-31 -31 -66.5 -80t-69.5 -106.5t-64.5 -117t-53.5 -110.5q-25 -29 -68 -75t-93 -99l-100 -107q-50 -53 -91 -96q-14 -18 -15 -27q0 -20 19 -20q10 0 20 10q72 76 119 121t70 68z" />
<glyph unicode="i" horiz-adv-x="460" d="M-18 233q0 -20 18 -20q10 0 25 14q18 20 43.5 46t42 41.5t18.5 17.5q-43 -53 -64.5 -103.5t-21.5 -89.5q0 -63 34 -107t95 -44q53 0 101.5 29.5t90.5 69.5t75.5 83t56.5 68q10 14 10 22q0 20 -23 21q-10 0 -16 -9q-25 -29 -53.5 -59.5t-59 -58t-59.5 -45t-49 -17.5 q-31 0 -31 41q0 23 13.5 51.5t33.5 59.5l217 325h-194q-27 -29 -104 -111.5t-185 -197.5q-14 -15 -14 -27zM373 778q0 -45 28.5 -75.5t79.5 -30.5q63 0 98 36.5t35 88.5q0 39 -27.5 70.5t-78.5 31.5q-61 0 -98 -37t-37 -84z" />
<glyph unicode="j" horiz-adv-x="460" d="M-635 -457q0 -51 28.5 -82.5t106.5 -31.5q49 0 102.5 17t106.5 50t101.5 81t89.5 108q18 27 45.5 69.5t55.5 84.5t47 72l20 30q141 57 240.5 125.5t185.5 169.5q12 14 12 26q0 16 -19 17q-14 0 -26 -15q-82 -100 -170 -156.5t-180 -99.5l368 561h-194q-16 -18 -54 -59 t-82.5 -88t-87.5 -92t-69 -72q-12 -12 -12 -25q0 -20 20 -20q8 0 23 10q18 16 41.5 42t39 42.5t17.5 18.5l-244 -389q-100 -37 -192.5 -79t-163 -90.5t-113.5 -103.5t-43 -121zM-498 -350q0 31 30 60.5t79 58t109.5 56.5t121.5 56q-2 -4 -16 -25l-35 -53q-20 -31 -31 -47 q-55 -82 -112.5 -116.5t-104.5 -34.5q-41 0 -41 45zM373 778q0 -45 28.5 -75.5t77.5 -30.5q66 0 100.5 39t34.5 86q0 39 -27.5 70.5t-76.5 31.5q-66 0 -101.5 -37t-35.5 -84z" />
<glyph unicode="k" horiz-adv-x="849" d="M-39 0h172l281 446q39 35 89 55.5t97 20.5q41 0 41 -43q0 -23 -18.5 -53.5t-59.5 -46.5q-10 6 -26.5 13t-44.5 7q-29 0 -44.5 -12t-15.5 -29q0 -18 17.5 -29.5t39.5 -11.5q12 0 19.5 2.5t15.5 4.5q0 -16 -11 -34t-21 -32q-23 -29 -45.5 -68.5t-22.5 -91.5 q0 -53 31.5 -84.5t103.5 -31.5q45 0 92 29.5t89 69.5t77 81t55 61q10 10 11 25q0 23 -19 22q-8 0 -18 -10q-18 -20 -46 -49t-56.5 -54.5t-55 -44t-45.5 -18.5q-31 0 -31 29q0 23 17 45q20 33 28.5 57.5t8.5 44.5q0 29 -11.5 46.5t-27.5 29.5q72 29 105.5 73t33.5 91 q0 41 -27.5 71.5t-79.5 30.5q-70 0 -114.5 -25.5t-79.5 -51.5l37 57q25 31 64.5 84t76.5 113.5t63.5 118t26.5 98.5q0 43 -17.5 61t-45.5 18q-37 0 -70 -32q-31 -31 -66.5 -82t-70.5 -113.5t-70 -129t-61 -126.5q-18 -20 -60.5 -61t-93.5 -92.5t-102 -103.5t-88 -95 q-12 -16 -13 -29q0 -18 17 -18q4 0 10 2t16 12q23 27 49.5 54.5t53 52t50.5 46t42 33.5z" />
<glyph unicode="l" horiz-adv-x="460" d="M-16 233q0 -20 18 -20q10 0 21 10q20 25 50.5 55.5t57.5 56t46 44.5l20 18q-18 -25 -40 -57.5t-40.5 -69.5t-30.5 -75.5t-12 -77.5q0 -61 29.5 -95t84.5 -34q43 0 87 27.5t85 66.5t75 81t54 68q8 10 9 23q0 20 -21 20q-10 0 -16 -8q-23 -29 -48.5 -56.5t-50 -50 t-48 -36.5t-44.5 -14q-29 0 -28 32q0 14 8 39t33 64l219 348q18 20 60 69.5t84 108.5t74 123.5t32 120.5q0 37 -19.5 57.5t-42.5 20.5q-33 0 -67 -27q-37 -27 -78 -82t-83 -122.5t-80 -138.5t-69 -128q-37 -39 -77.5 -82t-83.5 -88t-83 -87t-73 -77q-12 -17 -12 -27z" />
<glyph unicode="m" horiz-adv-x="1259" d="M-20 227q0 -20 18 -20q12 0 20 10q14 14 56.5 60.5t92.5 95.5t99 87t78 38q16 0 16 -25q0 -12 -16 -46t-43 -79t-59.5 -97t-63.5 -100.5t-56.5 -88t-39.5 -62.5h172l199 309q25 29 56.5 61.5t64 60.5t62.5 46.5t50 18.5q23 0 23 -21q0 -12 -16.5 -45t-42 -77t-57.5 -95 t-62.5 -99t-58.5 -90t-44 -69h174l197 324q18 25 46.5 54.5t61.5 55t62.5 44t52.5 18.5q18 0 18 -17q0 -25 -29.5 -77t-68.5 -107q-47 -66 -66.5 -111t-19.5 -82q0 -55 37 -84.5t90 -29.5q43 0 90 29.5t90 70.5t79 83t54 67q8 10 9 22q0 20 -21 21q-10 0 -20 -13 q-18 -18 -45 -49t-56.5 -58.5t-58.5 -48t-51 -20.5q-27 0 -27 29q0 51 84 153q41 49 59.5 98.5t18.5 88.5q0 51 -27.5 81.5t-83.5 30.5q-59 0 -117.5 -42t-107.5 -89q6 12 6 33q0 35 -26.5 67.5t-86.5 32.5q-29 0 -60.5 -13t-63 -34.5t-60.5 -47t-53 -50.5q6 12 6 33 q0 18 -7 37.5t-21.5 36t-37 27.5t-51.5 11q-33 0 -72.5 -21.5t-82.5 -53t-84 -70.5t-76 -75t-59.5 -63.5t-32.5 -37.5q-10 -11 -10 -27z" />
<glyph unicode="n" horiz-adv-x="944" d="M-20 229q0 -23 20 -22q8 0 18 10q14 14 56.5 60.5t92.5 95.5t99 87t78 38q18 0 18 -27q0 -12 -16 -44t-41.5 -76t-57.5 -95t-62.5 -99t-58.5 -89t-44 -68h172l199 309q23 27 56.5 59.5t69 61.5t68.5 47.5t55 18.5q18 0 19 -29q0 -27 -44 -91.5t-97 -146.5 q-43 -68 -43 -123q0 -57 35.5 -87.5t95.5 -30.5q43 0 90 29.5t89 70.5t76.5 83t53.5 67q8 10 8 22q0 20 -20 21q-10 0 -17 -9q-18 -20 -47 -51t-58.5 -59.5t-59 -49t-50.5 -20.5q-27 0 -26 31q0 29 20.5 63.5t63.5 87.5q41 49 59 98.5t18 88.5q0 53 -27.5 82.5t-82.5 29.5 q-39 0 -83 -22.5t-81 -49t-62 -48.5l-24 -23q6 12 6 33q0 18 -7 37.5t-21.5 36t-37 27.5t-51.5 11q-33 0 -72.5 -21.5t-82.5 -53t-84 -70.5t-76 -75t-59.5 -63.5t-32.5 -37.5q-10 -15 -10 -25z" />
<glyph unicode="o" d="M-20 229q0 -18 18 -18q10 0 16 6q8 8 19.5 20.5t17.5 22.5q-2 -10 -4 -26.5t-2 -32.5q0 -104 49 -159.5t129 -55.5q47 0 87 16t69 37.5t48 41t26 28.5q66 12 117 49t89 86q10 12 11 22q0 20 -21 21q-12 0 -20 -11q-29 -31 -53.5 -53t-65.5 -37q14 16 29.5 46t29 66 t22.5 75t9 76q0 53 -26.5 92t-94.5 39q-113 0 -215 -56.5t-170 -154.5q-23 -25 -51.5 -56.5t-52.5 -58.5q-10 -11 -10 -25zM233 186q0 51 26 109.5t62.5 109t80.5 83t81 32.5q35 0 48.5 -19.5t13.5 -51.5q0 -29 -7.5 -63t-18.5 -65.5t-24.5 -59.5t-25.5 -46q-6 8 -16.5 14.5 t-24.5 6.5q-18 0 -29.5 -18.5t-11.5 -37.5q0 -27 12 -41q-18 -16 -40.5 -27.5t-61.5 -11.5q-29 0 -46.5 23.5t-17.5 62.5z" />
<glyph unicode="p" horiz-adv-x="788" d="M-313 -510q0 -35 17 -57.5t44 -22.5q41 0 84 49t84 116t77 137.5t60 113.5l318 508q16 27 41.5 56.5t55.5 54t60.5 40t57.5 15.5q35 0 35 -43q0 -18 -11.5 -46t-32 -57.5t-48 -59.5t-60.5 -54q-35 -27 -55.5 -64t-20.5 -76q0 -47 28 -81.5t87 -34.5q45 0 89 28.5t86 68.5 t77 82t61 70q10 14 10 23q0 20 -20 20q-10 0 -16 -6q-23 -23 -50.5 -53.5t-57.5 -58t-57.5 -46t-45.5 -18.5q-27 0 -27 27q0 29 39 51q92 55 131 129t39 133t-33 98t-90 39t-97 -25.5t-77 -56.5l70 107q55 70 91 119t36 104q0 47 -21.5 63.5t-42.5 16.5q-37 0 -72.5 -41 t-99.5 -145q-55 -63 -115.5 -126t-119 -121t-111.5 -112.5t-94 -99.5q-8 -12 -8 -18q0 -23 20 -23q10 0 21 10q43 47 93 98l92 92q42 42 70 68l27 27q-6 -10 -27.5 -45t-54.5 -87t-73.5 -116.5t-83.5 -135.5t-88.5 -141.5t-83.5 -134.5q-2 -2 -18.5 -23.5t-39 -55 t-49.5 -72.5t-49.5 -79t-36.5 -74t-14 -54z" />
<glyph unicode="q" horiz-adv-x="829" d="M-25 225q0 -20 19 -20q10 0 18 8q10 10 17.5 19.5t17.5 19.5q-6 -16 -11 -44t-5 -61q0 -29 6 -56.5t23.5 -50t46 -36.5t73.5 -14q35 0 71 16.5t64.5 36.5t46.5 37l19 16q-10 -12 -27.5 -38.5t-39 -60.5t-46 -73t-47.5 -76q-14 -18 -48 -65t-68.5 -101.5t-61.5 -105.5 t-27 -80q0 -45 22.5 -65.5t53.5 -20.5q25 0 52.5 24.5t52 60.5t44 77t29.5 74q12 20 53.5 63t97.5 96.5t121.5 114t127 118.5t111.5 108.5t77 84.5q10 12 10 27q0 18 -18 18q-12 0 -21 -10q-31 -43 -90 -101.5t-124.5 -119.5t-127 -116.5t-96.5 -90.5l29 46 q29 46 64.5 105.5t70.5 115t47 75.5q33 51 70 104.5t68.5 100.5t52 86t20.5 66q0 39 -16.5 64.5t-44.5 25.5q-20 0 -45 -17.5t-52 -58.5q-10 -14 -17 -26.5t-15 -24.5q0 2 -10.5 19.5t-41 36.5t-84.5 19q-98 0 -167.5 -35.5t-131.5 -84.5l-22 -23q-23 -23 -54.5 -53.5 t-65.5 -65t-56 -59.5q-15 -15 -15 -29zM219 178q0 45 25.5 104.5t65.5 113t86 91t87 37.5q27 0 46.5 -10t31.5 -23.5t18.5 -27.5t6.5 -21l-15 -24q-14 -25 -33.5 -58.5t-41 -68.5t-33.5 -55q-10 -16 -33.5 -36t-53.5 -37.5t-59.5 -29.5t-52.5 -12q-25 0 -35 16t-10 41z" />
<glyph unicode="r" horiz-adv-x="528" d="M-20 231q0 -20 20 -20q10 0 23 12q20 23 50.5 57.5t65.5 74.5l70 80q35 40 65 71q16 -16 35 -29.5t39 -25.5q10 -6 10 -15q0 -6 -12 -18q-27 -27 -66.5 -65t-76.5 -81t-63.5 -88t-26.5 -84q0 -47 28.5 -81.5t83.5 -34.5q45 0 96.5 30.5t97.5 72.5t84 83t56 63q8 8 8 19 q0 20 -20 20q-10 0 -19 -8q-14 -14 -39.5 -42.5t-56.5 -57.5t-61.5 -50.5t-51.5 -21.5q-20 0 -20 21q0 10 36 47t75 82q31 35 51 72.5t20 72.5q0 23 -12 41t-31 29q-41 20 -75.5 39.5t-53.5 42.5q16 18 17 43q0 20 -12.5 32.5t-28.5 12.5q-20 0 -34.5 -16.5t-14.5 -37.5 q0 -23 12 -34l-32 -36q-32 -36 -75 -83l-86 -94q-43 -47 -65 -72q-10 -15 -10 -23z" />
<glyph unicode="s" horiz-adv-x="507" d="M-18 231q0 -18 18 -18q10 0 23 12q39 41 83 86t81.5 83t64.5 63.5t33 31.5q4 -16 7 -43.5t3 -60.5q0 -63 -11.5 -118.5t-32 -97.5t-46 -66.5t-53.5 -24.5q-23 0 -27 16q6 4 11 11.5t5 19.5q0 14 -12 27.5t-35 13.5q-29 0 -50 -21.5t-21 -56.5q0 -53 39.5 -79.5 t130.5 -26.5q57 0 106 25.5t92 64.5t80 83t68 81q8 10 8 22q0 18 -21 18q-10 0 -16 -8q-51 -66 -90 -96q8 23 12 46.5t4 51.5q0 43 -10 81t-26.5 71t-36 58.5t-37.5 45.5q25 12 47 32t22 48q0 18 -14 33.5t-35 15.5q-39 0 -52 -30.5t-13 -75.5l-39 -39q-33 -33 -77 -76 t-91 -91t-82 -87q-10 -11 -10 -25z" />
<glyph unicode="t" horiz-adv-x="464" d="M-23 225q0 -18 17 -18q12 0 22 10q37 39 73 77t65.5 68.5t47.5 49.5l17 18q-25 -37 -52.5 -78t-52 -82t-41 -84t-16.5 -82q0 -57 28 -88.5t89 -31.5q49 0 94 25.5t86 63.5t75 81t63 75q6 8 6 19q0 23 -19 22q-10 0 -20 -12q-23 -25 -49.5 -53.5t-54 -53t-53.5 -41 t-48 -16.5q-16 0 -21.5 9.5t-5.5 21.5q0 41 52 121l249 389h127q27 0 39.5 9t12.5 22q0 10 -8.5 17t-24.5 7h-109q29 31 57.5 81t28.5 99q0 39 -15 62.5t-40 23.5q-45 0 -94 -69q-27 -37 -56.5 -84t-54 -88t-41.5 -70l-16 -29q-29 -33 -71 -77.5t-90 -94t-95 -98.5t-86 -92 q-15 -15 -15 -29z" />
<glyph unicode="u" horiz-adv-x="813" d="M-16 236q0 -20 20 -21q10 0 19 8q12 14 32 35l41 41l35 35l14 14q-29 -39 -60.5 -94t-31.5 -127q0 -66 33 -104.5t98 -38.5q35 0 70 16t65.5 39.5t56 51.5t42.5 50l-5 -19q-5 -19 -5 -46q0 -39 29.5 -65.5t90.5 -26.5q43 0 87 26.5t87 66.5t81 84t67 79q10 10 10 22 q0 23 -20 23q-10 0 -19 -11q-25 -31 -55.5 -62.5t-60 -57t-56 -43t-45.5 -17.5q-29 0 -29 33q0 31 41 98l218 344h-177l-143 -225q-29 -47 -63.5 -91t-68.5 -80t-65.5 -57.5t-56.5 -21.5q-23 0 -36 11.5t-13 37.5q0 41 37 99l213 327h-187q-16 -16 -89.5 -104t-192.5 -209 q-8 -8 -8 -20z" />
<glyph unicode="v" horiz-adv-x="813" d="M-20 229q0 -20 18 -20q12 0 20 10q23 25 58 61.5t72.5 72.5t72.5 60.5t58 24.5q16 0 16 -12q0 -16 -28.5 -43t-59.5 -72q-66 -94 -66 -196q0 -72 47.5 -99.5t106.5 -27.5q47 0 96 19.5t93 47t78 58t52 55.5q29 -23 68 -23q41 0 86 26t74 60q10 12 10 25q0 20 -18 20 q-12 0 -21 -12q-29 -35 -65.5 -54.5t-59.5 -19.5q-29 0 -41 13q27 27 55.5 64.5t53 77.5t41 81t16.5 76q0 70 -74 69q-45 0 -81.5 -25.5t-62.5 -65.5t-39 -87t-13 -88q0 -80 43 -119l-17 -15q-16 -15 -42.5 -33.5t-63.5 -34t-76 -15.5q-33 0 -49 16.5t-16 40.5q0 16 8 37 t32 54q18 27 42 58.5t44.5 65t35 68.5t14.5 70q0 76 -101 75q-45 0 -101 -34.5t-113.5 -85t-108.5 -105.5t-86 -96q-8 -11 -8 -23zM594 305q0 29 8 60.5t25.5 57.5t41 43t54.5 17q29 0 29 -28q0 -25 -13.5 -54.5t-34 -61.5t-44 -61.5t-42.5 -52.5q-24 27 -24 80z" />
<glyph unicode="w" horiz-adv-x="1071" d="M-14 240q0 -20 20 -21q10 0 21 10q27 31 61.5 65t55 53.5t22.5 21.5q-8 -10 -25.5 -34t-36 -55.5t-33 -69.5t-14.5 -79q0 -66 30 -104.5t95 -38.5q33 0 69 18.5t68.5 45t61.5 58t49 60.5l-5 -20q-5 -20 -5 -50q0 -53 30.5 -84.5t102.5 -31.5q37 0 78 17t82 44t76.5 59.5 t64.5 63.5q37 -25 76 -25q96 0 178 99q6 8 6 16q0 20 -20 21q-4 0 -9.5 -1.5t-11.5 -9.5q-29 -35 -63.5 -57.5t-67.5 -22.5q-35 0 -57 15q31 31 61.5 69.5t53 78.5t37 76t14.5 60q0 47 -18.5 65.5t-53.5 18.5q-41 0 -77 -25.5t-62.5 -65.5t-42 -87t-15.5 -90 q0 -37 11.5 -65.5t27.5 -47.5q-12 -12 -29.5 -28.5t-42 -31.5t-53 -26.5t-61.5 -11.5q-27 0 -38 14.5t-11 32.5t6 36t26 50l213 344h-176l-159 -256q-12 -18 -40 -55t-62 -71.5t-70.5 -61.5t-63.5 -27q-23 0 -34 14.5t-11 34.5q0 14 7 34t40 69l207 319h-182 q-25 -29 -62 -67.5t-76.5 -80.5t-80.5 -85t-74 -78q-8 -8 -8 -18zM831 303q0 29 10.5 60.5t28 58.5t40 44t48.5 17q27 0 27 -30q0 -18 -10 -46t-28.5 -60t-43 -64.5t-51.5 -59.5q-10 14 -15.5 35.5t-5.5 44.5z" />
<glyph unicode="x" horiz-adv-x="796" d="M-16 238q0 -20 20 -21q4 0 9 1t14 9q43 43 86 90.5t83 87t76.5 66.5t69.5 27q37 0 54.5 -19.5t17.5 -50.5q0 -53 -30 -107.5t-70 -99.5t-80.5 -72.5t-61.5 -27.5q-20 0 -27 8q14 8 15 27q0 16 -13.5 26.5t-33.5 10.5q-39 0 -66 -29t-27 -68q0 -47 29 -76.5t86 -29.5 q74 0 124 27.5t101 72.5q8 -41 41 -71.5t105 -30.5q49 0 95 25.5t86 63.5t76 81t64 75q12 14 13 27q0 20 -21 21q-8 0 -18 -11q-29 -33 -58.5 -64.5t-60.5 -57t-60.5 -41t-56.5 -15.5q-37 0 -52 30t-15 71q0 51 24.5 107t59 103.5t73.5 78t70 30.5q16 0 23 -3l14 -7 q-12 -4 -22.5 -13.5t-10.5 -25.5q0 -47 53 -47q23 0 37.5 15t14.5 44q0 35 -31 65.5t-96 30.5q-51 0 -89 -23.5t-63 -49.5q-23 41 -62.5 57t-103.5 16q-55 0 -106.5 -32.5t-100.5 -79.5t-95 -100.5t-89 -96.5q-14 -14 -14 -24z" />
<glyph unicode="y" horiz-adv-x="915" d="M-129 -467q0 -47 31.5 -87t117.5 -40q111 0 199 51t141 142q33 53 70 114.5t68.5 114.5t52.5 88l20 35q57 23 110.5 55.5t99.5 69.5t85 73.5t68 69.5q12 14 12 27q0 20 -20 20q-8 0 -17 -8q-68 -78 -145.5 -138.5t-155.5 -107.5l101 160q82 113 138 197t56 131 q0 43 -18.5 62.5t-42.5 19.5q-31 0 -64 -29t-62.5 -72t-56 -91t-45.5 -87q-8 -14 -39.5 -49t-73.5 -72t-87 -64.5t-80 -27.5q-18 0 -26.5 12.5t-8.5 26.5q0 29 28.5 66.5t63.5 83.5q37 47 66.5 98t29.5 96q0 47 -28.5 71.5t-75.5 24.5q-39 0 -95.5 -37.5t-112.5 -89 t-106.5 -104.5t-78.5 -86q-10 -10 -10 -23q0 -18 18 -18q12 0 25 14q27 31 69.5 74t87.5 83t87 68.5t67 28.5q16 0 16 -12q0 -16 -43 -52t-86 -96q-35 -47 -62.5 -105t-27.5 -110q0 -61 36 -89.5t91 -28.5q41 0 81 18.5t76 46t64.5 56t46.5 51.5l-127 -203 q-111 -39 -207 -87t-167.5 -101.5t-112.5 -113t-41 -120.5zM27 -379q0 31 36.5 71t90 81t113 76.5t106.5 54.5l-111 -168q-53 -78 -102 -115t-88 -37q-45 0 -45 37z" />
<glyph unicode="z" horiz-adv-x="780" d="M-221 -465q0 -59 29.5 -94t105.5 -35q104 0 217 64.5t195 179.5q41 57 67.5 112.5t42 99.5t21.5 70l6 27q61 23 110.5 53.5t89 65.5t73.5 71.5t63 69.5q10 10 10 23q0 18 -23 18q-8 0 -14 -6q-72 -78 -140.5 -140.5t-168.5 -103.5q0 74 -35 110t-113 36q-43 0 -77 -8 l-35 -7q61 61 116.5 115.5t108.5 112.5q57 6 108.5 27.5t90.5 49t60.5 57t21.5 50.5q0 27 -18.5 37t-37.5 10q-41 0 -72.5 -14.5t-59 -37t-52.5 -50.5l-49 -58q-43 2 -81 18.5t-65 33.5q4 6 7.5 13t3.5 21q0 23 -14.5 38.5t-39.5 15.5q-29 0 -51 -20.5t-22 -53.5 q0 -31 18 -45q-2 -4 -23.5 -29.5t-64.5 -74t-94 -101.5q-14 -14 -14 -29q0 -18 18 -18q10 0 22 12q33 35 69 72t64 67l46 52l18 20q29 -23 67 -39t78 -22q-23 -25 -52 -55.5t-61 -62.5l-64 -64l-58 -58q-53 -16 -91 -40.5t-38 -53.5q0 -51 45 -51q25 0 57.5 30.5t57.5 61.5 l25 6q26 6 55 6q31 0 52 -17.5t21 -47.5q0 -27 -3 -49l-3 -21q-102 -33 -196.5 -77t-168 -98t-117.5 -115.5t-44 -129.5zM-70 -377q0 25 33 63t85 77.5t115.5 76.5t125.5 60q-2 -4 -11.5 -29t-29 -64.5t-41.5 -70.5q-27 -37 -59.5 -65.5t-64.5 -47t-60.5 -29t-47.5 -10.5 q-29 0 -37 11.5t-8 27.5z" />
<glyph unicode="{" horiz-adv-x="624" d="M-12 -18q0 -55 27.5 -83t68.5 -39.5t88 -11.5h86q53 0 53 29q0 23 -32 23q-53 0 -83 4t-44.5 14t-18.5 25.5t-4 38.5q0 33 14.5 67.5t38 73.5t52 80t57.5 84q47 68 84 139.5t37 142.5q0 59 -27 84t-57 37q53 2 110.5 25.5t85.5 83.5q33 74 63.5 144.5t64.5 135t76 119.5 t99 98q23 16 45.5 20.5t49.5 4.5h57q45 4 45 29q0 23 -37 22h-72q-45 0 -92 -3t-88 -17q-61 -23 -108 -77t-85 -125t-73 -151.5t-72 -154.5q-16 -33 -47 -57.5t-64.5 -43t-66.5 -30t-53 -17.5q39 -10 78 -34.5t39 -69.5q0 -53 -32 -116.5t-75 -131.5q-31 -49 -64.5 -97 t-61 -94.5t-45 -90t-17.5 -80.5z" />
<glyph unicode="|" horiz-adv-x="350" d="M-66 -209h62l823 1544h-63z" />
<glyph unicode="}" horiz-adv-x="917" d="M-86 -123q0 -20 43 -20q25 0 53.5 -2t61.5 -2q35 0 72.5 4t74.5 18q61 23 114.5 91.5t100.5 157.5t88 185.5t78 169.5q20 39 54 65.5t69 44t65.5 25t42.5 11.5l-30 12q-20 8 -41 19.5t-35 26.5t-14 34v16q0 12 9 38t28.5 70t60.5 113q70 113 96.5 185.5t26.5 128.5 q0 43 -27.5 65.5t-66.5 32.5t-81 11t-69 1t-40 -7t-13 -17q0 -23 43 -25q41 -4 77 -19.5t36 -49.5q0 -23 -19.5 -80.5t-87.5 -171.5q-59 -94 -82.5 -162t-23.5 -109q0 -35 17 -55t38.5 -30.5t42 -14.5t29.5 -6q-6 0 -37 -2t-70 -12.5t-76 -32t-55 -60.5q-35 -76 -73 -160.5 t-80 -164.5t-88 -147.5t-93 -108.5q-31 -27 -72 -31t-88 -6q-29 -2 -44 -10.5t-15 -18.5z" />
<glyph unicode="~" horiz-adv-x="638" d="M176 442q0 -8 6 -8t16.5 12.5t24 18.5t35.5 6q27 0 53.5 -11t44.5 -22q20 -10 46 -15t53 -5q41 0 77.5 20.5t57.5 55.5q2 4 2 10q0 12 -8 12t-17 -10q-23 -33 -67 -33q-31 0 -55.5 14.5t-51.5 24.5q-29 10 -49 13t-37 3q-43 0 -77.5 -17t-51.5 -56q-2 -5 -2 -13z" />
<glyph unicode="&#xa1;" horiz-adv-x="630" d="M-76 -153.5q6 -34.5 29 -51.5q25 -16 59.5 -6t59 47t55.5 93.5t68 127.5q43 84 97 182.5t120 196.5q16 25 18 40.5t-6 19.5t-22.5 -3.5t-28.5 -29.5q-66 -98 -137.5 -186.5t-131.5 -157.5q-53 -63 -94 -112.5t-65 -86.5q-27 -39 -21 -73.5zM520 756q0 -31 18.5 -56.5 t53.5 -25.5q49 0 76.5 31.5t27.5 72.5q0 29 -17 53.5t-54 24.5q-53 0 -79 -31.5t-26 -68.5z" />
<glyph unicode="&#xa2;" horiz-adv-x="657" d="M106 319q0 -72 40 -129t94 -75q-14 -23 -32 -53.5t-26 -43.5q-6 -12 -6 -20q0 -12 10 -12t23 18q8 12 26.5 45t30.5 53q39 -12 84 -12q68 0 123 28.5t98 69.5q12 12 13 23q0 14 -15 14q-8 0 -18 -8q-35 -29 -77 -44t-83 -15q-45 0 -84 16l236 397q43 -12 57 -45h-6 q-14 0 -26.5 -11t-12.5 -32q0 -18 14.5 -32.5t34.5 -14.5q23 0 38 15.5t15 42.5q0 31 -29.5 65.5t-64.5 44.5q10 18 24.5 42t28.5 48q6 8 7 17q0 12 -13 12q-12 0 -20 -14q-14 -25 -29.5 -49.5t-25.5 -43.5q-16 4 -33 6.5t-43 2.5q-76 0 -140.5 -26t-111.5 -69t-74 -98.5 t-27 -112.5zM229 315q0 43 22.5 91.5t59.5 87t81 64.5t87 26q14 0 21.5 -1t13.5 -3l-231 -394q-25 16 -39.5 48t-14.5 81z" />
<glyph unicode="&#xa3;" horiz-adv-x="1208" d="M72 61q0 -43 32.5 -77.5t110.5 -34.5q90 0 155.5 22.5t121.5 48.5q78 -23 150.5 -37t158.5 -14q78 0 136 17.5t102 46t76 68.5t56 87q6 12 7 19q0 8 -7 8q-10 0 -22 -12q-29 -29 -93.5 -41t-135.5 -12q-25 0 -60 3t-69.5 8t-65.5 11t-49 10q29 35 58.5 91.5t58.5 121.5 q43 -10 81.5 -17t77.5 -7q59 0 96 28.5t62 75.5l3 6q1 2 1 6q0 10 -10 11q-4 0 -10 -9q-14 -23 -46 -38t-79 -15q-29 0 -66 7.5t-84 17.5q16 35 35.5 77t36.5 76q92 0 185 25t168 70t122 110.5t47 145.5q0 61 -39 102t-112 41q-152 0 -287 -101.5t-236 -287.5 q-20 10 -43.5 26.5t-43 39t-33 52t-13.5 66.5q0 25 6 49q2 8 3 13.5t1 9.5q0 18 -10 18q-14 0 -29.5 -41t-15.5 -86q0 -43 14.5 -75.5t37 -58t47 -44t47.5 -29.5q-16 -31 -36 -74.5t-34 -78.5q-70 14 -107.5 19t-46.5 5q-31 0 -60.5 -11t-53 -28.5t-38 -37t-14.5 -37.5 q0 -12 9 -13q4 0 10 9q12 23 38.5 38t71.5 15q16 0 40 -3t48.5 -8t44 -9.5t29.5 -6.5q-23 -55 -52.5 -111.5t-59.5 -101.5q-49 12 -95.5 20.5t-89.5 8.5q-47 0 -90 -14.5t-76.5 -39t-53 -60.5t-19.5 -79zM152 55q0 31 63 31q29 0 70 -10t69 -19q-25 -23 -57.5 -32t-63.5 -9 q-37 0 -59 10.5t-22 28.5zM926 682q25 37 58.5 91t75.5 104.5t90 86t99 35.5q31 0 49.5 -18t18.5 -47q0 -55 -34 -101.5t-89 -80t-124.5 -52t-143.5 -18.5z" />
<glyph unicode="&#xa5;" horiz-adv-x="968" d="M188 0h410l8 20h-133l160 359h139l6 20h-137l27 60h139l6 20h-137l14 35l432 434h117l8 23h-299l-6 -23h152l-418 -420l-64 420h136l8 23h-404l-10 -23h117l73 -469h-145l-6 -20h141l-26 -60h-142l-6 -20h139l-159 -359h-133z" />
<glyph unicode="&#xa6;" horiz-adv-x="303" d="M94 0h111v553h-111v-553zM94 772h111v608h-111v-608z" />
<glyph unicode="&#xa7;" horiz-adv-x="929" d="M-88 -205q0 -68 47 -100.5t111 -32.5q76 0 139 29.5t109.5 84t71 130.5t24.5 166q0 10 -1 18t-1 16q61 6 120.5 29t107.5 74t78 138t30 220q0 37 -1.5 62.5t-2.5 49t-4 51.5t-7 71q-4 53 -7 111.5t-3 86.5q0 125 35 172.5t112 47.5q23 0 38 -5l16 -4q-33 -10 -52.5 -34.5 t-19.5 -57.5q0 -41 24.5 -66.5t67.5 -25.5q41 0 66.5 27.5t25.5 64.5q0 31 -14 54.5t-37.5 40t-53.5 24.5t-61 8q-86 0 -145 -38t-94 -91q-25 -37 -37 -81t-18.5 -89t-5.5 -87t5 -73q-63 -23 -122.5 -57.5t-106.5 -87.5t-75.5 -126t-28.5 -169q0 -41 3 -81t7 -87 q4 -39 7 -81t3 -87q0 -180 -45 -249.5t-139 -69.5q-27 0 -44 4l-18 4q31 10 53.5 32.5t22.5 63.5q0 33 -24.5 61.5t-63.5 28.5q-41 0 -66.5 -26.5t-25.5 -63.5zM383 471q0 113 52 184.5t140 102.5q4 -31 7.5 -74t9.5 -96q4 -41 7 -86t3 -92q0 -78 -12 -128.5t-37 -81 t-60.5 -45t-82.5 -20.5q0 41 -4.5 82t-8.5 84q-6 41 -10 85t-4 85z" />
<glyph unicode="&#xa8;" horiz-adv-x="503" d="M203 770q0 -33 20.5 -55.5t59.5 -22.5q49 0 78.5 32t29.5 79q0 33 -21.5 55.5t-56.5 22.5q-47 0 -78.5 -32t-31.5 -79zM469 770q0 -33 20.5 -55.5t59.5 -22.5q49 0 78.5 32t29.5 79q0 33 -21.5 55.5t-55.5 22.5q-47 0 -79 -32t-32 -79z" />
<glyph unicode="&#xa9;" horiz-adv-x="819" d="M209 483q0 -74 27.5 -138t75.5 -112.5t112.5 -76t138.5 -27.5t138.5 27.5t112.5 76t76 113t28 137.5q0 74 -28 138.5t-76 112.5t-112.5 76t-138.5 28t-138.5 -28t-112.5 -76t-75.5 -112.5t-27.5 -138.5zM244 483q0 68 24.5 126.5t67.5 101.5t101.5 67.5t125.5 24.5 q68 0 126.5 -24.5t101.5 -67.5t67.5 -101.5t24.5 -126.5t-24.5 -126t-67.5 -101t-101.5 -67.5t-126.5 -24.5t-126 24.5t-101 67.5t-67.5 101t-24.5 126zM379 479q0 -70 49 -124t135 -54q59 0 92 13.5t56 31.5v51q-29 -23 -62 -38t-86 -15q-70 0 -104.5 43t-34.5 92 q0 53 34 95t105 42q49 0 83 -13t61 -36v47q-25 23 -59 35.5t-85 12.5q-86 0 -135 -56.5t-49 -126.5z" />
<glyph unicode="&#xaa;" horiz-adv-x="849" d="M127 352q0 -8 8 -8q10 0 27 12q18 14 41.5 19.5t64.5 5.5q37 0 63.5 -11.5t67.5 -23.5q31 -10 67 -15t71 -5q57 0 98 10t66.5 23.5t38 28.5t12.5 26q0 12 -15 12q-12 0 -22 -10q-33 -33 -105 -33q-16 0 -30.5 2t-29.5 7l-34.5 11.5t-46.5 14.5q-33 10 -72 15t-71 5 q-61 0 -99.5 -10t-61 -24.5t-30.5 -29t-8 -22.5zM254 623q0 -57 29.5 -92t83.5 -35q63 0 107 34.5t79 75.5q-6 -12 -6 -33q0 -29 23.5 -55t74.5 -26q43 0 80 22.5t68.5 53t58.5 63.5t47 53q6 6 6 16q0 18 -16 19q-8 0 -15 -8q-16 -20 -38.5 -44t-45 -43.5t-44 -32.5 t-35.5 -13q-23 0 -23 26q0 16 17.5 44t52.5 77q35 47 57.5 80t34.5 55.5t17 36.5t5 27q0 33 -16 48t-41 15q-14 0 -30.5 -10t-30.5 -33q-8 -10 -18 -24l-9 -15q-8 23 -30.5 41.5t-67.5 18.5q-80 0 -148.5 -35t-119 -87t-79 -111.5t-28.5 -108.5zM420 659q0 31 21.5 77t52 88 t67.5 72t68 30t49 -19.5t20 -46.5l-94 -147q-8 -14 -24.5 -32.5t-37 -36t-43 -30t-44.5 -12.5q-35 0 -35 57z" />
<glyph unicode="&#xab;" horiz-adv-x="806" d="M45 496q0 -14 30.5 -53.5t74 -86.5t89.5 -93t76 -73q27 -23 39 -22q12 0 13 12q0 18 -21 45q-25 35 -52.5 79t-51 84t-39 69.5t-15.5 38.5q0 8 27 39.5t65.5 71.5t83 83t78.5 76q23 20 23 39q0 10 -10 10t-29 -12q-10 -8 -43 -30.5t-75 -52.5t-89 -63.5t-85 -64.5 t-63.5 -56.5t-25.5 -39.5zM315 496q0 -14 31 -53.5t74 -86.5t89 -93t77 -73q27 -23 39 -22q12 0 12 12q0 18 -21 45q-25 35 -52 79t-51 84t-39 69.5t-15 38.5q0 8 26.5 39.5t65.5 71.5t83 83t79 76q23 20 22 39q0 10 -10 10t-29 -12q-10 -8 -42.5 -30.5t-74.5 -52.5 t-89.5 -63.5t-85 -64.5t-63.5 -56.5t-26 -39.5z" />
<glyph unicode="&#xac;" horiz-adv-x="1228" d="M195 442h194l19 41q18 41 62 123t118 204t184 286q6 8 -9 9t-38 -9q-41 -25 -98.5 -52.5t-117.5 -53t-118.5 -48t-97.5 -35.5q-10 -2 -15.5 -9t-4.5 -14t6.5 -12.5t15.5 -3.5q43 12 99.5 34t105.5 41.5t83 33.5l33 14zM311 -57q0 -20 15 -21q16 0 28 27 q90 180 186.5 329.5t190.5 284.5t179 264t153 271q4 6 4 18q0 23 -18 23t-29 -25q-59 -127 -145.5 -258t-183.5 -270.5t-194.5 -292t-177.5 -320.5q-8 -16 -8 -30zM678 115q0 -51 41 -89t119 -38q53 0 103 14t88 41t61.5 64.5t23.5 85.5q0 35 -15.5 73.5t-27.5 60t-14 25.5 q86 39 134 89.5t48 113.5q0 41 -32.5 70.5t-92.5 29.5q-55 0 -103 -16t-82 -45t-53.5 -65.5t-19.5 -79.5q0 -35 14.5 -58.5t28.5 -52.5q-94 -41 -157.5 -96t-63.5 -127zM756 133q0 31 14 56.5t37.5 47t53.5 39t61 29.5q2 -4 15 -24.5t28.5 -56.5t15.5 -62q0 -51 -41 -78 t-94 -27q-45 0 -67.5 21.5t-22.5 54.5zM977 506q0 47 38 71.5t95 24.5q35 0 51.5 -18.5t16.5 -40.5q0 -47 -43 -89t-103 -69q-18 29 -36.5 61.5t-18.5 59.5z" />
<glyph unicode="&#xad;" horiz-adv-x="659" d="M118 350q3 -8 14 -11t30 3q18 8 37.5 10t38.5 2q29 0 54 -7t58 -15q18 -4 49 -9.5t47 -5.5q53 0 93.5 13.5t64.5 27.5q14 8 19.5 18.5t2.5 18.5t-12.5 12.5t-21.5 -1.5q-16 -10 -39 -12.5t-45 -2.5q-25 0 -52.5 7.5t-62.5 15.5q-29 6 -55.5 8t-50.5 2q-45 0 -85 -13.5 t-63 -23.5q-14 -6 -19 -17.5t-2 -19.5z" />
<glyph unicode="&#xae;" horiz-adv-x="819" d="M346 920q0 -74 27.5 -139.5t77 -112.5t114 -75t137.5 -28q74 0 138.5 28t114 76t77 112.5t27.5 138.5t-27.5 138t-77 113.5t-114 77t-138.5 27.5t-138 -27.5t-113.5 -77t-77 -113.5t-27.5 -138zM383 920q0 68 24.5 126t67.5 101t101.5 67.5t125.5 24.5q68 0 126.5 -24.5 t101.5 -67.5t67.5 -101.5t24.5 -125.5q0 -68 -24.5 -126.5t-67.5 -101.5t-101.5 -67.5t-126.5 -24.5t-126 24.5t-101 67.5t-67.5 101.5t-24.5 126.5zM573 727h45v164h27l158 -164h57l-158 164h21q53 0 89 27.5t36 85.5q0 55 -34 80.5t-81 25.5h-160v-383zM618 936v129h115 q29 0 49.5 -16.5t20.5 -44.5q0 -29 -19.5 -48.5t-50.5 -19.5h-115z" />
<glyph unicode="&#xaf;" horiz-adv-x="485" d="M72 758h395v45h-395v-45z" />
<glyph unicode="&#xb0;" horiz-adv-x="552" d="M248 827q0 -47 28.5 -78.5t88.5 -31.5q39 0 71.5 14t54 37t34 50.5t12.5 53.5q0 43 -28 75t-89 32q-41 0 -74 -14.5t-54.5 -36t-32.5 -49t-11 -52.5zM289 827q0 41 32.5 78t92.5 37q41 0 61.5 -19.5t20.5 -50.5q0 -37 -33 -76.5t-92 -39.5q-45 0 -63.5 21t-18.5 50z" />
<glyph unicode="&#xb2;" horiz-adv-x="819" d="M168 438q-10 -23 3 -25.5t19 13.5q10 25 41 41t60 16q33 0 52 -12t44 -29q18 -12 44 -21t65 -9q84 0 133 38.5t78 92.5q10 14 0.5 18t-23.5 -10q-16 -18 -49 -19q-49 0 -125 33q-25 10 -48.5 14.5t-43.5 4.5t-33 -2l-12 -2q63 39 142 67.5t144 69.5q16 12 39 31.5 t42.5 46t32.5 60.5t13 77q0 57 -36.5 100t-118.5 43q-57 0 -105.5 -22.5t-82 -58.5t-52 -78t-18.5 -78q0 -49 30 -84q16 -16 28.5 -6t2.5 26q-23 27 -22 64q0 29 12 57.5t33.5 52t53.5 38.5t69 15q45 0 64.5 -19t19.5 -50q0 -72 -37 -123t-92 -98q-45 -39 -100.5 -68 t-108 -58.5t-95.5 -63.5t-63 -83z" />
<glyph unicode="&#xb3;" horiz-adv-x="819" d="M266 543q0 -51 38 -86t110 -35q70 0 125 20.5t94 53t59.5 74.5t20.5 85q0 41 -20.5 77t-55.5 46q86 10 141.5 60.5t55.5 117.5q0 53 -42 87t-110 34q-55 0 -98 -16.5t-73 -41t-45 -54t-15 -56.5q-2 -29 14 -55q16 -20 28.5 -13t2.5 27q-8 16 -9 41q0 39 40 75t106 36 q76 0 76 -64q0 -31 -12.5 -59.5t-31 -51t-42 -38.5t-43.5 -21q-23 4 -50.5 3t-27.5 -23q0 -18 25.5 -16t47.5 12l9 -9q8 -9 8 -38q0 -37 -14.5 -76t-41 -70.5t-64.5 -53t-83 -21.5q-35 0 -56.5 20.5t-21.5 44.5q0 29 21 43q20 18 7 29.5t-36 -10.5q-37 -31 -37 -78z" />
<glyph unicode="&#xb4;" horiz-adv-x="471" d="M233 705q0 -10 11 -11q2 0 14 4q18 8 44 23.5t53.5 31t51 30t35.5 24.5q27 25 27 47q0 25 -14.5 37t-32.5 12q-23 0 -49 -20q-10 -6 -26.5 -26.5t-37 -45.5t-39 -50.5t-30.5 -41.5q-7 -10 -7 -14z" />
<glyph unicode="&#xb5;" horiz-adv-x="1228" d="M195 442h194l19 41q18 41 62 123t118 204t184 286q6 8 -9 9t-38 -9q-41 -25 -98.5 -52.5t-117.5 -53t-118.5 -48t-97.5 -35.5q-10 -2 -15.5 -9t-4.5 -14t6.5 -12.5t15.5 -3.5q43 12 99.5 34t105.5 41.5t83 33.5l33 14zM311 -57q0 -20 15 -21q16 0 28 27 q90 180 186.5 329.5t190.5 284.5t179 264t153 271q4 6 4 18q0 23 -18 23t-29 -25q-59 -127 -145.5 -258t-183.5 -270.5t-194.5 -292t-177.5 -320.5q-8 -16 -8 -30zM637 29q-10 -23 3 -26t19 13q10 25 41 41.5t60 16.5q33 0 52 -12.5t44 -28.5q18 -12 44 -21.5t65 -9.5 q84 0 133 39t78 92q10 14 0.5 18.5t-23.5 -10.5q-16 -18 -49 -18q-49 0 -125 33q-25 10 -48.5 14t-43.5 4t-33 -2l-12 -2q63 39 142 67.5t144 69.5q16 12 39 31.5t42.5 46.5t32.5 60.5t13 76.5q0 57 -36.5 100.5t-118.5 43.5q-57 0 -105.5 -22.5t-82 -58.5t-52 -78 t-18.5 -79q0 -49 30 -84q16 -16 28.5 -6t2.5 27q-23 27 -22 63q0 29 12 57.5t33.5 52t53.5 39t69 15.5q45 0 64.5 -19.5t19.5 -50.5q0 -72 -37 -123t-92 -98q-45 -39 -100.5 -67.5t-108 -58.5t-95.5 -63.5t-63 -82.5z" />
<glyph unicode="&#xb6;" horiz-adv-x="1071" d="M-59 -53q0 -66 47 -104t129 -38q76 0 148.5 30t144.5 102q43 43 94 108.5t100 140t94 154.5t78 152q27 57 54.5 128.5t52 145.5t44 145.5t29.5 128.5q16 -4 37 -10t35 -12q-10 -61 -26.5 -135t-38 -149t-47 -148.5t-52.5 -136.5q-72 -160 -157.5 -297.5t-196.5 -274.5 q-12 -14 -17.5 -28.5t-5.5 -26.5q0 -23 15.5 -38t42.5 -15t60.5 21.5t66.5 74.5q70 113 138.5 243t141.5 316q51 129 87 280.5t53 284.5q16 -8 32.5 -15t30.5 -16q10 -6 17.5 -7t13.5 -1q12 0 21.5 8.5t9.5 24.5q0 23 -25 39q-29 16 -65.5 36.5t-82 39t-98.5 31t-110 12.5 q-78 0 -146.5 -24.5t-119 -70t-79 -107.5t-28.5 -136q0 -59 20.5 -101.5t55 -73t79 -49t93.5 -30.5q-43 -82 -99.5 -173t-120 -167t-127 -126t-118.5 -50q-23 0 -33 10t-10 25q0 25 30 41q-59 12 -108 12q-92 0 -138 -49t-46 -125z" />
<glyph unicode="&#xb7;" horiz-adv-x="567" d="M227 438q0 -29 18.5 -56.5t59.5 -27.5q59 0 87 34t28 75q0 35 -20.5 62.5t-57.5 27.5q-55 0 -85 -34t-30 -81z" />
<glyph unicode="&#x2219;" horiz-adv-x="567" d="M227 438q0 -29 18.5 -56.5t59.5 -27.5q59 0 87 34t28 75q0 35 -20.5 62.5t-57.5 27.5q-55 0 -85 -34t-30 -81z" />
<glyph unicode="&#xb8;" horiz-adv-x="372" d="M25 -182q0 -8 10 -17q27 -20 55.5 -29.5t54.5 -9.5q55 0 88 28t33 75q0 45 -39 72l21 63h-70l-22 -72q31 -18 30 -53q0 -31 -20.5 -49.5t-50.5 -18.5q-33 0 -62 21q-12 6 -16 6q-12 0 -12 -16z" />
<glyph unicode="&#xb9;" horiz-adv-x="706" d="M195 442h194l19 41q18 41 62 123t118 204t184 286q6 8 -9 9t-38 -9q-41 -25 -98.5 -52.5t-117.5 -53t-118.5 -48t-97.5 -35.5q-10 -2 -15.5 -9t-4.5 -14t6.5 -12.5t15.5 -3.5q43 12 99.5 34t105.5 41.5t83 33.5l33 14z" />
<glyph unicode="&#xba;" horiz-adv-x="733" d="M143 354q0 -8 9 -8q8 0 18 10q25 25 80 25q31 0 47 -7t51 -24q51 -23 121 -22q45 0 78 9t53.5 23.5t30.5 27.5t10 24q0 14 -12 14q-6 0 -17 -10q-25 -33 -84 -33q-35 0 -62.5 12.5t-52 22.5t-55 15t-53.5 5q-43 0 -73.5 -9t-50 -23.5t-29 -29t-9.5 -22.5zM307 680 q0 -82 43 -120t107 -38q63 0 118.5 40t95.5 97.5t62.5 122t22.5 113.5q0 41 -19.5 71.5t-74.5 30.5q-68 0 -131.5 -30.5t-113.5 -76.5t-80 -102.5t-30 -107.5zM469 698q0 39 20.5 83t51 82t64.5 62.5t61 24.5q29 0 39 -15t10 -40q0 -33 -15.5 -81t-42 -92t-61.5 -75t-74 -31 q-29 0 -41 24.5t-12 57.5z" />
<glyph unicode="&#xbb;" horiz-adv-x="827" d="M223 193q0 -10 10 -11q12 0 31 11q25 14 63 40.5t80 57.5t85 63.5t76.5 61t55 51t21.5 33.5q0 14 -29.5 54t-71.5 86t-88 91t-81 74q-29 23 -41 22q-10 0 -10 -12q0 -16 20 -45q27 -39 55.5 -83t51 -83t37 -67.5t14.5 -36.5t-26.5 -40t-64.5 -74t-82 -85t-81 -72 q-25 -22 -25 -36zM524 193q0 -10 11 -11q12 0 30 11q25 14 63 40.5t80 57.5t85 63.5t76.5 61t55 51t21.5 33.5q0 14 -29.5 54t-71.5 86t-88 91t-81 74q-29 23 -41 22q-10 0 -10 -12q0 -16 20 -45q27 -39 55.5 -83t51 -83t37 -67.5t14.5 -36.5t-26.5 -40t-64.5 -74t-82 -85 t-81 -72q-25 -22 -25 -36z" />
<glyph unicode="&#xbc;" horiz-adv-x="1228" d="M195 442h194l19 41q18 41 62 123t118 204t184 286q6 8 -9 9t-38 -9q-41 -25 -98.5 -52.5t-117.5 -53t-118.5 -48t-97.5 -35.5q-10 -2 -15.5 -9t-4.5 -14t6.5 -12.5t15.5 -3.5q43 12 99.5 34t105.5 41.5t83 33.5l33 14zM311 -57q0 -20 15 -21q16 0 28 27 q90 180 186.5 329.5t190.5 284.5t179 264t153 271q4 6 4 18q0 23 -18 23t-29 -25q-59 -127 -145.5 -258t-183.5 -270.5t-194.5 -292t-177.5 -320.5q-8 -16 -8 -30zM598 207q2 -25 27.5 -21t46 16.5t24.5 14.5q29 -2 74 -8t90 -10l-13 -21q-13 -20 -32.5 -51t-41 -64.5 t-36.5 -60.5h172q6 18 15.5 45t20.5 54.5t22.5 53t19.5 42.5q4 0 25.5 1t56.5 4t59 11q14 4 20.5 13.5t5.5 18.5t-8 13t-18 0q-25 -10 -53 -14t-46.5 -3t-20.5 1q6 14 34.5 66t66.5 118t80 130.5t73 105.5q10 12 -9.5 19t-48.5 -11q-49 -29 -115.5 -78t-137 -105.5 t-140.5 -114t-123 -104.5q-4 0 -25.5 -2t-45 -16t-19.5 -43zM741 260q35 31 89.5 76t114 94t116.5 95t100 77q-100 -117 -164.5 -203t-111.5 -157q-43 4 -79 10t-65 8z" />
<glyph unicode="&#xbd;" horiz-adv-x="1228" d="M195 442h194l19 41q18 41 62 123t118 204t184 286q6 8 -9 9t-38 -9q-41 -25 -98.5 -52.5t-117.5 -53t-118.5 -48t-97.5 -35.5q-10 -2 -15.5 -9t-4.5 -14t6.5 -12.5t15.5 -3.5q43 12 99.5 34t105.5 41.5t83 33.5l33 14zM311 -57q0 -20 15 -21q16 0 28 27 q90 180 186.5 329.5t190.5 284.5t179 264t153 271q4 6 4 18q0 23 -18 23t-29 -25q-59 -127 -145.5 -258t-183.5 -270.5t-194.5 -292t-177.5 -320.5q-8 -16 -8 -30zM637 29q-10 -23 3 -26t19 13q10 25 41 41.5t60 16.5q33 0 52 -12.5t44 -28.5q18 -12 44 -21.5t65 -9.5 q84 0 133 39t78 92q10 14 0.5 18.5t-23.5 -10.5q-16 -18 -49 -18q-49 0 -125 33q-25 10 -48.5 14t-43.5 4t-33 -2l-12 -2q63 39 142 67.5t144 69.5q16 12 39 31.5t42.5 46.5t32.5 60.5t13 76.5q0 57 -36.5 100.5t-118.5 43.5q-57 0 -105.5 -22.5t-82 -58.5t-52 -78 t-18.5 -79q0 -49 30 -84q16 -16 28.5 -6t2.5 27q-23 27 -22 63q0 29 12 57.5t33.5 52t53.5 39t69 15.5q45 0 64.5 -19.5t19.5 -50.5q0 -72 -37 -123t-92 -98q-45 -39 -100.5 -67.5t-108 -58.5t-95.5 -63.5t-63 -82.5z" />
<glyph unicode="&#xbe;" horiz-adv-x="1464" d="M266 543q0 -51 38 -86t110 -35q70 0 125 20.5t94 53t59.5 74.5t20.5 85q0 41 -20.5 77t-55.5 46q86 10 141.5 60.5t55.5 117.5q0 53 -42 87t-110 34q-55 0 -98 -16.5t-73 -41t-45 -54t-15 -56.5q-2 -29 14 -55q16 -20 28.5 -13t2.5 27q-8 16 -9 41q0 39 40 75t106 36 q76 0 76 -64q0 -31 -12.5 -59.5t-31 -51t-42 -38.5t-43.5 -21q-23 4 -50.5 3t-27.5 -23q0 -18 25.5 -16t47.5 12l9 -9q8 -9 8 -38q0 -37 -14.5 -76t-41 -70.5t-64.5 -53t-83 -21.5q-35 0 -56.5 20.5t-21.5 44.5q0 29 21 43q20 18 7 29.5t-36 -10.5q-37 -31 -37 -78zM459 -57 q0 -20 14 -21q16 0 29 27q90 180 186 329.5t190.5 284.5t179.5 264t152 271q4 6 4 18q0 23 -18 23t-29 -25q-59 -127 -145 -258t-183.5 -270.5t-194.5 -292t-177 -320.5q-8 -16 -8 -30zM752 207q2 -25 27.5 -21t46 16.5t24.5 14.5q29 -2 74 -8t90 -10l-14 -21 q-13 -20 -32.5 -51t-41 -64.5t-35.5 -60.5h172l15 45t20.5 54.5t23 53t19.5 42.5q4 0 25.5 1t56 4t59.5 11q14 4 20.5 13.5t5.5 18.5t-8.5 13t-17.5 0q-25 -10 -53.5 -14t-47 -3t-20.5 1q6 14 35 66t66.5 118t79.5 130.5t73 105.5q10 12 -9.5 19t-47.5 -11 q-49 -29 -115.5 -78t-137.5 -105.5t-140.5 -114t-122.5 -104.5q-4 0 -25.5 -2t-45 -16t-19.5 -43zM895 260q35 31 89 76t113.5 94t117 95t100.5 77q-100 -117 -165 -203t-112 -157q-43 4 -78.5 10t-64.5 8z" />
<glyph unicode="&#xbf;" horiz-adv-x="755" d="M25 -20q0 -90 67.5 -153t183.5 -63q61 0 109.5 19.5t81.5 50.5t50.5 68t17.5 71q0 33 -7.5 57.5t-15.5 41.5q-6 14 -16.5 18t-17.5 0t-10 -13t3 -24q16 -39 16 -80q0 -25 -10 -50t-31.5 -46.5t-55.5 -35t-81 -13.5q-61 0 -97 35t-36 82q0 74 47 131t121 104 q45 29 95 55.5t90 57.5t67 66.5t27 82.5q0 39 -25 61.5t-59 22.5q-23 0 -42.5 -11t-31.5 -34q-6 -12 -1 -17t17 7q10 10 21.5 4t11.5 -24q0 -35 -34 -64t-82 -53.5t-101 -47t-94 -44.5q-72 -43 -125 -104.5t-53 -157.5zM621 756q0 -31 18 -56.5t53 -25.5q49 0 77 31.5 t28 72.5q0 29 -17.5 53.5t-54.5 24.5q-53 0 -78.5 -31.5t-25.5 -68.5z" />
<glyph unicode="&#xc0;" horiz-adv-x="1542" d="M94 215q0 -104 68.5 -162.5t167.5 -58.5q70 0 143.5 31.5t146 82t140 116t123.5 132.5q41 -37 90 -57t114 -20h9l-228 -279h306l219 322q80 31 147.5 81t104.5 115q4 8 4 14q0 10 -11 11q-6 0 -12 -8q-29 -39 -69.5 -65t-88.5 -38l168 248q31 45 62 100.5t55.5 111.5 t39.5 108.5t15 91.5q0 63 -36.5 116.5t-124.5 53.5q-129 0 -250 -84t-238 -224q-57 29 -137 29t-142.5 -27.5t-104.5 -71.5t-63.5 -102.5t-21.5 -119.5q0 -41 10.5 -80t32.5 -74q-20 -20 -56 -52t-77 -61.5t-84 -51t-76 -21.5q-51 0 -70.5 13t-19.5 36q0 10 2 16t6 12 q-27 10 -61 11q-31 0 -66.5 -11.5t-66.5 -36t-50.5 -61.5t-19.5 -86zM809 664q0 61 21.5 101t52 61.5t62.5 29.5t54 8q31 0 56 -12q-16 -20 -47 -55t-65 -72t-67.5 -73t-54.5 -60q-12 33 -12 72zM948 444q27 33 61.5 78t70.5 93.5t70 93.5t56 75q45 -37 71 -104.5t28 -144.5 l-134 -162q-10 -2 -18 -2h-18q-53 0 -105.5 19t-81.5 54zM1270 868q43 55 88 110.5t91 101.5t92 75t91 29q33 0 49.5 -20.5t16.5 -51.5q0 -37 -26.5 -88t-62.5 -104.5t-75 -101.5t-64 -79l-90 -112q-10 76 -37.5 142t-72.5 99zM1524 1524q0 -23 22 -45q12 -12 32.5 -26.5 t43.5 -30t46.5 -30t39.5 -24.5q8 -6 14 -6q10 0 11 10q0 6 -7 19q-10 16 -24 39.5t-29.5 47t-29 43t-21.5 27.5q-25 27 -51 27q-23 0 -35 -16.5t-12 -34.5z" />
<glyph unicode="&#xc1;" horiz-adv-x="1542" d="M94 215q0 -104 68.5 -162.5t167.5 -58.5q70 0 143.5 31.5t146 82t140 116t123.5 132.5q41 -37 90 -57t114 -20h9l-228 -279h306l219 322q80 31 147.5 81t104.5 115q4 8 4 14q0 10 -11 11q-6 0 -12 -8q-29 -39 -69.5 -65t-88.5 -38l168 248q31 45 62 100.5t55.5 111.5 t39.5 108.5t15 91.5q0 63 -36.5 116.5t-124.5 53.5q-129 0 -250 -84t-238 -224q-57 29 -137 29t-142.5 -27.5t-104.5 -71.5t-63.5 -102.5t-21.5 -119.5q0 -41 10.5 -80t32.5 -74q-20 -20 -56 -52t-77 -61.5t-84 -51t-76 -21.5q-51 0 -70.5 13t-19.5 36q0 10 2 16t6 12 q-27 10 -61 11q-31 0 -66.5 -11.5t-66.5 -36t-50.5 -61.5t-19.5 -86zM809 664q0 61 21.5 101t52 61.5t62.5 29.5t54 8q31 0 56 -12q-16 -20 -47 -55t-65 -72t-67.5 -73t-54.5 -60q-12 33 -12 72zM948 444q27 33 61.5 78t70.5 93.5t70 93.5t56 75q45 -37 71 -104.5t28 -144.5 l-134 -162q-10 -2 -18 -2h-18q-53 0 -105.5 19t-81.5 54zM1270 868q43 55 88 110.5t91 101.5t92 75t91 29q33 0 49.5 -20.5t16.5 -51.5q0 -37 -26.5 -88t-62.5 -104.5t-75 -101.5t-64 -79l-90 -112q-10 76 -37.5 142t-72.5 99zM1677 1380q0 -10 11 -10q6 0 18 6 q16 8 42 22.5t52.5 30t50 30t35.5 24.5q27 25 27 47q0 23 -15.5 36t-31.5 13q-23 0 -49 -20q-10 -6 -26.5 -27t-37 -45.5t-39 -50t-31.5 -41.5q-6 -11 -6 -15z" />
<glyph unicode="&#xc2;" horiz-adv-x="1542" d="M94 215q0 -104 68.5 -162.5t167.5 -58.5q70 0 143.5 31.5t146 82t140 116t123.5 132.5q41 -37 90 -57t114 -20h9l-228 -279h306l219 322q80 31 147.5 81t104.5 115q4 8 4 14q0 10 -11 11q-6 0 -12 -8q-29 -39 -69.5 -65t-88.5 -38l168 248q31 45 62 100.5t55.5 111.5 t39.5 108.5t15 91.5q0 63 -36.5 116.5t-124.5 53.5q-129 0 -250 -84t-238 -224q-57 29 -137 29t-142.5 -27.5t-104.5 -71.5t-63.5 -102.5t-21.5 -119.5q0 -41 10.5 -80t32.5 -74q-20 -20 -56 -52t-77 -61.5t-84 -51t-76 -21.5q-51 0 -70.5 13t-19.5 36q0 10 2 16t6 12 q-27 10 -61 11q-31 0 -66.5 -11.5t-66.5 -36t-50.5 -61.5t-19.5 -86zM809 664q0 61 21.5 101t52 61.5t62.5 29.5t54 8q31 0 56 -12q-16 -20 -47 -55t-65 -72t-67.5 -73t-54.5 -60q-12 33 -12 72zM948 444q27 33 61.5 78t70.5 93.5t70 93.5t56 75q45 -37 71 -104.5t28 -144.5 l-134 -162q-10 -2 -18 -2h-18q-53 0 -105.5 19t-81.5 54zM1270 868q43 55 88 110.5t91 101.5t92 75t91 29q33 0 49.5 -20.5t16.5 -51.5q0 -37 -26.5 -88t-62.5 -104.5t-75 -101.5t-64 -79l-90 -112q-10 76 -37.5 142t-72.5 99zM1505 1350q0 -16 17 -17q10 0 26 10 q12 8 35 24.5t47.5 32t45 27t28.5 11.5q4 0 17.5 -12.5t28.5 -27.5l31 -31q15 -15 21 -24q16 -16 27 -16q6 0 10 4q8 8 8 15q0 4 -6 14q-10 16 -28.5 45t-38 57.5t-35 49t-21.5 20.5q-8 0 -34.5 -20.5t-59.5 -48t-63.5 -55.5t-44.5 -42q-11 -8 -11 -16z" />
<glyph unicode="&#xc3;" horiz-adv-x="1542" d="M94 215q0 -104 68.5 -162.5t167.5 -58.5q70 0 143.5 31.5t146 82t140 116t123.5 132.5q41 -37 90 -57t114 -20h9l-228 -279h306l219 322q80 31 147.5 81t104.5 115q4 8 4 14q0 10 -11 11q-6 0 -12 -8q-29 -39 -69.5 -65t-88.5 -38l168 248q31 45 62 100.5t55.5 111.5 t39.5 108.5t15 91.5q0 63 -36.5 116.5t-124.5 53.5q-129 0 -250 -84t-238 -224q-57 29 -137 29t-142.5 -27.5t-104.5 -71.5t-63.5 -102.5t-21.5 -119.5q0 -41 10.5 -80t32.5 -74q-20 -20 -56 -52t-77 -61.5t-84 -51t-76 -21.5q-51 0 -70.5 13t-19.5 36q0 10 2 16t6 12 q-27 10 -61 11q-31 0 -66.5 -11.5t-66.5 -36t-50.5 -61.5t-19.5 -86zM809 664q0 61 21.5 101t52 61.5t62.5 29.5t54 8q31 0 56 -12q-16 -20 -47 -55t-65 -72t-67.5 -73t-54.5 -60q-12 33 -12 72zM948 444q27 33 61.5 78t70.5 93.5t70 93.5t56 75q45 -37 71 -104.5t28 -144.5 l-134 -162q-10 -2 -18 -2h-18q-53 0 -105.5 19t-81.5 54zM1270 868q43 55 88 110.5t91 101.5t92 75t91 29q33 0 49.5 -20.5t16.5 -51.5q0 -37 -26.5 -88t-62.5 -104.5t-75 -101.5t-64 -79l-90 -112q-10 76 -37.5 142t-72.5 99zM1503 1368q0 -10 8 -10t17 10q10 14 32.5 36.5 t51.5 22.5t50 -14t46 -35q23 -18 48.5 -24t55.5 -6q51 0 92.5 35.5t59.5 70.5q4 12 4 16q0 12 -8 13q-8 0 -16 -10q-16 -23 -45 -42.5t-62 -19.5q-23 0 -43 13.5t-37 27.5q-16 16 -45 24.5t-51 8.5q-47 0 -90 -32t-64 -73q-4 -8 -4 -12z" />
<glyph unicode="&#xc4;" horiz-adv-x="1542" d="M94 215q0 -104 68.5 -162.5t167.5 -58.5q70 0 143.5 31.5t146 82t140 116t123.5 132.5q41 -37 90 -57t114 -20h9l-228 -279h306l219 322q80 31 147.5 81t104.5 115q4 8 4 14q0 10 -11 11q-6 0 -12 -8q-29 -39 -69.5 -65t-88.5 -38l168 248q31 45 62 100.5t55.5 111.5 t39.5 108.5t15 91.5q0 63 -36.5 116.5t-124.5 53.5q-129 0 -250 -84t-238 -224q-57 29 -137 29t-142.5 -27.5t-104.5 -71.5t-63.5 -102.5t-21.5 -119.5q0 -41 10.5 -80t32.5 -74q-20 -20 -56 -52t-77 -61.5t-84 -51t-76 -21.5q-51 0 -70.5 13t-19.5 36q0 10 2 16t6 12 q-27 10 -61 11q-31 0 -66.5 -11.5t-66.5 -36t-50.5 -61.5t-19.5 -86zM809 664q0 61 21.5 101t52 61.5t62.5 29.5t54 8q31 0 56 -12q-16 -20 -47 -55t-65 -72t-67.5 -73t-54.5 -60q-12 33 -12 72zM948 444q27 33 61.5 78t70.5 93.5t70 93.5t56 75q45 -37 71 -104.5t28 -144.5 l-134 -162q-10 -2 -18 -2h-18q-53 0 -105.5 19t-81.5 54zM1270 868q43 55 88 110.5t91 101.5t92 75t91 29q33 0 49.5 -20.5t16.5 -51.5q0 -37 -26.5 -88t-62.5 -104.5t-75 -101.5t-64 -79l-90 -112q-10 76 -37.5 142t-72.5 99zM1505 1417q0 -33 20.5 -55.5t59.5 -22.5 q49 0 79 32t30 79q0 33 -21.5 55.5t-56.5 22.5q-47 0 -79 -32t-32 -79zM1772 1417q0 -33 20 -55.5t59 -22.5q49 0 79 32t30 79q0 33 -21.5 55.5t-56.5 22.5q-47 0 -78.5 -32t-31.5 -79z" />
<glyph unicode="&#xc5;" horiz-adv-x="1542" d="M94 215q0 -104 68.5 -162.5t167.5 -58.5q70 0 143.5 31.5t146 82t140 116t123.5 132.5q41 -37 90 -57t114 -20h9l-228 -279h306l219 322q80 31 147.5 81t104.5 115q4 8 4 14q0 10 -11 11q-6 0 -12 -8q-29 -39 -69.5 -65t-88.5 -38l168 248q31 45 62 100.5t55.5 111.5 t39.5 108.5t15 91.5q0 63 -36.5 116.5t-124.5 53.5q-129 0 -250 -84t-238 -224q-57 29 -137 29t-142.5 -27.5t-104.5 -71.5t-63.5 -102.5t-21.5 -119.5q0 -41 10.5 -80t32.5 -74q-20 -20 -56 -52t-77 -61.5t-84 -51t-76 -21.5q-51 0 -70.5 13t-19.5 36q0 10 2 16t6 12 q-27 10 -61 11q-31 0 -66.5 -11.5t-66.5 -36t-50.5 -61.5t-19.5 -86zM809 664q0 61 21.5 101t52 61.5t62.5 29.5t54 8q31 0 56 -12q-16 -20 -47 -55t-65 -72t-67.5 -73t-54.5 -60q-12 33 -12 72zM948 444q27 33 61.5 78t70.5 93.5t70 93.5t56 75q45 -37 71 -104.5t28 -144.5 l-134 -162q-10 -2 -18 -2h-18q-53 0 -105.5 19t-81.5 54zM1270 868q43 55 88 110.5t91 101.5t92 75t91 29q33 0 49.5 -20.5t16.5 -51.5q0 -37 -26.5 -88t-62.5 -104.5t-75 -101.5t-64 -79l-90 -112q-10 76 -37.5 142t-72.5 99zM1659 1409q0 -41 25.5 -70.5t78.5 -29.5 q37 0 66 13t48 32.5t30.5 45t11.5 50.5q0 39 -24.5 67.5t-79.5 28.5q-37 0 -67 -13t-49.5 -32.5t-29.5 -44t-10 -47.5zM1696 1409q0 37 29.5 69.5t82.5 32.5q35 0 54.5 -16t19.5 -45q0 -35 -29.5 -69.5t-83.5 -34.5q-41 0 -57 19t-16 44z" />
<glyph unicode="&#xc6;" horiz-adv-x="2007" d="M90 147q0 -78 52.5 -121.5t150.5 -43.5q78 0 158.5 30.5t169 101t182.5 185.5t198 281q41 -12 92.5 -19.5t104.5 -9.5q-31 -41 -56.5 -99.5t-25.5 -140.5q0 -72 23.5 -132t72 -105t119 -71t162.5 -26q123 0 214 37t150.5 90.5t89 114t29.5 109.5q0 59 -37.5 96t-103.5 37 q-47 0 -76.5 -9.5t-49 -23.5t-29 -32.5t-15.5 -37.5q41 -4 65.5 -31.5t24.5 -68.5q0 -25 -12 -52.5t-36 -50t-60.5 -38t-85.5 -15.5q-106 0 -165 57.5t-59 174.5q0 78 23.5 128t46.5 83q16 0 34.5 -1t35.5 -1q188 0 330.5 46t236.5 117.5t141 158.5t47 167q0 102 -61.5 171 t-177.5 69q-92 0 -164 -30t-119 -77q-4 47 -34.5 76t-90.5 29q-76 0 -160 -41t-173 -116t-183 -179.5t-190 -231.5q-41 23 -66 56t-25 73q0 39 23 70t72 31q23 0 44 -7t31 -18q12 16 22.5 33.5t10.5 46.5q0 47 -36.5 67.5t-77.5 20.5q-92 0 -147.5 -60.5t-55.5 -148.5 q0 -78 47 -134t108 -91q-53 -70 -108 -135.5t-108.5 -116.5t-100.5 -82t-84 -31q-41 0 -54.5 12.5t-13.5 26.5q0 16 4.5 24.5t10.5 18.5q-8 4 -17.5 5.5t-25.5 1.5q-39 0 -82 -18.5t-78 -48.5t-58.5 -69t-23.5 -82zM1038 641q66 117 137.5 213t140 163.5t132 105.5t113.5 38 q68 0 67 -61q0 -16 -3 -28.5t-7 -24.5q-29 -35 -42 -78t-13 -80q0 -41 7 -62.5t17 -38.5q-43 -8 -92 -25.5t-96 -42t-89 -53t-73 -57.5q-51 4 -103.5 12.5t-95.5 18.5zM1442 600q35 43 79 79t97 58q20 -16 49 -28.5t72 -12.5q96 0 96 60q0 23 -29.5 39t-60.5 16 q-20 0 -27 -2q0 70 25.5 138.5t66.5 122.5t95.5 87t111.5 33q72 0 112 -45t40 -113q0 -66 -41 -140.5t-124 -140t-209 -108.5t-298 -43h-55z" />
<glyph unicode="&#xc7;" horiz-adv-x="1138" d="M180 977q0 -104 61.5 -176t166.5 -101q-35 -78 -59.5 -168t-24.5 -180q0 -156 70.5 -255t215.5 -109l-22 -68q68 -37 67 -90q0 -53 -32.5 -70.5t-85.5 -17.5q-20 0 -43 4t-48 10q-16 4 -24 4q-33 0 -33 -22q0 -18 33 -33q47 -23 87 -32t75 -9q92 0 139 43t47 109 q0 39 -24.5 71.5t-61.5 51.5l14 47q90 6 163 39.5t125 83t81 106.5t29 109q0 51 -28 90t-91 51q0 -4 1 -9t1 -10q0 -35 -19.5 -65.5t-50 -53t-70.5 -35.5t-79 -13q-72 0 -112 53t-40 141q0 45 8.5 87t22.5 87q10 -2 23 -2h22q80 0 172 23.5t166 56.5q98 43 169 94t115 103.5 t65.5 104.5t21.5 99q0 72 -48.5 112t-134.5 40q-137 0 -252.5 -45t-210 -115.5t-166 -155.5t-120.5 -165q-57 23 -92 65.5t-35 116.5q0 39 14 69.5t36 52t46.5 36t42.5 22.5q-16 6 -37.5 10.5t-46.5 4.5q-37 0 -73.5 -12.5t-66.5 -37t-49.5 -61.5t-19.5 -86zM670 735 q98 211 232 337t308 126q39 0 66 -17.5t27 -56.5q0 -37 -17.5 -78.5t-55.5 -84.5t-97.5 -85t-141.5 -77q-76 -31 -146.5 -48.5t-129.5 -17.5h-25q-10 0 -20 2z" />
<glyph unicode="&#xc8;" horiz-adv-x="1107" d="M193 317q0 -72 29.5 -132t83.5 -103t131 -67.5t169 -24.5q113 0 210 26.5t169 70.5t113 102.5t41 121.5q0 115 -133 115q-53 0 -94.5 -33t-59.5 -61.5t-21 -32.5q18 -6 32 -19.5t14 -48.5q0 -53 -42 -80.5t-141 -27.5q-57 0 -101 18.5t-75 50t-46 73.5t-15 91q0 53 12 92 t29 72q29 -4 71.5 -8t98.5 -4q133 0 256 54t218 137t151.5 181.5t56.5 188.5q0 88 -51.5 145.5t-182.5 57.5q-96 0 -178 -25.5t-142.5 -68.5t-94 -98.5t-33.5 -112.5q0 -49 9 -76t15 -43q-37 -6 -81 -26.5t-89 -48.5t-85 -57.5t-66 -56.5q-29 16 -48.5 50t-19.5 71 q0 57 31 83t78 26q18 0 44.5 -8.5t35.5 -14.5q14 16 28.5 41t14.5 51q0 43 -34 76t-85 33q-43 0 -83 -18.5t-71 -52t-50 -81t-19 -102.5q0 -72 27.5 -130t82.5 -89q-47 -47 -78.5 -116t-31.5 -161zM535 580q12 18 37.5 45.5t56 56.5t63.5 54.5t62 39.5l26 -17q27 -17 84 -18 q47 0 85 18.5t38 57.5q0 35 -48 47.5t-105 12.5q0 57 28.5 112t72.5 99.5t99.5 71t110.5 26.5q53 0 88 -36t35 -97q0 -72 -51.5 -156t-134.5 -156.5t-186 -122t-208 -49.5q-47 0 -87.5 3.5t-65.5 7.5zM1036 1524q0 -23 23 -45q12 -12 32.5 -26.5t43 -30t46 -30t40.5 -24.5 q8 -6 14 -6q10 0 10 10q0 6 -6 19q-10 16 -24.5 39.5t-30 47t-28.5 43t-21 27.5q-25 27 -52 27q-23 0 -35 -16.5t-12 -34.5z" />
<glyph unicode="&#xc9;" horiz-adv-x="1107" d="M193 317q0 -72 29.5 -132t83.5 -103t131 -67.5t169 -24.5q113 0 210 26.5t169 70.5t113 102.5t41 121.5q0 115 -133 115q-53 0 -94.5 -33t-59.5 -61.5t-21 -32.5q18 -6 32 -19.5t14 -48.5q0 -53 -42 -80.5t-141 -27.5q-57 0 -101 18.5t-75 50t-46 73.5t-15 91q0 53 12 92 t29 72q29 -4 71.5 -8t98.5 -4q133 0 256 54t218 137t151.5 181.5t56.5 188.5q0 88 -51.5 145.5t-182.5 57.5q-96 0 -178 -25.5t-142.5 -68.5t-94 -98.5t-33.5 -112.5q0 -49 9 -76t15 -43q-37 -6 -81 -26.5t-89 -48.5t-85 -57.5t-66 -56.5q-29 16 -48.5 50t-19.5 71 q0 57 31 83t78 26q18 0 44.5 -8.5t35.5 -14.5q14 16 28.5 41t14.5 51q0 43 -34 76t-85 33q-43 0 -83 -18.5t-71 -52t-50 -81t-19 -102.5q0 -72 27.5 -130t82.5 -89q-47 -47 -78.5 -116t-31.5 -161zM535 580q12 18 37.5 45.5t56 56.5t63.5 54.5t62 39.5l26 -17q27 -17 84 -18 q47 0 85 18.5t38 57.5q0 35 -48 47.5t-105 12.5q0 57 28.5 112t72.5 99.5t99.5 71t110.5 26.5q53 0 88 -36t35 -97q0 -72 -51.5 -156t-134.5 -156.5t-186 -122t-208 -49.5q-47 0 -87.5 3.5t-65.5 7.5zM1145 1380q0 -10 10 -10q6 0 19 6q16 8 41.5 22.5t52 30t50 30 t36.5 24.5q27 25 26 47q0 23 -15 36t-32 13q-23 0 -49 -20q-10 -6 -26.5 -27t-37 -45.5t-39 -50t-30.5 -41.5q-6 -11 -6 -15z" />
<glyph unicode="&#xca;" horiz-adv-x="1107" d="M193 317q0 -72 29.5 -132t83.5 -103t131 -67.5t169 -24.5q113 0 210 26.5t169 70.5t113 102.5t41 121.5q0 115 -133 115q-53 0 -94.5 -33t-59.5 -61.5t-21 -32.5q18 -6 32 -19.5t14 -48.5q0 -53 -42 -80.5t-141 -27.5q-57 0 -101 18.5t-75 50t-46 73.5t-15 91q0 53 12 92 t29 72q29 -4 71.5 -8t98.5 -4q133 0 256 54t218 137t151.5 181.5t56.5 188.5q0 88 -51.5 145.5t-182.5 57.5q-96 0 -178 -25.5t-142.5 -68.5t-94 -98.5t-33.5 -112.5q0 -49 9 -76t15 -43q-37 -6 -81 -26.5t-89 -48.5t-85 -57.5t-66 -56.5q-29 16 -48.5 50t-19.5 71 q0 57 31 83t78 26q18 0 44.5 -8.5t35.5 -14.5q14 16 28.5 41t14.5 51q0 43 -34 76t-85 33q-43 0 -83 -18.5t-71 -52t-50 -81t-19 -102.5q0 -72 27.5 -130t82.5 -89q-47 -47 -78.5 -116t-31.5 -161zM535 580q12 18 37.5 45.5t56 56.5t63.5 54.5t62 39.5l26 -17q27 -17 84 -18 q47 0 85 18.5t38 57.5q0 35 -48 47.5t-105 12.5q0 57 28.5 112t72.5 99.5t99.5 71t110.5 26.5q53 0 88 -36t35 -97q0 -72 -51.5 -156t-134.5 -156.5t-186 -122t-208 -49.5q-47 0 -87.5 3.5t-65.5 7.5zM985 1350q0 -16 16 -17q10 0 27 10q12 8 34.5 24.5t47.5 32t45.5 27 t28.5 11.5q4 0 17 -12.5t29 -27.5l31 -31q15 -15 21 -24q16 -16 27 -16q6 0 10 4q8 8 8 15q0 4 -6 14q-10 16 -28.5 45t-38 57.5t-35 49t-21.5 20.5q-8 0 -34.5 -20.5t-59.5 -48t-63.5 -55.5t-45.5 -42q-10 -8 -10 -16z" />
<glyph unicode="&#xcb;" horiz-adv-x="1107" d="M193 317q0 -72 29.5 -132t83.5 -103t131 -67.5t169 -24.5q113 0 210 26.5t169 70.5t113 102.5t41 121.5q0 115 -133 115q-53 0 -94.5 -33t-59.5 -61.5t-21 -32.5q18 -6 32 -19.5t14 -48.5q0 -53 -42 -80.5t-141 -27.5q-57 0 -101 18.5t-75 50t-46 73.5t-15 91q0 53 12 92 t29 72q29 -4 71.5 -8t98.5 -4q133 0 256 54t218 137t151.5 181.5t56.5 188.5q0 88 -51.5 145.5t-182.5 57.5q-96 0 -178 -25.5t-142.5 -68.5t-94 -98.5t-33.5 -112.5q0 -49 9 -76t15 -43q-37 -6 -81 -26.5t-89 -48.5t-85 -57.5t-66 -56.5q-29 16 -48.5 50t-19.5 71 q0 57 31 83t78 26q18 0 44.5 -8.5t35.5 -14.5q14 16 28.5 41t14.5 51q0 43 -34 76t-85 33q-43 0 -83 -18.5t-71 -52t-50 -81t-19 -102.5q0 -72 27.5 -130t82.5 -89q-47 -47 -78.5 -116t-31.5 -161zM535 580q12 18 37.5 45.5t56 56.5t63.5 54.5t62 39.5l26 -17q27 -17 84 -18 q47 0 85 18.5t38 57.5q0 35 -48 47.5t-105 12.5q0 57 28.5 112t72.5 99.5t99.5 71t110.5 26.5q53 0 88 -36t35 -97q0 -72 -51.5 -156t-134.5 -156.5t-186 -122t-208 -49.5q-47 0 -87.5 3.5t-65.5 7.5zM950 1417q0 -33 20.5 -55.5t59.5 -22.5q49 0 79 32t30 79 q0 33 -21.5 55.5t-56.5 22.5q-47 0 -79 -32t-32 -79zM1217 1417q0 -33 20 -55.5t59 -22.5q49 0 79 32t30 79q0 33 -21.5 55.5t-56.5 22.5q-47 0 -78.5 -32t-31.5 -79z" />
<glyph unicode="&#xcc;" horiz-adv-x="1054" d="M63 158q0 -86 62.5 -141.5t167.5 -55.5q106 0 199.5 36t175.5 97.5t152.5 144.5t133.5 179q55 0 114.5 25.5t108 63.5t80 84t31.5 87q0 25 -20 24q-16 0 -25 -20q-14 -35 -40.5 -65.5t-58.5 -53t-67 -36t-63 -13.5q45 88 109.5 196.5t142 215t166 200t180.5 150.5 q6 2 6 6t-6 4q-225 0 -432 -40t-366 -115.5t-254 -184t-95 -246.5q0 -66 23.5 -113.5t60.5 -81.5t79 -54.5t79 -28.5q-53 -61 -126 -105.5t-149 -44.5q-39 0 -54.5 15.5t-15.5 38.5q0 16 11 41q-137 0 -223.5 -53.5t-86.5 -155.5zM676 707q0 66 50 145.5t143.5 153 t223.5 129t289 73.5q-147 -84 -289.5 -262t-301.5 -418q-53 16 -84 54.5t-31 124.5zM1286 1524q0 -23 23 -45q12 -12 32.5 -26.5t43 -30t46 -30t39.5 -24.5q8 -6 15 -6q10 0 10 10q0 6 -6 19q-10 16 -24.5 39.5t-30 47t-28.5 43t-22 27.5q-25 27 -51 27q-23 0 -35 -16.5 t-12 -34.5z" />
<glyph unicode="&#xcd;" horiz-adv-x="1054" d="M63 158q0 -86 62.5 -141.5t167.5 -55.5q106 0 199.5 36t175.5 97.5t152.5 144.5t133.5 179q55 0 114.5 25.5t108 63.5t80 84t31.5 87q0 25 -20 24q-16 0 -25 -20q-14 -35 -40.5 -65.5t-58.5 -53t-67 -36t-63 -13.5q45 88 109.5 196.5t142 215t166 200t180.5 150.5 q6 2 6 6t-6 4q-225 0 -432 -40t-366 -115.5t-254 -184t-95 -246.5q0 -66 23.5 -113.5t60.5 -81.5t79 -54.5t79 -28.5q-53 -61 -126 -105.5t-149 -44.5q-39 0 -54.5 15.5t-15.5 38.5q0 16 11 41q-137 0 -223.5 -53.5t-86.5 -155.5zM676 707q0 66 50 145.5t143.5 153 t223.5 129t289 73.5q-147 -84 -289.5 -262t-301.5 -418q-53 16 -84 54.5t-31 124.5zM1407 1380q0 -10 10 -10q6 0 19 6q16 8 41.5 22.5t52 30t50.5 30t36 24.5q27 25 26 47q0 23 -15 36t-32 13q-23 0 -49 -20q-10 -6 -26.5 -27t-37 -45.5t-39 -50t-30.5 -41.5q-6 -11 -6 -15 z" />
<glyph unicode="&#xce;" horiz-adv-x="1054" d="M63 158q0 -86 62.5 -141.5t167.5 -55.5q106 0 199.5 36t175.5 97.5t152.5 144.5t133.5 179q55 0 114.5 25.5t108 63.5t80 84t31.5 87q0 25 -20 24q-16 0 -25 -20q-14 -35 -40.5 -65.5t-58.5 -53t-67 -36t-63 -13.5q45 88 109.5 196.5t142 215t166 200t180.5 150.5 q6 2 6 6t-6 4q-225 0 -432 -40t-366 -115.5t-254 -184t-95 -246.5q0 -66 23.5 -113.5t60.5 -81.5t79 -54.5t79 -28.5q-53 -61 -126 -105.5t-149 -44.5q-39 0 -54.5 15.5t-15.5 38.5q0 16 11 41q-137 0 -223.5 -53.5t-86.5 -155.5zM676 707q0 66 50 145.5t143.5 153 t223.5 129t289 73.5q-147 -84 -289.5 -262t-301.5 -418q-53 16 -84 54.5t-31 124.5zM1280 1350q0 -16 16 -17q10 0 27 10q12 8 34.5 24.5t47.5 32t45 27t29 11.5q4 0 17 -12.5t29 -27.5l30 -31q15 -15 22 -24q16 -16 27 -16q6 0 10 4q8 8 8 15q0 4 -6 14q-10 16 -28.5 45 t-38 57.5t-35 49t-21.5 20.5q-8 0 -34.5 -20.5t-59.5 -48t-63.5 -55.5t-45.5 -42q-10 -8 -10 -16z" />
<glyph unicode="&#xcf;" horiz-adv-x="1054" d="M63 158q0 -86 62.5 -141.5t167.5 -55.5q106 0 199.5 36t175.5 97.5t152.5 144.5t133.5 179q55 0 114.5 25.5t108 63.5t80 84t31.5 87q0 25 -20 24q-16 0 -25 -20q-14 -35 -40.5 -65.5t-58.5 -53t-67 -36t-63 -13.5q45 88 109.5 196.5t142 215t166 200t180.5 150.5 q6 2 6 6t-6 4q-225 0 -432 -40t-366 -115.5t-254 -184t-95 -246.5q0 -66 23.5 -113.5t60.5 -81.5t79 -54.5t79 -28.5q-53 -61 -126 -105.5t-149 -44.5q-39 0 -54.5 15.5t-15.5 38.5q0 16 11 41q-137 0 -223.5 -53.5t-86.5 -155.5zM676 707q0 66 50 145.5t143.5 153 t223.5 129t289 73.5q-147 -84 -289.5 -262t-301.5 -418q-53 16 -84 54.5t-31 124.5zM1266 1415q0 -33 20.5 -55.5t59.5 -22.5q49 0 78.5 32t29.5 79q0 33 -21.5 55.5t-56.5 22.5q-47 0 -78.5 -32t-31.5 -79zM1532 1415q0 -33 20.5 -55.5t59.5 -22.5q49 0 78.5 32t29.5 79 q0 33 -21.5 55.5t-56.5 22.5q-47 0 -78.5 -32t-31.5 -79z" />
<glyph unicode="&#xd0;" horiz-adv-x="1560" d="M139 178q0 -96 65.5 -146t168.5 -50q53 0 90 6t63.5 15t47 21.5t38.5 24.5q47 -29 109.5 -46t130.5 -17q88 0 186.5 32.5t193.5 91t182 141.5t153.5 182t105.5 212t39 234q0 55 -6 97t-18.5 75.5t-30 60.5t-39.5 53q27 23 58.5 44.5t78.5 35.5q10 4 10 15q0 12 -10 12 h-14q-39 -4 -79 -17.5t-87 -44.5q-70 59 -163 87t-226 28q-139 0 -270.5 -41t-233.5 -107.5t-164.5 -152.5t-62.5 -176q0 -104 56 -176t159 -72q70 0 120 23.5t81.5 60.5t47 80t15.5 80q-14 -14 -28.5 -20.5t-37.5 -6.5q-29 0 -54.5 27.5t-25.5 81.5q0 51 40 104t106.5 96 t150.5 70t172 27q82 0 139.5 -19.5t92.5 -50.5q-35 -23 -89 -70t-113.5 -105t-116 -121.5t-95.5 -119.5q-16 -23 -30.5 -45t-28.5 -43q-59 0 -98 -13t-62 -24q-14 -6 -19.5 -17t-2 -19.5t14.5 -11.5t30 3q23 10 46 11.5t46 1.5q-47 -76 -84 -132.5t-80 -105.5 q-59 29 -136 59.5t-173 30.5q-74 0 -138.5 -19.5t-113.5 -54t-78 -81t-29 -99.5zM276 135q0 72 84 72q20 0 43 -10.5t44.5 -25.5t43 -32.5t37.5 -29.5q-31 -20 -62.5 -30.5t-72.5 -10.5q-37 0 -77 18t-40 49zM905 295q45 37 101.5 97.5t121.5 152.5q10 0 19.5 -1t15.5 -1 q53 0 93 13t65 28q14 8 19.5 18t2 18.5t-12.5 12.5t-21 -2q-16 -10 -39 -12.5t-45 -2.5q-23 0 -43 7q33 51 77 117.5t93 135t101 132t99 110.5q27 -31 46.5 -78t19.5 -120q0 -123 -62.5 -241t-154.5 -211t-197.5 -149.5t-193.5 -56.5q-41 0 -64 11.5t-41 21.5z" />
<glyph unicode="&#xd1;" horiz-adv-x="1230" d="M61 0h308l313 438q23 -6 47.5 -7t50.5 -1q29 0 41.5 10.5t12.5 22.5q0 23 -31 22q-20 0 -42 3.5t-36 7.5l266 356q20 27 55 64.5t74 72.5t77 58.5t67 23.5q35 0 50 -23.5t15 -46.5q0 -35 -22.5 -77.5t-57.5 -90t-77 -97.5t-82 -99q-47 -57 -108.5 -127t-116 -138.5 t-92.5 -132t-38 -108.5q0 -70 37 -110.5t109 -40.5q45 0 99 26.5t101 69.5t80 96t33 107q-25 -18 -47 -19q-47 0 -47 51q0 29 19.5 60.5t51 68.5t71.5 81t81 97q86 111 137 213.5t51 194.5q0 61 -40.5 104.5t-122.5 43.5q-92 0 -160 -33t-115 -80q12 31 12 69q0 31 -11 61 t-33.5 53.5t-58.5 38.5t-87 15q-98 0 -183 -45t-148.5 -118.5t-99.5 -165.5t-36 -187q0 -72 17.5 -135t60.5 -108zM500 774q0 76 28.5 147.5t77.5 126t112.5 87t133.5 32.5q37 0 57.5 -17t20.5 -42q0 -23 -17.5 -53.5t-38.5 -57.5l-321 -397q-29 35 -41 82t-12 92z M1188 1368q0 -10 8 -10t16 10q10 14 33 36.5t51 22.5q29 0 50.5 -14t46.5 -35q23 -18 48 -24t56 -6q51 0 92 35.5t60 70.5q4 12 4 16q0 12 -8 13q-8 0 -17 -10q-16 -23 -45 -42.5t-61 -19.5q-23 0 -43.5 13.5t-36.5 27.5q-16 16 -45 24.5t-51 8.5q-47 0 -90.5 -32t-63.5 -73 q-4 -8 -4 -12z" />
<glyph unicode="&#xd2;" horiz-adv-x="1085" d="M190 322q0 -168 80 -252t224 -84q100 0 194 42t177 111.5t151.5 158.5t118 183t76 186.5t26.5 168.5q0 111 -55.5 182.5t-151.5 71.5q-55 0 -93 -17.5t-59.5 -43t-30.5 -54.5t-9 -53q0 -39 11 -65t29.5 -41t42 -21.5t46.5 -8.5v9q0 10 2 29.5t10 39t25.5 33.5t46.5 14 q45 0 64.5 -26.5t19.5 -96.5q0 -84 -48.5 -175t-121 -167.5t-159.5 -127t-165 -50.5q-47 0 -78 17.5t-48 47t-24.5 66.5t-7.5 76q0 76 26 162t70 170t104 160.5t131 134t147.5 92.5t154.5 35q53 0 94 -15.5t64 -46.5q10 -16 29 -16q23 0 22 25q0 25 -17.5 48t-47 41.5 t-67.5 30t-81 11.5q-106 0 -216 -44t-212 -119t-192.5 -173.5t-157 -208t-105.5 -223t-39 -217.5zM995 1524q0 -23 23 -45q12 -12 32.5 -26.5t43 -30t46 -30t40.5 -24.5q8 -6 14 -6q10 0 10 10q0 6 -6 19q-10 16 -24.5 39.5t-30 47t-28.5 43t-21 27.5q-25 27 -52 27 q-23 0 -35 -16.5t-12 -34.5z" />
<glyph unicode="&#xd3;" horiz-adv-x="1085" d="M190 322q0 -168 80 -252t224 -84q100 0 194 42t177 111.5t151.5 158.5t118 183t76 186.5t26.5 168.5q0 111 -55.5 182.5t-151.5 71.5q-55 0 -93 -17.5t-59.5 -43t-30.5 -54.5t-9 -53q0 -39 11 -65t29.5 -41t42 -21.5t46.5 -8.5v9q0 10 2 29.5t10 39t25.5 33.5t46.5 14 q45 0 64.5 -26.5t19.5 -96.5q0 -84 -48.5 -175t-121 -167.5t-159.5 -127t-165 -50.5q-47 0 -78 17.5t-48 47t-24.5 66.5t-7.5 76q0 76 26 162t70 170t104 160.5t131 134t147.5 92.5t154.5 35q53 0 94 -15.5t64 -46.5q10 -16 29 -16q23 0 22 25q0 25 -17.5 48t-47 41.5 t-67.5 30t-81 11.5q-106 0 -216 -44t-212 -119t-192.5 -173.5t-157 -208t-105.5 -223t-39 -217.5zM1092 1380q0 -10 10 -10q6 0 18 6q16 8 42 22.5t52.5 30t50 30t35.5 24.5q27 25 27 47q0 23 -15.5 36t-31.5 13q-23 0 -49 -20q-10 -6 -26.5 -27t-37 -45.5t-39 -50 t-30.5 -41.5q-6 -11 -6 -15z" />
<glyph unicode="&#xd4;" horiz-adv-x="1085" d="M190 322q0 -168 80 -252t224 -84q100 0 194 42t177 111.5t151.5 158.5t118 183t76 186.5t26.5 168.5q0 111 -55.5 182.5t-151.5 71.5q-55 0 -93 -17.5t-59.5 -43t-30.5 -54.5t-9 -53q0 -39 11 -65t29.5 -41t42 -21.5t46.5 -8.5v9q0 10 2 29.5t10 39t25.5 33.5t46.5 14 q45 0 64.5 -26.5t19.5 -96.5q0 -84 -48.5 -175t-121 -167.5t-159.5 -127t-165 -50.5q-47 0 -78 17.5t-48 47t-24.5 66.5t-7.5 76q0 76 26 162t70 170t104 160.5t131 134t147.5 92.5t154.5 35q53 0 94 -15.5t64 -46.5q10 -16 29 -16q23 0 22 25q0 25 -17.5 48t-47 41.5 t-67.5 30t-81 11.5q-106 0 -216 -44t-212 -119t-192.5 -173.5t-157 -208t-105.5 -223t-39 -217.5zM965 1350q0 -16 16 -17q10 0 27 10q12 8 34.5 24.5t47 32t45 27t28.5 11.5q4 0 17.5 -12.5t28.5 -27.5l31 -31q15 -15 22 -24q16 -16 26 -16q6 0 10 4q8 8 9 15q0 4 -7 14 q-10 16 -28.5 45t-38 57.5t-34.5 49t-21 20.5q-8 0 -35 -20.5t-59.5 -48t-63.5 -55.5t-45 -42q-10 -8 -10 -16z" />
<glyph unicode="&#xd5;" horiz-adv-x="1085" d="M190 322q0 -168 80 -252t224 -84q100 0 194 42t177 111.5t151.5 158.5t118 183t76 186.5t26.5 168.5q0 111 -55.5 182.5t-151.5 71.5q-55 0 -93 -17.5t-59.5 -43t-30.5 -54.5t-9 -53q0 -39 11 -65t29.5 -41t42 -21.5t46.5 -8.5v9q0 10 2 29.5t10 39t25.5 33.5t46.5 14 q45 0 64.5 -26.5t19.5 -96.5q0 -84 -48.5 -175t-121 -167.5t-159.5 -127t-165 -50.5q-47 0 -78 17.5t-48 47t-24.5 66.5t-7.5 76q0 76 26 162t70 170t104 160.5t131 134t147.5 92.5t154.5 35q53 0 94 -15.5t64 -46.5q10 -16 29 -16q23 0 22 25q0 25 -17.5 48t-47 41.5 t-67.5 30t-81 11.5q-106 0 -216 -44t-212 -119t-192.5 -173.5t-157 -208t-105.5 -223t-39 -217.5zM979 1368q0 -10 8 -10t17 10q10 14 32.5 36.5t50.5 22.5q29 0 50.5 -14t46.5 -35q23 -18 48 -24t56 -6q51 0 92 35.5t60 70.5q4 12 4 16q0 12 -8 13q-8 0 -17 -10 q-16 -23 -44.5 -42.5t-61.5 -19.5q-23 0 -43.5 13.5t-36.5 27.5q-16 16 -45 24.5t-51 8.5q-47 0 -90 -32t-64 -73q-4 -8 -4 -12z" />
<glyph unicode="&#xd6;" horiz-adv-x="1085" d="M190 322q0 -168 80 -252t224 -84q100 0 194 42t177 111.5t151.5 158.5t118 183t76 186.5t26.5 168.5q0 111 -55.5 182.5t-151.5 71.5q-55 0 -93 -17.5t-59.5 -43t-30.5 -54.5t-9 -53q0 -39 11 -65t29.5 -41t42 -21.5t46.5 -8.5v9q0 10 2 29.5t10 39t25.5 33.5t46.5 14 q45 0 64.5 -26.5t19.5 -96.5q0 -84 -48.5 -175t-121 -167.5t-159.5 -127t-165 -50.5q-47 0 -78 17.5t-48 47t-24.5 66.5t-7.5 76q0 76 26 162t70 170t104 160.5t131 134t147.5 92.5t154.5 35q53 0 94 -15.5t64 -46.5q10 -16 29 -16q23 0 22 25q0 25 -17.5 48t-47 41.5 t-67.5 30t-81 11.5q-106 0 -216 -44t-212 -119t-192.5 -173.5t-157 -208t-105.5 -223t-39 -217.5zM918 1417q0 -33 20 -55.5t59 -22.5q49 0 79 32t30 79q0 33 -21.5 55.5t-56.5 22.5q-47 0 -78.5 -32t-31.5 -79zM1184 1417q0 -33 20.5 -55.5t59.5 -22.5q49 0 78.5 32 t29.5 79q0 33 -21.5 55.5t-56.5 22.5q-47 0 -78.5 -32t-31.5 -79z" />
<glyph unicode="&#xd7;" horiz-adv-x="1155" d="M78 115l98 -99l402 404l403 -404l98 99l-403 403l403 402l-98 98l-403 -404l-402 404l-98 -98l401 -402z" />
<glyph unicode="&#xd8;" horiz-adv-x="1030" d="M98 311q0 -125 41 -212t133 -109q-10 -16 -35.5 -52t-54.5 -81q-18 -31 -18 -50q0 -20 16 -20q23 0 47 37q29 47 55.5 88t43.5 70q160 0 305 79.5t253.5 207.5t173 289t64.5 323q0 66 -12 118t-35 80l80 119q10 -10 16.5 -29.5t12.5 -31.5q4 -8 7 -9.5t7 -1.5q8 0 9 11.5 t1 21.5q0 29 -7 51.5t-17 34.5q16 27 28.5 47.5t34.5 57.5q8 14 8 24q0 25 -22 25q-18 0 -31 -25q-18 -35 -29.5 -54.5t-25.5 -41.5q-16 10 -35.5 15t-69.5 5q-111 0 -223 -39.5t-216.5 -109.5t-197 -164t-161 -204.5t-107.5 -230.5t-39 -239zM319 426q0 76 31 166t83 181 t123 176t150.5 150.5t163.5 105.5t164 40q31 0 50.5 -5t31.5 -13l-76 -113q-16 10 -33.5 15.5t-43.5 5.5q-51 0 -90 -16.5t-66 -43t-40 -58.5t-13 -63q0 -39 18.5 -69.5t58.5 -36.5q-8 16 -8 33q0 25 16.5 46t57.5 21q8 0 15.5 -1t17.5 -3l-494 -717q-61 16 -89 71.5 t-28 127.5zM485 219l484 703q18 -23 26.5 -54.5t8.5 -68.5q0 -106 -49.5 -209t-126 -183.5t-168 -132t-175.5 -55.5z" />
<glyph unicode="&#xd9;" horiz-adv-x="1251" d="M233 195q0 -92 42 -148.5t135 -56.5q55 0 113.5 23.5t112.5 57t98 72.5t71 68q-4 -18 -7 -36.5t-3 -47.5q0 -61 27.5 -100t99.5 -39q45 0 98 27.5t100 71.5t79 97.5t32 102.5q-33 0 -56.5 13t-23.5 42q0 31 16.5 62.5t49.5 78.5l526 764h-170l-645 -809 q-53 -66 -124 -115t-138 -49q-55 0 -78 30t-23 71q0 47 42 115.5t100.5 142.5t121 142.5t101.5 117.5q29 37 61.5 82t63 89t54.5 84t36 64q2 4 2 11q0 18 -22.5 31.5t-45.5 13.5q-14 0 -22 -6q-86 -61 -168 -62q-29 0 -45.5 8.5t-32.5 22.5q-39 33 -96 33q-74 0 -137.5 -29 t-111.5 -74t-74.5 -100t-26.5 -111q0 -43 28 -43q20 0 25 41q2 25 15 55.5t36 57t52.5 45t62.5 18.5q14 0 20 -10t12 -31q8 -23 25.5 -35t52.5 -12q25 0 58.5 7.5t65.5 18.5t59.5 24.5t44.5 25.5q6 4 12 4q4 0 4 -4t-2 -8q-41 -66 -109.5 -136.5t-146.5 -146.5t-158 -154.5 t-143.5 -158.5t-104.5 -158.5t-41 -154.5zM1176 1524q0 -23 22 -45q12 -12 32.5 -26.5t43 -30t46 -30t40.5 -24.5q8 -6 14 -6q10 0 10 10q0 6 -6 19q-10 16 -24.5 39.5t-29.5 47t-28.5 43t-21.5 27.5q-25 27 -51 27q-23 0 -35 -16.5t-12 -34.5z" />
<glyph unicode="&#xda;" horiz-adv-x="1251" d="M233 195q0 -92 42 -148.5t135 -56.5q55 0 113.5 23.5t112.5 57t98 72.5t71 68q-4 -18 -7 -36.5t-3 -47.5q0 -61 27.5 -100t99.5 -39q45 0 98 27.5t100 71.5t79 97.5t32 102.5q-33 0 -56.5 13t-23.5 42q0 31 16.5 62.5t49.5 78.5l526 764h-170l-645 -809 q-53 -66 -124 -115t-138 -49q-55 0 -78 30t-23 71q0 47 42 115.5t100.5 142.5t121 142.5t101.5 117.5q29 37 61.5 82t63 89t54.5 84t36 64q2 4 2 11q0 18 -22.5 31.5t-45.5 13.5q-14 0 -22 -6q-86 -61 -168 -62q-29 0 -45.5 8.5t-32.5 22.5q-39 33 -96 33q-74 0 -137.5 -29 t-111.5 -74t-74.5 -100t-26.5 -111q0 -43 28 -43q20 0 25 41q2 25 15 55.5t36 57t52.5 45t62.5 18.5q14 0 20 -10t12 -31q8 -23 25.5 -35t52.5 -12q25 0 58.5 7.5t65.5 18.5t59.5 24.5t44.5 25.5q6 4 12 4q4 0 4 -4t-2 -8q-41 -66 -109.5 -136.5t-146.5 -146.5t-158 -154.5 t-143.5 -158.5t-104.5 -158.5t-41 -154.5zM1378 1380q0 -10 11 -10q6 0 18 6q16 8 42 22.5t52.5 30t50 30t35.5 24.5q27 25 27 47q0 23 -15.5 36t-31.5 13q-23 0 -49 -20q-10 -6 -26.5 -27t-37 -45.5t-39 -50t-31.5 -41.5q-6 -11 -6 -15z" />
<glyph unicode="&#xdb;" horiz-adv-x="1251" d="M233 195q0 -92 42 -148.5t135 -56.5q55 0 113.5 23.5t112.5 57t98 72.5t71 68q-4 -18 -7 -36.5t-3 -47.5q0 -61 27.5 -100t99.5 -39q45 0 98 27.5t100 71.5t79 97.5t32 102.5q-33 0 -56.5 13t-23.5 42q0 31 16.5 62.5t49.5 78.5l526 764h-170l-645 -809 q-53 -66 -124 -115t-138 -49q-55 0 -78 30t-23 71q0 47 42 115.5t100.5 142.5t121 142.5t101.5 117.5q29 37 61.5 82t63 89t54.5 84t36 64q2 4 2 11q0 18 -22.5 31.5t-45.5 13.5q-14 0 -22 -6q-86 -61 -168 -62q-29 0 -45.5 8.5t-32.5 22.5q-39 33 -96 33q-74 0 -137.5 -29 t-111.5 -74t-74.5 -100t-26.5 -111q0 -43 28 -43q20 0 25 41q2 25 15 55.5t36 57t52.5 45t62.5 18.5q14 0 20 -10t12 -31q8 -23 25.5 -35t52.5 -12q25 0 58.5 7.5t65.5 18.5t59.5 24.5t44.5 25.5q6 4 12 4q4 0 4 -4t-2 -8q-41 -66 -109.5 -136.5t-146.5 -146.5t-158 -154.5 t-143.5 -158.5t-104.5 -158.5t-41 -154.5zM1214 1350q0 -16 17 -17q10 0 26 10q12 8 35 24.5t47.5 32t45 27t28.5 11.5q4 0 17.5 -12.5t28.5 -27.5l31 -31q15 -15 21 -24q16 -16 27 -16q6 0 10 4q8 8 8 15q0 4 -6 14q-10 16 -28.5 45t-38 57.5t-34.5 49t-22 20.5 q-8 0 -34.5 -20.5t-59.5 -48t-63.5 -55.5t-44.5 -42q-11 -8 -11 -16z" />
<glyph unicode="&#xdc;" horiz-adv-x="1251" d="M233 195q0 -92 42 -148.5t135 -56.5q55 0 113.5 23.5t112.5 57t98 72.5t71 68q-4 -18 -7 -36.5t-3 -47.5q0 -61 27.5 -100t99.5 -39q45 0 98 27.5t100 71.5t79 97.5t32 102.5q-33 0 -56.5 13t-23.5 42q0 31 16.5 62.5t49.5 78.5l526 764h-170l-645 -809 q-53 -66 -124 -115t-138 -49q-55 0 -78 30t-23 71q0 47 42 115.5t100.5 142.5t121 142.5t101.5 117.5q29 37 61.5 82t63 89t54.5 84t36 64q2 4 2 11q0 18 -22.5 31.5t-45.5 13.5q-14 0 -22 -6q-86 -61 -168 -62q-29 0 -45.5 8.5t-32.5 22.5q-39 33 -96 33q-74 0 -137.5 -29 t-111.5 -74t-74.5 -100t-26.5 -111q0 -43 28 -43q20 0 25 41q2 25 15 55.5t36 57t52.5 45t62.5 18.5q14 0 20 -10t12 -31q8 -23 25.5 -35t52.5 -12q25 0 58.5 7.5t65.5 18.5t59.5 24.5t44.5 25.5q6 4 12 4q4 0 4 -4t-2 -8q-41 -66 -109.5 -136.5t-146.5 -146.5t-158 -154.5 t-143.5 -158.5t-104.5 -158.5t-41 -154.5zM1176 1417q0 -33 20.5 -55.5t58.5 -22.5q49 0 79 32t30 79q0 33 -21.5 55.5t-56.5 22.5q-47 0 -78.5 -32t-31.5 -79zM1442 1417q0 -33 20.5 -55.5t59.5 -22.5q49 0 78.5 32t29.5 79q0 33 -21.5 55.5t-56.5 22.5q-47 0 -78.5 -32 t-31.5 -79z" />
<glyph unicode="&#xdd;" horiz-adv-x="1134" d="M66 195q0 -96 75.5 -159t216.5 -63q119 0 218.5 26t181.5 72t148.5 108.5t121.5 135.5l709 932h-189l-340 -395q-41 -49 -77.5 -81t-73.5 -50.5t-74 -26.5t-80 -8q-47 0 -74.5 29.5t-27.5 72.5q0 61 54 119t138 123q49 41 93 91t85 106q8 10 9 20q0 14 -27 26.5t-49 12.5 q-14 0 -23 -6q-27 -23 -60.5 -39t-55.5 -16q-23 0 -37.5 10t-32.5 22q-23 16 -55.5 28.5t-67.5 12.5q-57 0 -101 -27.5t-73 -65.5t-44 -74.5t-15 -55.5q0 -18 16 -18q14 0 23 20q16 33 38.5 54.5t53.5 21.5q23 0 34 -13.5t27.5 -29.5t38 -27.5t53.5 -11.5q31 0 49 8l19 8 q-57 -53 -119.5 -99t-114 -93t-85 -97t-33.5 -114q0 -70 48 -117t140 -47q80 0 165 29t150 72q-45 -70 -110.5 -139.5t-143 -126t-162.5 -91.5t-165 -35q-51 0 -71.5 18.5t-20.5 47.5q0 12 10 27.5t18.5 24.5t10.5 11q-20 20 -52 40t-77 20q-47 0 -87 -17.5t-68 -48 t-43 -71.5t-15 -86zM1360 1380q0 -10 10 -10q6 0 19 6q16 8 41.5 22.5t52 30t50 30t36.5 24.5q27 25 26 47q0 23 -15 36t-32 13q-23 0 -49 -20q-10 -6 -26.5 -27t-37 -45.5t-39 -50t-30.5 -41.5q-6 -11 -6 -15z" />
<glyph unicode="&#xde;" horiz-adv-x="1353" d="M51 162q0 -72 52.5 -125t144.5 -53q129 0 213 30.5t141 79.5t96 110.5t76 123.5q29 -8 68 -17.5t90 -9.5q90 0 174 29.5t148.5 87t103.5 141.5t39 191q0 92 -36 147t-67 78q37 39 88.5 83t100.5 83t89 66.5t56 33.5q12 6 12 16q0 20 -20 21q-10 0 -21 -4 q-10 -2 -54 -28.5t-100 -64.5t-113.5 -82t-94.5 -81q-47 29 -132 55.5t-190 26.5q-150 0 -258 -38t-178.5 -95.5t-104.5 -126t-34 -129.5q0 -74 43 -114t102 -40q39 0 78 12.5t67.5 34t47 49t18.5 56.5q0 39 -6 51q-12 -12 -39 -12q-29 0 -49 17t-20 40q0 49 24.5 91 t68.5 72.5t104.5 48t133.5 17.5q29 0 64 -5t67.5 -15t61.5 -23.5t47 -27.5q-68 -51 -133.5 -106.5t-130 -121t-130 -144.5t-130.5 -175q-43 -10 -97.5 -32t-89.5 -56q-12 -12 -12 -15q0 -2 4 -2t10 2q35 16 66 21.5t59 7.5q-4 -4 -18 -15.5t-36.5 -22.5t-50.5 -19.5 t-54 -8.5q-29 0 -46.5 19.5t-17.5 46.5q0 18 10 39q-61 0 -116.5 -10.5t-97.5 -36t-66.5 -67.5t-24.5 -105zM834 430q27 53 73.5 119.5t102 133.5t110 127t97.5 103q55 -53 55 -149q0 -70 -27.5 -131.5t-73 -108.5t-103.5 -74.5t-120 -27.5q-31 0 -61 3t-53 5z" />
<glyph unicode="&#xdf;" horiz-adv-x="993" d="M-571 -453q0 -53 35.5 -85.5t95.5 -32.5q47 0 102 18t109.5 52t105.5 81t88 105q18 27 38 59.5t39 66t37.5 65.5t31.5 56q104 49 197 119t175 147.5t154 153.5t133 137q4 -18 7 -44.5t3 -59.5q0 -147 -42 -227t-101 -80q-23 0 -27 16q16 12 17 31q0 16 -14.5 29.5 t-32.5 13.5q-25 0 -48.5 -22.5t-23.5 -63.5q0 -49 45 -74.5t125 -25.5q57 0 106.5 25.5t92.5 64.5t79.5 83t67.5 81q8 10 8 22q0 18 -20 18q-10 0 -17 -8q-27 -35 -50 -58.5t-40 -37.5q6 18 11.5 38.5t5.5 49.5q0 45 -11.5 84t-28 73t-36 61.5t-35.5 47.5q27 12 48.5 29.5 t21.5 48.5q0 20 -14.5 35.5t-35.5 15.5q-66 0 -65 -106q-63 -63 -138 -141t-155 -154t-162 -142.5t-157 -107.5l323 561q92 39 175 87t145.5 102.5t99.5 115t37 123.5q0 47 -28.5 73t-80.5 26q-78 0 -166 -75t-186 -212q-39 -55 -79 -117.5t-81 -130.5q-31 -25 -73.5 -60.5 t-86.5 -76.5t-86 -83t-73 -77q-8 -8 -8 -20q0 -20 16 -21q12 0 21 8l58 59l62 62q31 31 60.5 57.5t52.5 43.5q-27 -35 -73 -109t-94 -152.5t-87 -146.5t-51 -88q-248 -92 -385 -186.5t-137 -219.5zM-434 -350q0 25 30.5 54.5t79 60t109.5 60.5t123 56q-27 -47 -60.5 -96 t-73.5 -89t-82 -65.5t-83 -25.5q-43 0 -43 45zM514 639q104 178 185 265t128 87q23 0 23 -39q0 -37 -26.5 -77.5t-72.5 -81.5t-106.5 -81t-130.5 -73z" />
<glyph unicode="&#xe0;" horiz-adv-x="800" d="M-23 229q0 -20 21 -20q6 0 16 6q12 10 22.5 23.5t18.5 23.5q-8 -20 -15 -53t-7 -68q0 -29 6 -55.5t20.5 -48t39 -34.5t61.5 -13q39 0 73.5 13t64.5 33.5t53.5 45t39.5 45.5q-6 -18 -6 -37q0 -47 30.5 -76.5t92.5 -29.5q51 0 99 27.5t88 66.5t73 80t55 67q8 8 8 21 q0 23 -18 22q-10 0 -18 -10q-20 -25 -49 -53.5t-58 -54t-55.5 -42t-42.5 -16.5q-29 0 -29 31q0 35 42 93t89 124q37 53 65.5 100t33.5 76v12q0 35 -19.5 54.5t-48.5 19.5q-20 0 -42 -11t-38 -40l-20 -31l-13 -18q0 23 -30.5 48t-94.5 25q-104 0 -186 -41.5t-154 -119.5 q-4 -4 -20 -21.5t-40 -40t-49.5 -49.5t-45.5 -49q-13 -13 -13 -25zM225 190q0 37 27 95.5t66.5 112t85 92t83.5 38.5q53 0 70.5 -29.5t17.5 -54.5l-120 -182q-33 -49 -82 -94t-105 -45q-43 -1 -43 67zM352 848q0 -23 23 -45q12 -12 32.5 -26.5t43 -30t46 -30t40.5 -24.5 q8 -6 14 -6q10 0 10 10q0 6 -6 19q-10 16 -24.5 39.5t-30 47t-28.5 43t-21 27.5q-25 27 -52 27q-23 0 -35 -16.5t-12 -34.5z" />
<glyph unicode="&#xe1;" horiz-adv-x="800" d="M-23 229q0 -20 21 -20q6 0 16 6q12 10 22.5 23.5t18.5 23.5q-8 -20 -15 -53t-7 -68q0 -29 6 -55.5t20.5 -48t39 -34.5t61.5 -13q39 0 73.5 13t64.5 33.5t53.5 45t39.5 45.5q-6 -18 -6 -37q0 -47 30.5 -76.5t92.5 -29.5q51 0 99 27.5t88 66.5t73 80t55 67q8 8 8 21 q0 23 -18 22q-10 0 -18 -10q-20 -25 -49 -53.5t-58 -54t-55.5 -42t-42.5 -16.5q-29 0 -29 31q0 35 42 93t89 124q37 53 65.5 100t33.5 76v12q0 35 -19.5 54.5t-48.5 19.5q-20 0 -42 -11t-38 -40l-20 -31l-13 -18q0 23 -30.5 48t-94.5 25q-104 0 -186 -41.5t-154 -119.5 q-4 -4 -20 -21.5t-40 -40t-49.5 -49.5t-45.5 -49q-13 -13 -13 -25zM225 190q0 37 27 95.5t66.5 112t85 92t83.5 38.5q53 0 70.5 -29.5t17.5 -54.5l-120 -182q-33 -49 -82 -94t-105 -45q-43 -1 -43 67zM516 705q0 -10 10 -11q2 0 15 4q18 8 43.5 23.5t53.5 31t51.5 30 t35.5 24.5q27 25 27 47q0 25 -14.5 37t-32.5 12q-23 0 -50 -20q-10 -6 -26.5 -26.5t-37 -45.5t-38.5 -50.5t-31 -41.5q-6 -10 -6 -14z" />
<glyph unicode="&#xe2;" horiz-adv-x="800" d="M-23 229q0 -20 21 -20q6 0 16 6q12 10 22.5 23.5t18.5 23.5q-8 -20 -15 -53t-7 -68q0 -29 6 -55.5t20.5 -48t39 -34.5t61.5 -13q39 0 73.5 13t64.5 33.5t53.5 45t39.5 45.5q-6 -18 -6 -37q0 -47 30.5 -76.5t92.5 -29.5q51 0 99 27.5t88 66.5t73 80t55 67q8 8 8 21 q0 23 -18 22q-10 0 -18 -10q-20 -25 -49 -53.5t-58 -54t-55.5 -42t-42.5 -16.5q-29 0 -29 31q0 35 42 93t89 124q37 53 65.5 100t33.5 76v12q0 35 -19.5 54.5t-48.5 19.5q-20 0 -42 -11t-38 -40l-20 -31l-13 -18q0 23 -30.5 48t-94.5 25q-104 0 -186 -41.5t-154 -119.5 q-4 -4 -20 -21.5t-40 -40t-49.5 -49.5t-45.5 -49q-13 -13 -13 -25zM225 190q0 37 27 95.5t66.5 112t85 92t83.5 38.5q53 0 70.5 -29.5t17.5 -54.5l-120 -182q-33 -49 -82 -94t-105 -45q-43 -1 -43 67zM401 715q0 -16 17 -17q10 0 26 11q12 8 35 24.5t47.5 31.5t45 26.5 t28.5 11.5q4 0 17.5 -12.5t28.5 -27.5l31 -31q15 -15 21 -23q6 -6 13.5 -11.5t13.5 -5.5t10 4q8 8 8 15q0 4 -6 14q-10 16 -28.5 45t-38 57.5t-34.5 49t-22 20.5q-8 0 -34.5 -20.5t-59.5 -48t-63.5 -55.5t-44.5 -42q-11 -8 -11 -16z" />
<glyph unicode="&#xe3;" horiz-adv-x="800" d="M-23 229q0 -20 21 -20q6 0 16 6q12 10 22.5 23.5t18.5 23.5q-8 -20 -15 -53t-7 -68q0 -29 6 -55.5t20.5 -48t39 -34.5t61.5 -13q39 0 73.5 13t64.5 33.5t53.5 45t39.5 45.5q-6 -18 -6 -37q0 -47 30.5 -76.5t92.5 -29.5q51 0 99 27.5t88 66.5t73 80t55 67q8 8 8 21 q0 23 -18 22q-10 0 -18 -10q-20 -25 -49 -53.5t-58 -54t-55.5 -42t-42.5 -16.5q-29 0 -29 31q0 35 42 93t89 124q37 53 65.5 100t33.5 76v12q0 35 -19.5 54.5t-48.5 19.5q-20 0 -42 -11t-38 -40l-20 -31l-13 -18q0 23 -30.5 48t-94.5 25q-104 0 -186 -41.5t-154 -119.5 q-4 -4 -20 -21.5t-40 -40t-49.5 -49.5t-45.5 -49q-13 -13 -13 -25zM225 190q0 37 27 95.5t66.5 112t85 92t83.5 38.5q53 0 70.5 -29.5t17.5 -54.5l-120 -182q-33 -49 -82 -94t-105 -45q-43 -1 -43 67zM362 721q0 -10 9 -10q8 0 16 10q10 14 32.5 36.5t51.5 22.5t50.5 -14 t45.5 -35q23 -18 48.5 -24.5t56.5 -6.5q51 0 92 36t59 71q4 12 4 16q0 12 -8 13q-8 0 -16 -11q-16 -23 -45 -42t-62 -19q-23 0 -43 13.5t-37 27.5q-16 16 -44.5 24.5t-51.5 8.5q-47 0 -90 -32t-63 -73q-5 -8 -5 -12z" />
<glyph unicode="&#xe4;" horiz-adv-x="800" d="M-23 229q0 -20 21 -20q6 0 16 6q12 10 22.5 23.5t18.5 23.5q-8 -20 -15 -53t-7 -68q0 -29 6 -55.5t20.5 -48t39 -34.5t61.5 -13q39 0 73.5 13t64.5 33.5t53.5 45t39.5 45.5q-6 -18 -6 -37q0 -47 30.5 -76.5t92.5 -29.5q51 0 99 27.5t88 66.5t73 80t55 67q8 8 8 21 q0 23 -18 22q-10 0 -18 -10q-20 -25 -49 -53.5t-58 -54t-55.5 -42t-42.5 -16.5q-29 0 -29 31q0 35 42 93t89 124q37 53 65.5 100t33.5 76v12q0 35 -19.5 54.5t-48.5 19.5q-20 0 -42 -11t-38 -40l-20 -31l-13 -18q0 23 -30.5 48t-94.5 25q-104 0 -186 -41.5t-154 -119.5 q-4 -4 -20 -21.5t-40 -40t-49.5 -49.5t-45.5 -49q-13 -13 -13 -25zM225 190q0 37 27 95.5t66.5 112t85 92t83.5 38.5q53 0 70.5 -29.5t17.5 -54.5l-120 -182q-33 -49 -82 -94t-105 -45q-43 -1 -43 67zM336 770q0 -33 20.5 -55.5t59.5 -22.5q49 0 78.5 32t29.5 79 q0 33 -21.5 55.5t-56.5 22.5q-47 0 -78.5 -32t-31.5 -79zM602 770q0 -33 20.5 -55.5t59.5 -22.5q49 0 79 32t30 79q0 33 -21.5 55.5t-56.5 22.5q-47 0 -79 -32t-32 -79z" />
<glyph unicode="&#xe5;" horiz-adv-x="800" d="M-23 229q0 -20 21 -20q6 0 16 6q12 10 22.5 23.5t18.5 23.5q-8 -20 -15 -53t-7 -68q0 -29 6 -55.5t20.5 -48t39 -34.5t61.5 -13q39 0 73.5 13t64.5 33.5t53.5 45t39.5 45.5q-6 -18 -6 -37q0 -47 30.5 -76.5t92.5 -29.5q51 0 99 27.5t88 66.5t73 80t55 67q8 8 8 21 q0 23 -18 22q-10 0 -18 -10q-20 -25 -49 -53.5t-58 -54t-55.5 -42t-42.5 -16.5q-29 0 -29 31q0 35 42 93t89 124q37 53 65.5 100t33.5 76v12q0 35 -19.5 54.5t-48.5 19.5q-20 0 -42 -11t-38 -40l-20 -31l-13 -18q0 23 -30.5 48t-94.5 25q-104 0 -186 -41.5t-154 -119.5 q-4 -4 -20 -21.5t-40 -40t-49.5 -49.5t-45.5 -49q-13 -13 -13 -25zM225 190q0 37 27 95.5t66.5 112t85 92t83.5 38.5q53 0 70.5 -29.5t17.5 -54.5l-120 -182q-33 -49 -82 -94t-105 -45q-43 -1 -43 67zM444 770q0 -47 29 -79t88 -32q39 0 72 14.5t54.5 37t33.5 50t12 54.5 q0 43 -27.5 75t-89.5 32q-41 0 -73.5 -14.5t-54 -36t-33 -49t-11.5 -52.5zM485 770q0 41 33 78t92 37q41 0 61.5 -19.5t20.5 -50.5q0 -37 -32.5 -77t-92.5 -40q-45 0 -63.5 21.5t-18.5 50.5z" />
<glyph unicode="&#xe6;" horiz-adv-x="985" d="M-12 141q0 -70 34.5 -110.5t96.5 -40.5q45 0 87 17.5t76.5 41t62.5 49t44 41.5q16 -92 82 -122.5t176 -30.5q74 0 134.5 31.5t106.5 72.5t77.5 81t46.5 56q10 14 10 23q0 20 -18 20q-8 0 -19 -10q-16 -20 -46 -52t-66.5 -61.5t-78.5 -51t-87 -21.5q-51 0 -74 27.5 t-23 72.5t21 90q80 4 145.5 27.5t113.5 56.5t74.5 71t26.5 73q0 39 -32.5 63.5t-92.5 24.5q-47 0 -95 -12.5t-89 -30.5l20 32h-92l-41 -67q-8 27 -40.5 50t-96.5 23q-86 0 -166 -39.5t-141.5 -102t-99 -140.5t-37.5 -152zM180 182q0 45 29 105.5t72 115t91 92t85 37.5 q39 0 58.5 -25.5t19.5 -57.5l-125 -209q-10 -10 -30 -31t-44.5 -40t-52 -33.5t-56.5 -14.5q-47 0 -47 61zM651 303q23 41 50.5 82t58.5 75t61.5 54.5t57.5 20.5q29 0 43 -16.5t14 -37.5q0 -29 -24.5 -59.5t-64.5 -56t-91.5 -43t-104.5 -19.5z" />
<glyph unicode="&#xe7;" horiz-adv-x="604" d="M-20 231q0 -8 5 -14t12 -7t15 5t15.5 14.5t15.5 18.5q-2 -12 -3 -23.5t-1 -27.5q0 -66 35 -122.5t106 -76.5l-22 -72q29 -16 30.5 -43.5t-14.5 -48.5q-16 -23 -49 -29t-74 23q-14 10 -21 -3t3 -22q70 -53 131 -41.5t90 52.5q20 29 17 62.5t-42 57.5l19 54q72 0 129 22.5 t102 58t82 77.5t70 83q10 12 9 22.5t-7 16.5t-15.5 5t-15.5 -9q-72 -86 -135.5 -118.5t-142.5 -32.5q-51 0 -75 31.5t-24 70.5t27 93t64.5 105.5t81.5 87.5t81 36q16 0 26.5 -5.5t16.5 -11.5q-27 6 -47 -9t-20 -48q0 -25 16 -43.5t47 -18.5q39 0 58.5 26t19.5 62 q0 35 -35 59.5t-98 24.5q-41 0 -90 -10t-98.5 -33.5t-95.5 -62.5t-81 -94q-18 -20 -51 -56t-59 -67q-8 -11 -8 -19z" />
<glyph unicode="&#xe8;" horiz-adv-x="604" d="M-23 229q0 -10 6.5 -16t12.5 -6q10 0 16 6q10 10 18.5 20.5t18.5 20.5l-2 -11q-2 -11 -2 -26q0 -45 12.5 -87t38 -73.5t65.5 -51t95 -19.5q63 0 118.5 22.5t101.5 58t84 79.5t71 85q8 10 8 23q0 20 -16 20q-8 0 -17 -8q-66 -72 -134.5 -116t-162.5 -44q-41 0 -60.5 26 t-19.5 61t15 63q86 4 153.5 27.5t113.5 56.5t70.5 73t24.5 79q0 41 -31.5 64.5t-82.5 23.5q-70 0 -130.5 -18.5t-109.5 -48.5t-88 -68.5t-66 -77.5l-19 -20q-17 -17 -45 -46t-48 -51q-9 -9 -9 -21zM266 303q18 33 46 73t58.5 74.5t63.5 57t64 22.5q23 0 37 -12t14 -31 q0 -27 -20.5 -57.5t-57.5 -56t-89.5 -45t-115.5 -25.5zM317 848q0 -23 23 -45q12 -12 32.5 -26.5t43 -30t46 -30t40.5 -24.5q8 -6 14 -6q10 0 10 10q0 6 -6 19q-10 16 -24.5 39.5t-29.5 47t-28.5 43t-21.5 27.5q-25 27 -51 27q-23 0 -35.5 -16.5t-12.5 -34.5z" />
<glyph unicode="&#xe9;" horiz-adv-x="604" d="M-23 229q0 -10 6.5 -16t12.5 -6q10 0 16 6q10 10 18.5 20.5t18.5 20.5l-2 -11q-2 -11 -2 -26q0 -45 12.5 -87t38 -73.5t65.5 -51t95 -19.5q63 0 118.5 22.5t101.5 58t84 79.5t71 85q8 10 8 23q0 20 -16 20q-8 0 -17 -8q-66 -72 -134.5 -116t-162.5 -44q-41 0 -60.5 26 t-19.5 61t15 63q86 4 153.5 27.5t113.5 56.5t70.5 73t24.5 79q0 41 -31.5 64.5t-82.5 23.5q-70 0 -130.5 -18.5t-109.5 -48.5t-88 -68.5t-66 -77.5l-19 -20q-17 -17 -45 -46t-48 -51q-9 -9 -9 -21zM266 303q18 33 46 73t58.5 74.5t63.5 57t64 22.5q23 0 37 -12t14 -31 q0 -27 -20.5 -57.5t-57.5 -56t-89.5 -45t-115.5 -25.5zM477 705q0 -10 10 -11q2 0 15 4q18 8 43.5 23.5t53.5 31t51.5 30t35.5 24.5q27 25 27 47q0 25 -14.5 37t-32.5 12q-23 0 -50 -20q-10 -6 -26.5 -26.5t-37 -45.5t-38.5 -50.5t-31 -41.5q-6 -10 -6 -14z" />
<glyph unicode="&#xea;" horiz-adv-x="604" d="M-23 229q0 -10 6.5 -16t12.5 -6q10 0 16 6q10 10 18.5 20.5t18.5 20.5l-2 -11q-2 -11 -2 -26q0 -45 12.5 -87t38 -73.5t65.5 -51t95 -19.5q63 0 118.5 22.5t101.5 58t84 79.5t71 85q8 10 8 23q0 20 -16 20q-8 0 -17 -8q-66 -72 -134.5 -116t-162.5 -44q-41 0 -60.5 26 t-19.5 61t15 63q86 4 153.5 27.5t113.5 56.5t70.5 73t24.5 79q0 41 -31.5 64.5t-82.5 23.5q-70 0 -130.5 -18.5t-109.5 -48.5t-88 -68.5t-66 -77.5l-19 -20q-17 -17 -45 -46t-48 -51q-9 -9 -9 -21zM266 303q18 33 46 73t58.5 74.5t63.5 57t64 22.5q23 0 37 -12t14 -31 q0 -27 -20.5 -57.5t-57.5 -56t-89.5 -45t-115.5 -25.5zM338 715q0 -16 16 -17q10 0 27 11q12 8 34.5 24.5t47 31.5t45 26.5t29.5 11.5q4 0 17 -12.5t29 -27.5l30 -31q15 -15 22 -23q6 -6 13 -11.5t14 -5.5q6 0 10 4q8 8 8 15q0 4 -6 14q-10 16 -28.5 45t-38 57.5t-35 49 t-21.5 20.5q-8 0 -35 -20.5t-59.5 -48t-63.5 -55.5t-45 -42q-10 -8 -10 -16z" />
<glyph unicode="&#xeb;" horiz-adv-x="604" d="M-23 229q0 -10 6.5 -16t12.5 -6q10 0 16 6q10 10 18.5 20.5t18.5 20.5l-2 -11q-2 -11 -2 -26q0 -45 12.5 -87t38 -73.5t65.5 -51t95 -19.5q63 0 118.5 22.5t101.5 58t84 79.5t71 85q8 10 8 23q0 20 -16 20q-8 0 -17 -8q-66 -72 -134.5 -116t-162.5 -44q-41 0 -60.5 26 t-19.5 61t15 63q86 4 153.5 27.5t113.5 56.5t70.5 73t24.5 79q0 41 -31.5 64.5t-82.5 23.5q-70 0 -130.5 -18.5t-109.5 -48.5t-88 -68.5t-66 -77.5l-19 -20q-17 -17 -45 -46t-48 -51q-9 -9 -9 -21zM264 770q0 -33 20.5 -55.5t59.5 -22.5q49 0 79 32t30 79q0 33 -21.5 55.5 t-56.5 22.5q-47 0 -79 -32t-32 -79zM266 303q18 33 46 73t58.5 74.5t63.5 57t64 22.5q23 0 37 -12t14 -31q0 -27 -20.5 -57.5t-57.5 -56t-89.5 -45t-115.5 -25.5zM530 770q0 -33 20.5 -55.5t59.5 -22.5q49 0 79 32t30 79q0 33 -21.5 55.5t-56.5 22.5q-47 0 -79 -32t-32 -79z " />
<glyph unicode="&#xec;" horiz-adv-x="460" d="M-18 233q0 -20 18 -20q10 0 25 14q18 20 43.5 46t42 41.5t18.5 17.5q-43 -53 -64.5 -103.5t-21.5 -89.5q0 -63 34 -107t95 -44q53 0 101.5 29.5t90.5 69.5t75.5 83t56.5 68q10 14 10 22q0 20 -23 21q-10 0 -16 -9q-25 -29 -53.5 -59.5t-59 -58t-59.5 -45t-49 -17.5 q-31 0 -31 41q0 23 13.5 51.5t33.5 59.5l217 325h-194q-27 -29 -104 -111.5t-185 -197.5q-14 -15 -14 -27zM242 848q0 -23 22 -45q12 -12 32.5 -26.5t43 -30t46.5 -30t40 -24.5q8 -6 14 -6q10 0 11 10q0 6 -7 19q-10 16 -24 39.5t-29.5 47t-29 43t-21.5 27.5q-25 27 -51 27 q-23 0 -35 -16.5t-12 -34.5z" />
<glyph unicode="&#xed;" horiz-adv-x="460" d="M-18 233q0 -20 18 -20q10 0 25 14q18 20 43.5 46t42 41.5t18.5 17.5q-43 -53 -64.5 -103.5t-21.5 -89.5q0 -63 34 -107t95 -44q53 0 101.5 29.5t90.5 69.5t75.5 83t56.5 68q10 14 10 22q0 20 -23 21q-10 0 -16 -9q-25 -29 -53.5 -59.5t-59 -58t-59.5 -45t-49 -17.5 q-31 0 -31 41q0 23 13.5 51.5t33.5 59.5l217 325h-194q-27 -29 -104 -111.5t-185 -197.5q-14 -15 -14 -27zM383 705q0 -10 10 -11q2 0 15 4q18 8 43.5 23.5t53 31t51.5 30t36 24.5q27 25 26 47q0 25 -14 37t-33 12q-23 0 -49 -20q-10 -6 -26.5 -26.5t-37 -45.5t-39 -50.5 t-30.5 -41.5q-6 -10 -6 -14z" />
<glyph unicode="&#xee;" horiz-adv-x="460" d="M-18 233q0 -20 18 -20q10 0 25 14q18 20 43.5 46t42 41.5t18.5 17.5q-43 -53 -64.5 -103.5t-21.5 -89.5q0 -63 34 -107t95 -44q53 0 101.5 29.5t90.5 69.5t75.5 83t56.5 68q10 14 10 22q0 20 -23 21q-10 0 -16 -9q-25 -29 -53.5 -59.5t-59 -58t-59.5 -45t-49 -17.5 q-31 0 -31 41q0 23 13.5 51.5t33.5 59.5l217 325h-194q-27 -29 -104 -111.5t-185 -197.5q-14 -15 -14 -27zM276 715q0 -16 17 -17q10 0 26 11q12 8 35 24.5t47.5 31.5t45 26.5t28.5 11.5q4 0 17.5 -12.5t28.5 -27.5l31 -31q15 -15 21 -23q6 -6 13.5 -11.5t13.5 -5.5t10 4 q8 8 8 15q0 4 -6 14q-10 16 -28.5 45t-38 57.5t-34.5 49t-22 20.5q-8 0 -34.5 -20.5t-59.5 -48t-63.5 -55.5t-44.5 -42q-11 -8 -11 -16z" />
<glyph unicode="&#xef;" horiz-adv-x="460" d="M-18 233q0 -20 18 -20q10 0 25 14q18 20 43.5 46t42 41.5t18.5 17.5q-43 -53 -64.5 -103.5t-21.5 -89.5q0 -63 34 -107t95 -44q53 0 101.5 29.5t90.5 69.5t75.5 83t56.5 68q10 14 10 22q0 20 -23 21q-10 0 -16 -9q-25 -29 -53.5 -59.5t-59 -58t-59.5 -45t-49 -17.5 q-31 0 -31 41q0 23 13.5 51.5t33.5 59.5l217 325h-194q-27 -29 -104 -111.5t-185 -197.5q-14 -15 -14 -27zM221 770q0 -33 20.5 -55.5t59.5 -22.5q49 0 79 32t30 79q0 33 -21.5 55.5t-56.5 22.5q-47 0 -79 -32t-32 -79zM487 770q0 -33 20.5 -55.5t59.5 -22.5q49 0 79 32 t30 79q0 33 -21.5 55.5t-56.5 22.5q-47 0 -79 -32t-32 -79z" />
<glyph unicode="&#xf0;" d="M-20 229q0 -18 18 -18q10 0 16 6q8 8 19.5 20.5t17.5 22.5q-2 -10 -4 -26.5t-2 -32.5q0 -104 49 -159.5t129 -55.5q47 0 87 16t69 37.5t48 41t26 28.5q66 12 117 49t89 86q10 12 11 22q0 20 -21 21q-12 0 -20 -11q-29 -31 -53.5 -53t-65.5 -37q14 16 29.5 46t29 66 t22.5 75t9 76v14v2q6 27 19.5 80t21.5 114.5t7 124t-23 111.5q23 10 44 19.5t40 19.5q14 6 17 14t3 15q0 8 -10 13t-25 5q-10 0 -38.5 -11.5t-63.5 -27.5q-33 31 -70 54.5t-76.5 37t-78.5 13.5t-74 -17q-10 -4 -17.5 -11t-7.5 -24q0 -6 8.5 -12t14.5 -10q27 -14 59 -15h70 q35 0 68.5 -6t60.5 -30q-31 -14 -59.5 -27.5t-49.5 -24.5q-8 -4 -15 -10t-7 -12q0 -10 6 -16.5t29 -6.5q12 0 47 14.5t78 32.5q10 -29 13 -69.5t0 -84.5t-10.5 -87t-17.5 -80q-29 29 -84 29q-113 0 -215 -56.5t-170 -154.5q-23 -25 -51.5 -56.5t-52.5 -58.5q-10 -11 -10 -25 zM233 186q0 51 26 109.5t62.5 109t80.5 83t81 32.5q35 0 48.5 -19.5t13.5 -51.5q0 -29 -7.5 -63t-18.5 -65.5t-24.5 -59.5t-25.5 -46q-6 8 -16.5 14.5t-24.5 6.5q-18 0 -29.5 -18.5t-11.5 -37.5q0 -27 12 -41q-18 -16 -40.5 -27.5t-61.5 -11.5q-29 0 -46.5 23.5t-17.5 62.5z " />
<glyph unicode="&#xf1;" horiz-adv-x="944" d="M-20 229q0 -23 20 -22q8 0 18 10q14 14 56.5 60.5t92.5 95.5t99 87t78 38q18 0 18 -27q0 -12 -16 -44t-41.5 -76t-57.5 -95t-62.5 -99t-58.5 -89t-44 -68h172l199 309q23 27 56.5 59.5t69 61.5t68.5 47.5t55 18.5q18 0 19 -29q0 -27 -44 -91.5t-97 -146.5 q-43 -68 -43 -123q0 -57 35.5 -87.5t95.5 -30.5q43 0 90 29.5t89 70.5t76.5 83t53.5 67q8 10 8 22q0 20 -20 21q-10 0 -17 -9q-18 -20 -47 -51t-58.5 -59.5t-59 -49t-50.5 -20.5q-27 0 -26 31q0 29 20.5 63.5t63.5 87.5q41 49 59 98.5t18 88.5q0 53 -27.5 82.5t-82.5 29.5 q-39 0 -83 -22.5t-81 -49t-62 -48.5l-24 -23q6 12 6 33q0 18 -7 37.5t-21.5 36t-37 27.5t-51.5 11q-33 0 -72.5 -21.5t-82.5 -53t-84 -70.5t-76 -75t-59.5 -63.5t-32.5 -37.5q-10 -15 -10 -25zM426 721q0 -10 8 -10t17 10q10 14 32.5 36.5t51.5 22.5t50 -14t46 -35 q23 -18 48.5 -24.5t55.5 -6.5q51 0 92 36t60 71q4 12 4 16q0 12 -8 13q-8 0 -17 -11q-16 -23 -44.5 -42t-61.5 -19q-23 0 -43.5 13.5t-36.5 27.5q-16 16 -45 24.5t-51 8.5q-47 0 -90 -32t-64 -73q-4 -8 -4 -12z" />
<glyph unicode="&#xf2;" d="M-20 229q0 -18 18 -18q10 0 16 6q8 8 19.5 20.5t17.5 22.5q-2 -10 -4 -26.5t-2 -32.5q0 -104 49 -159.5t129 -55.5q47 0 87 16t69 37.5t48 41t26 28.5q66 12 117 49t89 86q10 12 11 22q0 20 -21 21q-12 0 -20 -11q-29 -31 -53.5 -53t-65.5 -37q14 16 29.5 46t29 66 t22.5 75t9 76q0 53 -26.5 92t-94.5 39q-113 0 -215 -56.5t-170 -154.5q-23 -25 -51.5 -56.5t-52.5 -58.5q-10 -11 -10 -25zM233 186q0 51 26 109.5t62.5 109t80.5 83t81 32.5q35 0 48.5 -19.5t13.5 -51.5q0 -29 -7.5 -63t-18.5 -65.5t-24.5 -59.5t-25.5 -46q-6 8 -16.5 14.5 t-24.5 6.5q-18 0 -29.5 -18.5t-11.5 -37.5q0 -27 12 -41q-18 -16 -40.5 -27.5t-61.5 -11.5q-29 0 -46.5 23.5t-17.5 62.5zM352 848q0 -23 23 -45q12 -12 32.5 -26.5t43 -30t46 -30t40.5 -24.5q8 -6 14 -6q10 0 10 10q0 6 -6 19q-10 16 -24.5 39.5t-30 47t-28.5 43t-21 27.5 q-25 27 -52 27q-23 0 -35 -16.5t-12 -34.5z" />
<glyph unicode="&#xf3;" d="M-20 229q0 -18 18 -18q10 0 16 6q8 8 19.5 20.5t17.5 22.5q-2 -10 -4 -26.5t-2 -32.5q0 -104 49 -159.5t129 -55.5q47 0 87 16t69 37.5t48 41t26 28.5q66 12 117 49t89 86q10 12 11 22q0 20 -21 21q-12 0 -20 -11q-29 -31 -53.5 -53t-65.5 -37q14 16 29.5 46t29 66 t22.5 75t9 76q0 53 -26.5 92t-94.5 39q-113 0 -215 -56.5t-170 -154.5q-23 -25 -51.5 -56.5t-52.5 -58.5q-10 -11 -10 -25zM233 186q0 51 26 109.5t62.5 109t80.5 83t81 32.5q35 0 48.5 -19.5t13.5 -51.5q0 -29 -7.5 -63t-18.5 -65.5t-24.5 -59.5t-25.5 -46q-6 8 -16.5 14.5 t-24.5 6.5q-18 0 -29.5 -18.5t-11.5 -37.5q0 -27 12 -41q-18 -16 -40.5 -27.5t-61.5 -11.5q-29 0 -46.5 23.5t-17.5 62.5zM494 705q0 -10 10 -11q2 0 14 4q18 8 44 23.5t53.5 31t51 30t35.5 24.5q27 25 27 47q0 25 -14.5 37t-32.5 12q-23 0 -49 -20q-10 -6 -26.5 -26.5 t-37 -45.5t-39 -50.5t-30.5 -41.5q-6 -10 -6 -14z" />
<glyph unicode="&#xf4;" d="M-20 229q0 -18 18 -18q10 0 16 6q8 8 19.5 20.5t17.5 22.5q-2 -10 -4 -26.5t-2 -32.5q0 -104 49 -159.5t129 -55.5q47 0 87 16t69 37.5t48 41t26 28.5q66 12 117 49t89 86q10 12 11 22q0 20 -21 21q-12 0 -20 -11q-29 -31 -53.5 -53t-65.5 -37q14 16 29.5 46t29 66 t22.5 75t9 76q0 53 -26.5 92t-94.5 39q-113 0 -215 -56.5t-170 -154.5q-23 -25 -51.5 -56.5t-52.5 -58.5q-10 -11 -10 -25zM233 186q0 51 26 109.5t62.5 109t80.5 83t81 32.5q35 0 48.5 -19.5t13.5 -51.5q0 -29 -7.5 -63t-18.5 -65.5t-24.5 -59.5t-25.5 -46q-6 8 -16.5 14.5 t-24.5 6.5q-18 0 -29.5 -18.5t-11.5 -37.5q0 -27 12 -41q-18 -16 -40.5 -27.5t-61.5 -11.5q-29 0 -46.5 23.5t-17.5 62.5zM338 715q0 -16 16 -17q10 0 27 11q12 8 34.5 24.5t47 31.5t45 26.5t29.5 11.5q4 0 17 -12.5t29 -27.5l30 -31q15 -15 22 -23q6 -6 13 -11.5t14 -5.5 q6 0 10 4q8 8 8 15q0 4 -6 14q-10 16 -28.5 45t-38 57.5t-35 49t-21.5 20.5q-8 0 -35 -20.5t-59.5 -48t-63.5 -55.5t-45 -42q-10 -8 -10 -16z" />
<glyph unicode="&#xf5;" d="M-20 229q0 -18 18 -18q10 0 16 6q8 8 19.5 20.5t17.5 22.5q-2 -10 -4 -26.5t-2 -32.5q0 -104 49 -159.5t129 -55.5q47 0 87 16t69 37.5t48 41t26 28.5q66 12 117 49t89 86q10 12 11 22q0 20 -21 21q-12 0 -20 -11q-29 -31 -53.5 -53t-65.5 -37q14 16 29.5 46t29 66 t22.5 75t9 76q0 53 -26.5 92t-94.5 39q-113 0 -215 -56.5t-170 -154.5q-23 -25 -51.5 -56.5t-52.5 -58.5q-10 -11 -10 -25zM233 186q0 51 26 109.5t62.5 109t80.5 83t81 32.5q35 0 48.5 -19.5t13.5 -51.5q0 -29 -7.5 -63t-18.5 -65.5t-24.5 -59.5t-25.5 -46q-6 8 -16.5 14.5 t-24.5 6.5q-18 0 -29.5 -18.5t-11.5 -37.5q0 -27 12 -41q-18 -16 -40.5 -27.5t-61.5 -11.5q-29 0 -46.5 23.5t-17.5 62.5zM295 721q0 -10 8 -10t16 10q10 14 33 36.5t51 22.5q29 0 50.5 -14t46.5 -35q23 -18 48 -24.5t56 -6.5q51 0 92 36t60 71q4 12 4 16q0 12 -8 13 q-8 0 -17 -11q-16 -23 -44.5 -42t-61.5 -19q-23 0 -43.5 13.5t-36.5 27.5q-16 16 -45 24.5t-51 8.5q-47 0 -90.5 -32t-63.5 -73q-4 -8 -4 -12z" />
<glyph unicode="&#xf6;" d="M-20 229q0 -18 18 -18q10 0 16 6q8 8 19.5 20.5t17.5 22.5q-2 -10 -4 -26.5t-2 -32.5q0 -104 49 -159.5t129 -55.5q47 0 87 16t69 37.5t48 41t26 28.5q66 12 117 49t89 86q10 12 11 22q0 20 -21 21q-12 0 -20 -11q-29 -31 -53.5 -53t-65.5 -37q14 16 29.5 46t29 66 t22.5 75t9 76q0 53 -26.5 92t-94.5 39q-113 0 -215 -56.5t-170 -154.5q-23 -25 -51.5 -56.5t-52.5 -58.5q-10 -11 -10 -25zM233 186q0 51 26 109.5t62.5 109t80.5 83t81 32.5q35 0 48.5 -19.5t13.5 -51.5q0 -29 -7.5 -63t-18.5 -65.5t-24.5 -59.5t-25.5 -46q-6 8 -16.5 14.5 t-24.5 6.5q-18 0 -29.5 -18.5t-11.5 -37.5q0 -27 12 -41q-18 -16 -40.5 -27.5t-61.5 -11.5q-29 0 -46.5 23.5t-17.5 62.5zM307 770q0 -33 20.5 -55.5t59.5 -22.5q49 0 79 32t30 79q0 33 -21.5 55.5t-56.5 22.5q-47 0 -79 -32t-32 -79zM573 770q0 -33 20.5 -55.5t59.5 -22.5 q49 0 79 32t30 79q0 33 -21.5 55.5t-56.5 22.5q-47 0 -79 -32t-32 -79z" />
<glyph unicode="&#xf8;" d="M-20 229q0 -18 18 -18q10 0 16 6q8 8 19.5 20.5t17.5 22.5q-6 -25 -6 -59q0 -66 22.5 -111t61.5 -74q-12 -18 -29.5 -41.5t-38.5 -54.5q-16 -25 -16 -41t16 -16q23 0 39.5 28.5t34 55t33.5 49.5q31 -10 59 -10q43 0 82 16t69 37.5t49 42t26 27.5q41 6 98 35.5t111 103.5 q8 10 8 20q0 20 -19 21q-14 0 -22 -13q-55 -68 -84 -79t-35 -11q18 25 34.5 59t29 69.5t19.5 71.5t7 65q0 23 -4 39t-8 28q16 23 35.5 51.5t44.5 75.5q6 12 6 21q0 18 -19 18q-6 0 -14 -5t-12 -15q-23 -43 -37 -63.5t-31 -47.5q-20 27 -82 27q-106 0 -211.5 -56.5 t-173.5 -154.5q-23 -25 -51.5 -56.5t-52.5 -58.5q-10 -11 -10 -25zM233 190q0 49 26 106.5t62.5 107t80.5 83t81 33.5q20 0 29.5 -5t15.5 -9q-33 -41 -75.5 -94.5t-85.5 -104.5t-78 -93t-51 -60q-5 20 -5 36zM260 113q18 20 57 67t82 100.5t84 102.5t62 78q2 -6 2 -17 q0 -25 -7.5 -56.5t-18.5 -63t-25.5 -60t-26.5 -49.5q-8 8 -16.5 13t-22.5 5q-20 0 -31.5 -16t-11.5 -37q0 -12 4 -22.5t8 -18.5q-43 -39 -92 -39q-35 1 -47 13z" />
<glyph unicode="&#xf9;" horiz-adv-x="813" d="M-16 236q0 -20 20 -21q10 0 19 8q12 14 32 35l41 41l35 35l14 14q-29 -39 -60.5 -94t-31.5 -127q0 -66 33 -104.5t98 -38.5q35 0 70 16t65.5 39.5t56 51.5t42.5 50l-5 -19q-5 -19 -5 -46q0 -39 29.5 -65.5t90.5 -26.5q43 0 87 26.5t87 66.5t81 84t67 79q10 10 10 22 q0 23 -20 23q-10 0 -19 -11q-25 -31 -55.5 -62.5t-60 -57t-56 -43t-45.5 -17.5q-29 0 -29 33q0 31 41 98l218 344h-177l-143 -225q-29 -47 -63.5 -91t-68.5 -80t-65.5 -57.5t-56.5 -21.5q-23 0 -36 11.5t-13 37.5q0 41 37 99l213 327h-187q-16 -16 -89.5 -104t-192.5 -209 q-8 -8 -8 -20zM385 848q0 -23 23 -45q12 -12 32.5 -26.5t43 -30t46 -30t39.5 -24.5q8 -6 15 -6q10 0 10 10q0 6 -6 19q-10 16 -24.5 39.5t-30 47t-28.5 43t-22 27.5q-25 27 -51 27q-23 0 -35 -16.5t-12 -34.5z" />
<glyph unicode="&#xfa;" horiz-adv-x="813" d="M-16 236q0 -20 20 -21q10 0 19 8q12 14 32 35l41 41l35 35l14 14q-29 -39 -60.5 -94t-31.5 -127q0 -66 33 -104.5t98 -38.5q35 0 70 16t65.5 39.5t56 51.5t42.5 50l-5 -19q-5 -19 -5 -46q0 -39 29.5 -65.5t90.5 -26.5q43 0 87 26.5t87 66.5t81 84t67 79q10 10 10 22 q0 23 -20 23q-10 0 -19 -11q-25 -31 -55.5 -62.5t-60 -57t-56 -43t-45.5 -17.5q-29 0 -29 33q0 31 41 98l218 344h-177l-143 -225q-29 -47 -63.5 -91t-68.5 -80t-65.5 -57.5t-56.5 -21.5q-23 0 -36 11.5t-13 37.5q0 41 37 99l213 327h-187q-16 -16 -89.5 -104t-192.5 -209 q-8 -8 -8 -20zM578 705q0 -10 10 -11q2 0 14 4q18 8 44 23.5t53.5 31t51 30t35.5 24.5q27 25 27 47q0 25 -14.5 37t-32.5 12q-23 0 -49 -20q-10 -6 -26.5 -26.5t-37 -45.5t-39 -50.5t-30.5 -41.5q-6 -10 -6 -14z" />
<glyph unicode="&#xfb;" horiz-adv-x="813" d="M-16 236q0 -20 20 -21q10 0 19 8q12 14 32 35l41 41l35 35l14 14q-29 -39 -60.5 -94t-31.5 -127q0 -66 33 -104.5t98 -38.5q35 0 70 16t65.5 39.5t56 51.5t42.5 50l-5 -19q-5 -19 -5 -46q0 -39 29.5 -65.5t90.5 -26.5q43 0 87 26.5t87 66.5t81 84t67 79q10 10 10 22 q0 23 -20 23q-10 0 -19 -11q-25 -31 -55.5 -62.5t-60 -57t-56 -43t-45.5 -17.5q-29 0 -29 33q0 31 41 98l218 344h-177l-143 -225q-29 -47 -63.5 -91t-68.5 -80t-65.5 -57.5t-56.5 -21.5q-23 0 -36 11.5t-13 37.5q0 41 37 99l213 327h-187q-16 -16 -89.5 -104t-192.5 -209 q-8 -8 -8 -20zM420 715q0 -16 16 -17q10 0 27 11q12 8 34.5 24.5t47 31.5t45 26.5t28.5 11.5q4 0 17.5 -12.5t29.5 -27.5l30 -31q15 -15 22 -23q6 -6 13 -11.5t13 -5.5t11 4q8 8 8 15q0 4 -6 14q-10 16 -28.5 45t-38 57.5t-35 49t-21.5 20.5q-8 0 -35 -20.5t-59.5 -48 t-63.5 -55.5t-45 -42q-10 -8 -10 -16z" />
<glyph unicode="&#xfc;" horiz-adv-x="813" d="M-16 236q0 -20 20 -21q10 0 19 8q12 14 32 35l41 41l35 35l14 14q-29 -39 -60.5 -94t-31.5 -127q0 -66 33 -104.5t98 -38.5q35 0 70 16t65.5 39.5t56 51.5t42.5 50l-5 -19q-5 -19 -5 -46q0 -39 29.5 -65.5t90.5 -26.5q43 0 87 26.5t87 66.5t81 84t67 79q10 10 10 22 q0 23 -20 23q-10 0 -19 -11q-25 -31 -55.5 -62.5t-60 -57t-56 -43t-45.5 -17.5q-29 0 -29 33q0 31 41 98l218 344h-177l-143 -225q-29 -47 -63.5 -91t-68.5 -80t-65.5 -57.5t-56.5 -21.5q-23 0 -36 11.5t-13 37.5q0 41 37 99l213 327h-187q-16 -16 -89.5 -104t-192.5 -209 q-8 -8 -8 -20zM387 770q0 -33 20.5 -55.5t59.5 -22.5q49 0 78.5 32t29.5 79q0 33 -21.5 55.5t-55.5 22.5q-47 0 -79 -32t-32 -79zM653 770q0 -33 20.5 -55.5t59.5 -22.5q49 0 79 32t30 79q0 33 -21.5 55.5t-56.5 22.5q-47 0 -79 -32t-32 -79z" />
<glyph unicode="&#xfd;" horiz-adv-x="915" d="M-129 -467q0 -47 31.5 -87t117.5 -40q111 0 199 51t141 142q33 53 70 114.5t68.5 114.5t52.5 88l20 35q57 23 110.5 55.5t99.5 69.5t85 73.5t68 69.5q12 14 12 27q0 20 -20 20q-8 0 -17 -8q-68 -78 -145.5 -138.5t-155.5 -107.5l101 160q82 113 138 197t56 131 q0 43 -18.5 62.5t-42.5 19.5q-31 0 -64 -29t-62.5 -72t-56 -91t-45.5 -87q-8 -14 -39.5 -49t-73.5 -72t-87 -64.5t-80 -27.5q-18 0 -26.5 12.5t-8.5 26.5q0 29 28.5 66.5t63.5 83.5q37 47 66.5 98t29.5 96q0 47 -28.5 71.5t-75.5 24.5q-39 0 -95.5 -37.5t-112.5 -89 t-106.5 -104.5t-78.5 -86q-10 -10 -10 -23q0 -18 18 -18q12 0 25 14q27 31 69.5 74t87.5 83t87 68.5t67 28.5q16 0 16 -12q0 -16 -43 -52t-86 -96q-35 -47 -62.5 -105t-27.5 -110q0 -61 36 -89.5t91 -28.5q41 0 81 18.5t76 46t64.5 56t46.5 51.5l-127 -203 q-111 -39 -207 -87t-167.5 -101.5t-112.5 -113t-41 -120.5zM27 -379q0 31 36.5 71t90 81t113 76.5t106.5 54.5l-111 -168q-53 -78 -102 -115t-88 -37q-45 0 -45 37zM602 705q0 -10 10 -11q2 0 15 4q18 8 43.5 23.5t53.5 31t51.5 30t35.5 24.5q27 25 27 47q0 25 -14.5 37 t-32.5 12q-23 0 -50 -20q-10 -6 -26.5 -26.5t-37 -45.5t-38.5 -50.5t-31 -41.5q-6 -10 -6 -14z" />
<glyph unicode="&#xfe;" horiz-adv-x="788" d="M-313 -510q0 -35 17 -57.5t44 -22.5q41 0 84 49t84 116t77 137.5t60 113.5l318 508q16 27 41.5 56.5t55.5 54t60.5 40t57.5 15.5q35 0 35 -43q0 -18 -11.5 -46t-32 -57.5t-48 -59.5t-60.5 -54q-35 -27 -55.5 -64t-20.5 -76q0 -47 28 -81.5t87 -34.5q45 0 89 28.5t86 68.5 t77 82t61 70q10 14 10 23q0 20 -20 20q-10 0 -16 -6q-23 -23 -50.5 -53.5t-57.5 -58t-57.5 -46t-45.5 -18.5q-27 0 -27 27q0 29 39 51q92 55 131 129t39 133t-33 98t-90 39t-97 -25.5t-77 -56.5l242 357q55 70 91 119t36 104q0 47 -21.5 63.5t-42.5 16.5q-25 0 -53.5 -22.5 t-59 -59.5t-63.5 -84t-62.5 -95t-57 -94t-48.5 -81q-55 -63 -115.5 -126t-119 -121t-111.5 -112.5t-94 -99.5q-8 -12 -8 -18q0 -23 20 -23q10 0 21 10q43 47 93 98l92 92q42 42 70 68l27 27q-6 -10 -27.5 -45t-54.5 -87t-73.5 -116.5t-83.5 -135.5t-88.5 -141.5 t-83.5 -134.5q-2 -2 -18.5 -23.5t-39 -55t-49.5 -72.5t-49.5 -79t-36.5 -74t-14 -54z" />
<glyph unicode="&#xff;" horiz-adv-x="915" d="M-129 -467q0 -47 31.5 -87t117.5 -40q111 0 199 51t141 142q33 53 70 114.5t68.5 114.5t52.5 88l20 35q57 23 110.5 55.5t99.5 69.5t85 73.5t68 69.5q12 14 12 27q0 20 -20 20q-8 0 -17 -8q-68 -78 -145.5 -138.5t-155.5 -107.5l101 160q82 113 138 197t56 131 q0 43 -18.5 62.5t-42.5 19.5q-31 0 -64 -29t-62.5 -72t-56 -91t-45.5 -87q-8 -14 -39.5 -49t-73.5 -72t-87 -64.5t-80 -27.5q-18 0 -26.5 12.5t-8.5 26.5q0 29 28.5 66.5t63.5 83.5q37 47 66.5 98t29.5 96q0 47 -28.5 71.5t-75.5 24.5q-39 0 -95.5 -37.5t-112.5 -89 t-106.5 -104.5t-78.5 -86q-10 -10 -10 -23q0 -18 18 -18q12 0 25 14q27 31 69.5 74t87.5 83t87 68.5t67 28.5q16 0 16 -12q0 -16 -43 -52t-86 -96q-35 -47 -62.5 -105t-27.5 -110q0 -61 36 -89.5t91 -28.5q41 0 81 18.5t76 46t64.5 56t46.5 51.5l-127 -203 q-111 -39 -207 -87t-167.5 -101.5t-112.5 -113t-41 -120.5zM27 -379q0 31 36.5 71t90 81t113 76.5t106.5 54.5l-111 -168q-53 -78 -102 -115t-88 -37q-45 0 -45 37zM498 770q0 -33 20.5 -55.5t59.5 -22.5q49 0 78.5 32t29.5 79q0 33 -21.5 55.5t-56.5 22.5q-47 0 -78.5 -32 t-31.5 -79zM764 770q0 -33 20.5 -55.5t59.5 -22.5q49 0 78.5 32t29.5 79q0 33 -21.5 55.5t-56.5 22.5q-47 0 -78.5 -32t-31.5 -79z" />
<glyph unicode="&#x152;" horiz-adv-x="1822" d="M190 340q0 -178 78 -267t224 -89q82 0 150.5 17t124.5 46t101 64.5t82 72.5q94 -207 357 -207q123 0 214 37t150.5 90.5t89 114t29.5 109.5q0 59 -36 97t-105 38q-66 0 -109 -35t-61 -70q45 -4 67.5 -34.5t22.5 -69.5q0 -27 -13.5 -54.5t-38 -49t-60.5 -35t-81 -13.5 q-119 0 -172 67t-53 159q0 63 20.5 120.5t49.5 96.5q35 -4 78.5 -8.5t93.5 -4.5q160 0 280.5 44.5t202.5 115t123 157.5t41 173q0 51 -14.5 97t-44 80t-73.5 53.5t-102 19.5q-96 0 -174 -37t-133 -93.5t-85 -124t-30 -128.5q0 -72 17 -101q-41 -6 -84 -20t-76 -29 q6 29 11 64t5 76q0 49 -9 94t-31.5 79.5t-60.5 56t-93 21.5t-101.5 -20t-80 -53t-52 -77t-18.5 -89q0 -53 20.5 -96t54.5 -80t78 -65.5t93 -49.5q-47 -49 -86 -114.5t-49 -143.5l-54 -40q-29 -22 -65.5 -40t-82.5 -29.5t-106 -11.5q-104 0 -147 54.5t-43 154.5 q0 82 26.5 175t74.5 183.5t115 173t145.5 146t167.5 100.5t184 37q66 0 94.5 -20.5t50.5 -50.5q4 -8 13.5 -13.5t15.5 -5.5q14 0 14 16q0 10 -2 17q-14 49 -59 79.5t-119 30.5q-123 0 -242 -45t-224.5 -120.5t-195.5 -174t-154.5 -205t-101.5 -214t-37 -199.5zM946 866 q0 37 18.5 59.5t55.5 22.5q66 0 94.5 -51t28.5 -113q0 -35 -8.5 -68.5t-22.5 -58.5q-23 12 -50.5 31t-54 44.5t-44 59t-17.5 74.5zM1255 600q33 41 72 76t105 61q20 -16 47.5 -28.5t72.5 -12.5q41 0 69 13.5t28 42.5t-30 44t-65 15q-14 0 -22 -2q0 68 24.5 135.5t65.5 122.5 t95.5 89t113.5 34q66 0 106.5 -46t40.5 -124q0 -80 -36.5 -158t-109.5 -138t-182.5 -97t-254.5 -37q-41 0 -79 3t-61 7z" />
<glyph unicode="&#x153;" horiz-adv-x="985" d="M-10 201q0 -88 48 -151.5t136 -63.5q39 0 78 14t71.5 37.5t59.5 53.5t45 61q23 -66 75 -116t146 -50q70 0 131.5 32.5t109.5 75.5t78.5 83t43.5 54q8 10 8 23q0 18 -16 18q-12 0 -25 -14q-16 -18 -45 -49t-66 -61.5t-81 -52t-89 -21.5q-51 0 -69.5 33.5t-18.5 74.5 q0 23 3 43.5t14 36.5q78 6 143.5 28.5t113.5 55.5t75.5 71t27.5 77q0 37 -30.5 61.5t-79.5 24.5q-59 0 -109.5 -12.5t-91.5 -32t-73 -43t-56 -46.5q0 16 -4 40t-16.5 44.5t-37 35t-65.5 14.5q-76 0 -152.5 -31t-139 -82t-102.5 -120.5t-40 -145.5zM182 186q0 51 24.5 109.5 t61.5 109t81 83t83 32.5q33 0 46.5 -19.5t13.5 -49.5q0 -37 -16.5 -95.5t-49.5 -114t-79 -96.5t-103 -41q-35 0 -48.5 21.5t-13.5 60.5zM647 303q18 33 45 73t57.5 74.5t63.5 59.5t64 25q23 0 38 -13.5t15 -36.5q0 -31 -22.5 -61.5t-61.5 -55t-90.5 -42t-108.5 -23.5z" />
<glyph unicode="&#x178;" horiz-adv-x="1134" d="M66 195q0 -96 75.5 -159t216.5 -63q119 0 218.5 26t181.5 72t148.5 108.5t121.5 135.5l709 932h-189l-340 -395q-41 -49 -77.5 -81t-73.5 -50.5t-74 -26.5t-80 -8q-47 0 -74.5 29.5t-27.5 72.5q0 61 54 119t138 123q49 41 93 91t85 106q8 10 9 20q0 14 -27 26.5t-49 12.5 q-14 0 -23 -6q-27 -23 -60.5 -39t-55.5 -16q-23 0 -37.5 10t-32.5 22q-23 16 -55.5 28.5t-67.5 12.5q-57 0 -101 -27.5t-73 -65.5t-44 -74.5t-15 -55.5q0 -18 16 -18q14 0 23 20q16 33 38.5 54.5t53.5 21.5q23 0 34 -13.5t27.5 -29.5t38 -27.5t53.5 -11.5q31 0 49 8l19 8 q-57 -53 -119.5 -99t-114 -93t-85 -97t-33.5 -114q0 -70 48 -117t140 -47q80 0 165 29t150 72q-45 -70 -110.5 -139.5t-143 -126t-162.5 -91.5t-165 -35q-51 0 -71.5 18.5t-20.5 47.5q0 12 10 27.5t18.5 24.5t10.5 11q-20 20 -52 40t-77 20q-47 0 -87 -17.5t-68 -48 t-43 -71.5t-15 -86zM1196 1417q0 -33 20.5 -55.5t59.5 -22.5q49 0 78.5 32t29.5 79q0 33 -21.5 55.5t-55.5 22.5q-47 0 -79 -32t-32 -79zM1462 1417q0 -33 20.5 -55.5t59.5 -22.5q49 0 79 32t30 79q0 33 -21.5 55.5t-56.5 22.5q-47 0 -79 -32t-32 -79z" />
<glyph unicode="&#x2c6;" horiz-adv-x="440" d="M84 715q0 -16 16 -17q10 0 27 11q12 8 34.5 24.5t47 31.5t45 26.5t29.5 11.5q4 0 17 -12.5t29 -27.5l30 -31q15 -15 22 -23q6 -6 13 -11.5t14 -5.5q6 0 10 4q8 8 8 15q0 4 -6 14q-10 16 -28.5 45t-38 57.5t-35 49t-21.5 20.5q-8 0 -34.5 -20.5t-59.5 -48t-63.5 -55.5 t-45.5 -42q-10 -8 -10 -16z" />
<glyph unicode="&#x2dc;" horiz-adv-x="561" d="M72 721q0 -10 8 -10t16 10q10 14 33 36.5t51 22.5q29 0 50.5 -14t45.5 -35q23 -18 48.5 -24.5t56.5 -6.5q51 0 92 36t59 71q4 12 5 16q0 12 -9 13q-8 0 -16 -11q-16 -23 -45 -42t-61 -19q-23 0 -43.5 13.5t-36.5 27.5q-16 16 -45 24.5t-52 8.5q-47 0 -90 -32t-63 -73 q-4 -8 -4 -12z" />
<glyph unicode="&#x2000;" horiz-adv-x="788" />
<glyph unicode="&#x2001;" horiz-adv-x="1579" />
<glyph unicode="&#x2002;" horiz-adv-x="788" />
<glyph unicode="&#x2003;" horiz-adv-x="1579" />
<glyph unicode="&#x2004;" horiz-adv-x="526" />
<glyph unicode="&#x2005;" horiz-adv-x="393" />
<glyph unicode="&#x2006;" horiz-adv-x="262" />
<glyph unicode="&#x2007;" horiz-adv-x="262" />
<glyph unicode="&#x2008;" horiz-adv-x="196" />
<glyph unicode="&#x2009;" horiz-adv-x="315" />
<glyph unicode="&#x200a;" horiz-adv-x="86" />
<glyph unicode="&#x2010;" horiz-adv-x="659" d="M118 350q3 -8 14 -11t30 3q18 8 37.5 10t38.5 2q29 0 54 -7t58 -15q18 -4 49 -9.5t47 -5.5q53 0 93.5 13.5t64.5 27.5q14 8 19.5 18.5t2.5 18.5t-12.5 12.5t-21.5 -1.5q-16 -10 -39 -12.5t-45 -2.5q-25 0 -52.5 7.5t-62.5 15.5q-29 6 -55.5 8t-50.5 2q-45 0 -85 -13.5 t-63 -23.5q-14 -6 -19 -17.5t-2 -19.5z" />
<glyph unicode="&#x2011;" horiz-adv-x="659" d="M118 350q3 -8 14 -11t30 3q18 8 37.5 10t38.5 2q29 0 54 -7t58 -15q18 -4 49 -9.5t47 -5.5q53 0 93.5 13.5t64.5 27.5q14 8 19.5 18.5t2.5 18.5t-12.5 12.5t-21.5 -1.5q-16 -10 -39 -12.5t-45 -2.5q-25 0 -52.5 7.5t-62.5 15.5q-29 6 -55.5 8t-50.5 2q-45 0 -85 -13.5 t-63 -23.5q-14 -6 -19 -17.5t-2 -19.5z" />
<glyph unicode="&#x2012;" horiz-adv-x="659" d="M118 350q3 -8 14 -11t30 3q18 8 37.5 10t38.5 2q29 0 54 -7t58 -15q18 -4 49 -9.5t47 -5.5q53 0 93.5 13.5t64.5 27.5q14 8 19.5 18.5t2.5 18.5t-12.5 12.5t-21.5 -1.5q-16 -10 -39 -12.5t-45 -2.5q-25 0 -52.5 7.5t-62.5 15.5q-29 6 -55.5 8t-50.5 2q-45 0 -85 -13.5 t-63 -23.5q-14 -6 -19 -17.5t-2 -19.5z" />
<glyph unicode="&#x2013;" horiz-adv-x="917" d="M156 360q0 -23 26 -22q10 0 23 6q31 10 88 10q41 0 80 -3t86 -13q25 -4 59.5 -9t63.5 -5q37 0 74.5 4t71.5 10t59.5 13t39.5 16q20 12 21 24q0 18 -25 19q-10 0 -20 -4q-16 -4 -37 -8.5t-45 -4.5q-41 0 -83 7.5t-101 15.5q-23 4 -53.5 6t-61.5 2q-74 0 -140.5 -11.5 t-95.5 -23.5q-30 -15 -30 -29z" />
<glyph unicode="&#x2014;" horiz-adv-x="1355" d="M201 322q0 -10 8 -16.5t14 -6.5q2 0 15 4q37 16 91 29.5t101 13.5q61 0 113.5 -9t115.5 -26q53 -14 119 -24.5t135 -10.5q45 0 91.5 7.5t85 16.5t66.5 19.5t40 16.5q37 16 37 35q0 12 -8 17t-17 5q-18 0 -32 -6q-12 -4 -34 -9t-46.5 -8t-49 -5.5t-42.5 -2.5 q-51 0 -112 10.5t-116 24.5q-49 12 -112.5 20.5t-124.5 8.5q-127 0 -200 -25.5t-110 -48.5q-28 -16 -28 -30z" />
<glyph unicode="&#x2018;" horiz-adv-x="540" d="M389 1018q0 -29 14.5 -48.5t47.5 -19.5q47 0 66.5 29t19.5 68q0 29 -15 67q-2 4 -2 12q0 20 19.5 49t48 58t61.5 55.5t58 42.5q8 6 8 10q0 2 -4 2t-17 -6q-29 -14 -71.5 -44.5t-84.5 -65.5t-77 -71t-49 -60q-23 -39 -23 -78z" />
<glyph unicode="&#x2019;" horiz-adv-x="491" d="M397 895q0 -2 4 -2t17 6q27 16 69.5 47t84.5 66t78 69.5t50 59.5q23 39 23 78q0 29 -14.5 48t-46.5 19q-47 0 -67 -28.5t-20 -67.5q0 -29 15 -68q2 -4 2 -12q0 -23 -19.5 -50.5t-48 -56t-61.5 -55t-57 -43.5q-9 -6 -9 -10z" />
<glyph unicode="&#x201a;" horiz-adv-x="634" d="M150 -166q0 -2 4 -2t16 6q27 16 70 47t85 66t77.5 69.5t50.5 59.5q23 39 22 78q0 29 -14.5 48t-46.5 19q-47 0 -66.5 -28.5t-19.5 -67.5q0 -29 14 -68q2 -4 2 -12q0 -23 -20.5 -50.5t-49 -55t-60.5 -54t-56 -45.5q-8 -6 -8 -10z" />
<glyph unicode="&#x201c;" horiz-adv-x="589" d="M317 1018q0 -29 14.5 -48.5t47.5 -19.5q47 0 66.5 29t19.5 68q0 29 -14 67q-2 4 -2 12q0 20 19 49t48 58t61.5 55.5t57.5 42.5q8 6 8 10q0 2 -4 2t-16 -6q-29 -16 -71 -46.5t-84 -65.5t-78 -70t-50 -59q-23 -39 -23 -78zM588 1018q0 -29 14 -48.5t47 -19.5q47 0 66.5 29 t19.5 68q0 29 -14 67q-2 4 -2 12q0 20 19.5 49t48 58t61.5 55.5t57 42.5q8 6 8 10q0 2 -4 2t-16 -6q-29 -14 -72 -44.5t-85 -65.5t-76.5 -71t-49.5 -60q-22 -39 -22 -78z" />
<glyph unicode="&#x201d;" horiz-adv-x="765" d="M449 895q0 -2 4 -2t16 6q29 14 72 44t85 65.5t76.5 71.5t49.5 61q23 39 22 78q0 29 -14.5 48t-46.5 19q-47 0 -66.5 -28.5t-19.5 -67.5q0 -29 14 -68q2 -4 2 -12q0 -23 -19.5 -50.5t-48 -56t-61.5 -55t-57 -43.5q-8 -6 -8 -10zM711 895q0 -2 4 -2t16 6q29 14 72 44 t85 65.5t76.5 71.5t49.5 61q23 39 22 78q0 29 -14 48t-47 19q-47 0 -66.5 -28.5t-19.5 -67.5q0 -29 14 -68q2 -4 2 -12q0 -23 -19.5 -50.5t-48 -56t-61.5 -55t-57 -43.5q-8 -6 -8 -10z" />
<glyph unicode="&#x201e;" horiz-adv-x="690" d="M31 -166q0 -2 4 -2t16 6q29 14 72 44t85 66t76.5 71.5t49.5 60.5q23 39 22 78q0 29 -14 48t-47 19q-47 0 -66.5 -28.5t-19.5 -67.5q0 -29 14 -68q2 -4 2 -12q0 -23 -20.5 -50.5t-49 -55t-60.5 -54t-56 -45.5q-8 -6 -8 -10zM293 -166q0 -2 4 -2t16 6q29 14 72 44t85 66 t77 71.5t49 60.5q23 39 22 78q0 29 -14 48t-47 19q-47 0 -66.5 -28.5t-19.5 -67.5q0 -29 14 -68q2 -4 2 -12q0 -23 -20.5 -50.5t-49 -55t-60 -54t-56.5 -45.5q-8 -6 -8 -10z" />
<glyph unicode="&#x2022;" horiz-adv-x="712" d="M131 393q0 -47 17.5 -88t48 -71.5t71.5 -48t88 -17.5t88 17.5t72 48t48.5 71.5t17.5 88t-17.5 88t-48.5 72t-72 48t-88 17t-88 -17t-71.5 -48t-48 -72t-17.5 -88z" />
<glyph unicode="&#x2026;" horiz-adv-x="1046" d="M152 70q0 -29 17 -53.5t54 -24.5q53 0 79 31.5t26 68.5q0 31 -18.5 56.5t-53.5 25.5q-49 0 -76.5 -31.5t-27.5 -72.5zM496 70q0 -29 17 -53.5t54 -24.5q53 0 79 31.5t26 68.5q0 31 -18.5 56.5t-53.5 25.5q-49 0 -76.5 -31.5t-27.5 -72.5zM840 70q0 -29 17 -53.5t54 -24.5 q53 0 79 31.5t26 68.5q0 31 -18.5 56.5t-53.5 25.5q-49 0 -76.5 -31.5t-27.5 -72.5z" />
<glyph unicode="&#x202f;" horiz-adv-x="315" />
<glyph unicode="&#x2039;" horiz-adv-x="540" d="M45 496q0 -14 30.5 -53.5t74 -86.5t89.5 -93t76 -73q27 -23 39 -22q12 0 13 12q0 18 -21 45q-25 35 -52.5 79t-51 84t-39 69.5t-15.5 38.5q0 8 27 39.5t65.5 71.5t83 83t78.5 76q23 20 23 39q0 10 -10 10t-29 -12q-10 -8 -43 -30.5t-75 -52.5t-89 -63.5t-85 -64.5 t-63.5 -56.5t-25.5 -39.5z" />
<glyph unicode="&#x203a;" horiz-adv-x="587" d="M197 193q0 -10 10 -11q12 0 31 11q25 14 62.5 40.5t79.5 57.5t85 63.5t76.5 61t55 51t21.5 33.5q0 14 -29.5 54t-71.5 86t-88 91t-81 74q-29 23 -41 22q-10 0 -10 -12q0 -16 20 -45q27 -39 55.5 -83t51 -83t37 -67.5t14.5 -36.5t-26.5 -40t-64.5 -74t-82 -85t-81 -72 q-24 -22 -24 -36z" />
<glyph unicode="&#x205f;" horiz-adv-x="393" />
<glyph unicode="&#x2122;" horiz-adv-x="638" d="M444 1128h72l-41 -217h25l41 217h71l2 23h-168zM557 911h23l88 183l57 -201l88 199l57 -181h21l-74 244l-86 -199l-57 199z" />
<glyph unicode="&#xe000;" horiz-adv-x="570" d="M0 570h570v-570h-570v570z" />
<glyph unicode="&#xfb01;" horiz-adv-x="1024" d="M545 233q0 -20 18 -20q10 0 25 14q18 20 43.5 46t42 41.5t18.5 17.5q-43 -53 -64.5 -103.5t-21.5 -89.5q0 -63 34 -107t95 -44q53 0 101.5 29.5t90.5 69.5t75.5 83t56.5 68q10 14 10 22q0 20 -23 21q-10 0 -16 -9q-25 -29 -53.5 -59.5t-59 -58t-59.5 -45t-49 -17.5 q-31 0 -31 41q0 23 13.5 51.5t33.5 59.5l217 325h-194q-27 -29 -104 -111.5t-185 -197.5q-14 -15 -14 -27zM936 778q0 -45 28.5 -75.5t79.5 -30.5q63 0 98 36.5t35 88.5q0 39 -27.5 70.5t-78.5 31.5q-61 0 -98 -37t-37 -84zM-322 -514q0 -33 19.5 -50.5t42.5 -17.5 q33 0 63 29q41 37 90.5 110.5t93.5 152.5t77.5 143.5t44.5 80.5l57 99q16 -33 46 -41t69 -8q43 0 89 29.5t88 69.5t77.5 82t58.5 68q8 8 8 21q0 10 -6 15t-12 5q-12 0 -19 -8q-23 -25 -52.5 -55.5t-60 -57t-59 -45t-49.5 -18.5q-16 0 -22.5 15.5t-14.5 33.5q-6 16 -15 28.5 t-26 12.5q-6 0 -10 -2l221 387q229 96 344 214t115 216q0 41 -28.5 69t-88.5 28q-78 0 -167 -75t-181 -210q-37 -55 -79 -123t-79 -127q-31 -25 -73.5 -60.5t-86.5 -76.5t-86 -83t-73 -77q-10 -10 -10 -20q0 -23 20 -23q10 0 19 8q27 29 58 61l62 62q31 31 60.5 57.5 t52.5 43.5l-244 -398q-72 -98 -133 -187t-105 -163t-70 -129t-26 -86zM514 639q33 57 75 119.5t84 114t81 85t67 33.5q29 0 29 -35q0 -43 -28.5 -86t-75 -82.5t-108 -77.5t-124.5 -71z" />
<glyph unicode="&#xfb02;" horiz-adv-x="1024" d="M547 233q0 -20 18 -20q10 0 21 10q20 25 50.5 55.5t57.5 56t46 44.5l20 18q-18 -25 -40 -57.5t-40.5 -69.5t-30.5 -75.5t-12 -77.5q0 -61 29.5 -95t84.5 -34q43 0 87 27.5t85 66.5t75 81t54 68q8 10 9 23q0 20 -21 20q-10 0 -16 -8q-23 -29 -48.5 -56.5t-50 -50 t-48 -36.5t-44.5 -14q-29 0 -28 32q0 14 8 39t33 64l219 348q18 20 60 69.5t84 108.5t74 123.5t32 120.5q0 37 -19.5 57.5t-42.5 20.5q-33 0 -67 -27q-37 -27 -78 -82t-83 -122.5t-80 -138.5t-69 -128q-37 -39 -77.5 -82t-83.5 -88t-83 -87t-73 -77q-12 -17 -12 -27z M-322 -514q0 -33 19.5 -50.5t42.5 -17.5q33 0 63 29q41 37 90.5 110.5t93.5 152.5t77.5 143.5t44.5 80.5l57 99q16 -33 46 -41t69 -8q43 0 89 29.5t88 69.5t77.5 82t58.5 68q8 8 8 21q0 10 -6 15t-12 5q-12 0 -19 -8q-23 -25 -52.5 -55.5t-60 -57t-59 -45t-49.5 -18.5 q-16 0 -22.5 15.5t-14.5 33.5q-6 16 -15 28.5t-26 12.5q-6 0 -10 -2l221 387q229 96 344 214t115 216q0 41 -28.5 69t-88.5 28q-78 0 -167 -75t-181 -210q-37 -55 -79 -123t-79 -127q-31 -25 -73.5 -60.5t-86.5 -76.5t-86 -83t-73 -77q-10 -10 -10 -20q0 -23 20 -23 q10 0 19 8q27 29 58 61l62 62q31 31 60.5 57.5t52.5 43.5l-244 -398q-72 -98 -133 -187t-105 -163t-70 -129t-26 -86zM514 639q33 57 75 119.5t84 114t81 85t67 33.5q29 0 29 -35q0 -43 -28.5 -86t-75 -82.5t-108 -77.5t-124.5 -71z" />
<glyph unicode="&#xfb03;" horiz-adv-x="1587" d="M1108 233q0 -20 18 -20q10 0 25 14q18 20 43.5 46t42 41.5t18.5 17.5q-43 -53 -64.5 -103.5t-21.5 -89.5q0 -63 34 -107t95 -44q53 0 101.5 29.5t90.5 69.5t75.5 83t56.5 68q10 14 10 22q0 20 -23 21q-10 0 -16 -9q-25 -29 -53.5 -59.5t-59 -58t-59.5 -45t-49 -17.5 q-31 0 -31 41q0 23 13.5 51.5t33.5 59.5l217 325h-194q-27 -29 -104 -111.5t-185 -197.5q-14 -15 -14 -27zM1499 778q0 -45 28.5 -75.5t79.5 -30.5q63 0 98 36.5t35 88.5q0 39 -27.5 70.5t-78.5 31.5q-61 0 -98 -37t-37 -84zM241 -514q0 -33 19.5 -50.5t42.5 -17.5 q33 0 63 29q41 37 90.5 110.5t93.5 152.5t77.5 143.5t44.5 80.5l57 99q16 -33 46 -41t69 -8q43 0 89 29.5t88 69.5t77.5 82t58.5 68q8 8 8 21q0 10 -6 15t-12 5q-12 0 -19 -8q-23 -25 -52.5 -55.5t-60 -57t-59 -45t-49.5 -18.5q-16 0 -22.5 15.5t-14.5 33.5q-6 16 -15 28.5 t-26 12.5q-6 0 -10 -2l221 387q229 96 344 214t115 216q0 41 -28.5 69t-88.5 28q-78 0 -167 -75t-181 -210q-37 -55 -79 -123t-79 -127q-31 -25 -73.5 -60.5t-86.5 -76.5t-86 -83t-73 -77q-10 -10 -10 -20q0 -23 20 -23q10 0 19 8q27 29 58 61l62 62q31 31 60.5 57.5 t52.5 43.5l-244 -398q-72 -98 -133 -187t-105 -163t-70 -129t-26 -86zM1077 639q33 57 75 119.5t84 114t81 85t67 33.5q29 0 29 -35q0 -43 -28.5 -86t-75 -82.5t-108 -77.5t-124.5 -71zM-322 -514q0 -33 19.5 -50.5t42.5 -17.5q33 0 63 29q41 37 90.5 110.5t93.5 152.5 t77.5 143.5t44.5 80.5l57 99q16 -33 46 -41t69 -8q43 0 89 29.5t88 69.5t77.5 82t58.5 68q8 8 8 21q0 10 -6 15t-12 5q-12 0 -19 -8q-23 -25 -52.5 -55.5t-60 -57t-59 -45t-49.5 -18.5q-16 0 -22.5 15.5t-14.5 33.5q-6 16 -15 28.5t-26 12.5q-6 0 -10 -2l221 387 q229 96 344 214t115 216q0 41 -28.5 69t-88.5 28q-78 0 -167 -75t-181 -210q-37 -55 -79 -123t-79 -127q-31 -25 -73.5 -60.5t-86.5 -76.5t-86 -83t-73 -77q-10 -10 -10 -20q0 -23 20 -23q10 0 19 8q27 29 58 61l62 62q31 31 60.5 57.5t52.5 43.5l-244 -398 q-72 -98 -133 -187t-105 -163t-70 -129t-26 -86zM514 639q33 57 75 119.5t84 114t81 85t67 33.5q29 0 29 -35q0 -43 -28.5 -86t-75 -82.5t-108 -77.5t-124.5 -71z" />
<glyph unicode="&#xfb04;" horiz-adv-x="1587" d="M1110 233q0 -20 18 -20q10 0 21 10q20 25 50.5 55.5t57.5 56t46 44.5l20 18q-18 -25 -40 -57.5t-40.5 -69.5t-30.5 -75.5t-12 -77.5q0 -61 29.5 -95t84.5 -34q43 0 87 27.5t85 66.5t75 81t54 68q8 10 9 23q0 20 -21 20q-10 0 -16 -8q-23 -29 -48.5 -56.5t-50 -50 t-48 -36.5t-44.5 -14q-29 0 -28 32q0 14 8 39t33 64l219 348q18 20 60 69.5t84 108.5t74 123.5t32 120.5q0 37 -19.5 57.5t-42.5 20.5q-33 0 -67 -27q-37 -27 -78 -82t-83 -122.5t-80 -138.5t-69 -128q-37 -39 -77.5 -82t-83.5 -88t-83 -87t-73 -77q-12 -17 -12 -27z M241 -514q0 -33 19.5 -50.5t42.5 -17.5q33 0 63 29q41 37 90.5 110.5t93.5 152.5t77.5 143.5t44.5 80.5l57 99q16 -33 46 -41t69 -8q43 0 89 29.5t88 69.5t77.5 82t58.5 68q8 8 8 21q0 10 -6 15t-12 5q-12 0 -19 -8q-23 -25 -52.5 -55.5t-60 -57t-59 -45t-49.5 -18.5 q-16 0 -22.5 15.5t-14.5 33.5q-6 16 -15 28.5t-26 12.5q-6 0 -10 -2l221 387q229 96 344 214t115 216q0 41 -28.5 69t-88.5 28q-78 0 -167 -75t-181 -210q-37 -55 -79 -123t-79 -127q-31 -25 -73.5 -60.5t-86.5 -76.5t-86 -83t-73 -77q-10 -10 -10 -20q0 -23 20 -23 q10 0 19 8q27 29 58 61l62 62q31 31 60.5 57.5t52.5 43.5l-244 -398q-72 -98 -133 -187t-105 -163t-70 -129t-26 -86zM1077 639q33 57 75 119.5t84 114t81 85t67 33.5q29 0 29 -35q0 -43 -28.5 -86t-75 -82.5t-108 -77.5t-124.5 -71zM-322 -514q0 -33 19.5 -50.5t42.5 -17.5 q33 0 63 29q41 37 90.5 110.5t93.5 152.5t77.5 143.5t44.5 80.5l57 99q16 -33 46 -41t69 -8q43 0 89 29.5t88 69.5t77.5 82t58.5 68q8 8 8 21q0 10 -6 15t-12 5q-12 0 -19 -8q-23 -25 -52.5 -55.5t-60 -57t-59 -45t-49.5 -18.5q-16 0 -22.5 15.5t-14.5 33.5q-6 16 -15 28.5 t-26 12.5q-6 0 -10 -2l221 387q229 96 344 214t115 216q0 41 -28.5 69t-88.5 28q-78 0 -167 -75t-181 -210q-37 -55 -79 -123t-79 -127q-31 -25 -73.5 -60.5t-86.5 -76.5t-86 -83t-73 -77q-10 -10 -10 -20q0 -23 20 -23q10 0 19 8q27 29 58 61l62 62q31 31 60.5 57.5 t52.5 43.5l-244 -398q-72 -98 -133 -187t-105 -163t-70 -129t-26 -86zM514 639q33 57 75 119.5t84 114t81 85t67 33.5q29 0 29 -35q0 -43 -28.5 -86t-75 -82.5t-108 -77.5t-124.5 -71z" />
</font>
</defs>
</svg>
